<svg width="220" height="220" viewBox="0 0 220 220" fill="none" xmlns="http://www.w3.org/2000/svg">
<path d="M63.404 196.702C1.99097 186.681 -1.18803 126.775 19.063 76.659C26.983 58.179 43.362 31.427 99.924 27.819C149.985 24.629 201.872 75.592 211.431 127.204C224.477 197.659 140.437 209.264 63.404 196.702Z" fill="#FECE2F"/>
<path d="M80.5639 195.822C113.856 195.822 140.844 190.996 140.844 185.042C140.844 179.088 113.856 174.262 80.5639 174.262C47.2722 174.262 20.2839 179.088 20.2839 185.042C20.2839 190.996 47.2722 195.822 80.5639 195.822Z" fill="#F1F1F1"/>
<path d="M152.438 66.462C164.588 66.462 174.438 56.6123 174.438 44.462C174.438 32.3117 164.588 22.462 152.438 22.462C140.288 22.462 130.438 32.3117 130.438 44.462C130.438 56.6123 140.288 66.462 152.438 66.462Z" fill="#F1F1F1"/>
<path d="M50.424 167.112H34.793C34.606 167.112 34.463 166.969 34.463 166.782C34.463 166.595 34.606 166.452 34.793 166.452H50.424C50.611 166.452 50.754 166.595 50.754 166.782C50.754 166.969 50.611 167.112 50.424 167.112Z" fill="#212121"/>
<path d="M93.324 167.112H68.013C67.826 167.112 67.683 166.969 67.683 166.782C67.683 166.595 67.826 166.452 68.013 166.452H93.324C93.511 166.452 93.654 166.595 93.654 166.782C93.654 166.969 93.511 167.112 93.324 167.112Z" fill="#212121"/>
<path d="M121.704 167.112H111.793C111.606 167.112 111.463 166.969 111.463 166.782C111.463 166.595 111.606 166.452 111.793 166.452H121.704C121.891 166.452 122.034 166.595 122.034 166.782C122.034 166.969 121.891 167.112 121.704 167.112Z" fill="#212121"/>
<path d="M128.084 167.112H124.993C124.806 167.112 124.663 166.969 124.663 166.782C124.663 166.595 124.806 166.452 124.993 166.452H128.084C128.271 166.452 128.414 166.595 128.414 166.782C128.414 166.969 128.271 167.112 128.084 167.112Z" fill="#212121"/>
<path d="M196.449 190.96C195.624 190.641 194.436 190.344 192.94 190.102C189.893 189.596 185.834 189.321 181.533 189.321C177.221 189.321 173.173 189.596 170.126 190.102C168.63 190.344 167.453 190.641 166.617 190.96C165.627 191.345 165.143 191.785 165.143 192.291C165.143 192.797 165.627 193.237 166.617 193.622C167.442 193.941 168.63 194.238 170.126 194.48C173.173 194.986 177.232 195.261 181.533 195.261C185.845 195.261 189.893 194.986 192.94 194.48C194.436 194.238 195.613 193.941 196.449 193.622C197.439 193.237 197.923 192.797 197.923 192.291C197.923 191.785 197.439 191.345 196.449 190.96Z" fill="#212121"/>
<path d="M92.5761 25.399L88.3191 46.959C88.3191 46.959 85.6021 45.716 79.9591 45.936C74.3161 46.156 70.7961 46.673 70.7961 46.673L67.4301 24.519C67.4301 24.519 71.0271 21.956 80.6301 21.956C89.0561 21.945 92.5761 25.399 92.5761 25.399Z" fill="#FECE2F"/>
<path d="M71.016 23.056C68.4971 23.749 67.4301 24.508 67.4301 24.508L70.8071 46.651C70.8071 46.651 71.6981 46.519 73.3041 46.365L71.016 23.056Z" fill="#F1F1F1"/>
<path d="M30.778 100.947C30.778 100.947 33.968 91.212 35.123 88.682C36.278 86.152 39.358 77.682 43.263 73.997C43.263 73.997 45.518 70.807 51.183 70.312L53.053 56.452C53.053 56.452 47.993 57.332 42.878 60.192C37.763 63.052 32.923 68.222 29.953 73.062C26.983 77.902 21.813 88.242 19.833 98.637C20.108 98.527 30.778 100.947 30.778 100.947Z" fill="#F1F1F1"/>
<path d="M52.14 63.206C50.71 63.404 49.236 64.086 47.993 64.581C43.516 66.385 39.468 69.256 36.245 72.864C31.68 77.99 28.798 84.546 27.863 91.355C27.687 92.653 27.577 93.984 27.093 95.205C26.609 96.426 25.685 97.548 24.42 97.889C24.233 97.944 24.035 97.977 23.87 98.087C23.452 98.362 23.496 98.901 23.727 99.385C26.873 100.056 30.789 100.947 30.789 100.947C30.789 100.947 33.979 91.212 35.134 88.682C36.289 86.152 39.369 77.682 43.274 73.997C43.274 73.997 45.529 70.807 51.194 70.312L52.14 63.206Z" fill="#FECE2F"/>
<path d="M138.336 80.465C138.336 80.465 137.676 86.548 135.179 88.968C132.682 91.388 130.636 92.488 127.776 90.145C124.916 87.802 124.113 81.048 124.113 81.048C124.113 81.048 123.651 74.778 120.681 69.025C117.711 63.272 112.838 59.642 104.093 58.872L103.95 71.742C103.95 71.742 108.383 72.655 110.11 75.185C111.837 77.715 112.607 81.455 113.223 84.942C113.85 88.429 116.083 95.645 119.306 99.462C122.529 103.279 126.599 104.632 129.789 104.709C132.979 104.786 137.676 103.719 141.779 99.979C145.882 96.239 147.312 91.839 147.312 91.839C147.312 91.839 149.435 86.306 149.732 84.172C149.732 84.172 146.575 84.172 143.649 83.479C140.723 82.775 138.336 80.465 138.336 80.465Z" fill="#F1F1F1"/>
<path d="M149.743 84.172C149.743 84.172 146.586 84.172 143.66 83.479C143.341 83.402 143.033 83.314 142.736 83.204C141.856 85.965 142.593 90.915 142.186 93.731C141.845 96.129 140.085 98.12 138.072 99.484C133.441 102.597 126.533 101.97 123.178 98.967C121.088 97.097 119.163 92.752 118.404 87.846C116.567 76.076 115.093 70.653 108.812 67.331C107.393 66.583 105.204 66.385 104.005 66.33L103.939 71.753C103.939 71.753 108.372 72.666 110.099 75.196C111.826 77.726 112.596 81.466 113.212 84.953C113.839 88.44 116.072 95.656 119.295 99.473C122.518 103.29 126.588 104.643 129.778 104.72C132.968 104.797 137.665 103.73 141.768 99.99C143.407 98.494 144.628 96.888 145.486 95.513C145.486 95.502 145.497 95.502 145.497 95.491C146.146 94.226 146.421 93.39 146.421 93.39C146.421 93.39 146.905 92.532 147.334 91.773C147.62 91.069 149.468 86.141 149.743 84.172Z" fill="#FECE2F"/>
<path d="M80.113 53.603L72.556 53.251L61.27 52.459C61.27 52.459 57.09 51.139 54.527 53.922C51.964 56.705 52.03 61.105 52.03 61.105C52.03 61.105 50.787 74.745 50.71 79.585C50.633 84.425 50.787 97.482 51.15 102.542C51.513 107.602 52.767 116.985 55.033 120.362C57.299 123.739 59.51 124.179 66.913 123.079C74.316 121.979 83.05 120.736 83.05 120.736L100.353 118.613C100.353 118.613 103.95 118.173 104.973 115.61C105.996 113.047 104.973 108.273 104.973 108.273C104.973 108.273 103.29 97.185 103.29 92.719C103.29 88.242 103.95 66.462 103.95 66.462C103.95 66.462 105.006 58.806 102.993 56.199C101.53 54.285 80.113 53.603 80.113 53.603Z" fill="#FECE2F"/>
<path d="M93.5441 63.712L54.3951 61.985C54.3071 61.985 54.2191 62.018 54.1531 62.073C54.0871 62.139 54.0541 62.216 54.0541 62.315V96.382C54.0541 96.547 54.1861 96.69 54.3511 96.712L92.9941 100.485C93.0051 100.485 93.0161 100.485 93.0271 100.485C93.1041 100.485 93.1811 100.452 93.2471 100.397C93.3131 100.331 93.3571 100.243 93.3571 100.155L93.8631 64.042C93.8631 63.866 93.7311 63.723 93.5441 63.712Z" fill="#F1F1F1"/>
<path d="M80.113 53.603L72.556 53.251L61.27 52.459C61.27 52.459 57.09 51.139 54.527 53.922C53.273 55.286 52.646 57.035 52.338 58.476L102.927 56.111C100.892 54.263 80.113 53.603 80.113 53.603Z" fill="#F1F1F1"/>
<path d="M99.583 118.492L104.203 144.782L108.768 171.677C108.768 171.677 106.733 173.492 103.928 174.097C101.123 174.702 97.713 173.932 97.713 173.932L92.928 145.332L88.748 119.977L99.583 118.492Z" fill="#F1F1F1"/>
<path d="M102.3 174.306C102.85 174.273 103.4 174.207 103.928 174.097C106.733 173.492 108.768 171.677 108.768 171.677L104.203 144.782L100.243 122.221L94.468 124.883L102.3 174.306Z" fill="#FECE2F"/>
<path d="M101.783 129.657C101.783 129.646 101.783 129.635 101.783 129.624L100.078 118.734C100.045 118.558 99.8911 118.437 99.7151 118.459L92.3341 119.383L88.7811 119.823C88.6931 119.834 88.6161 119.878 88.5611 119.955C88.5061 120.032 88.4841 120.12 88.4951 120.208L89.4851 126.148C89.4961 126.214 89.5291 126.269 89.5731 126.324C89.6391 126.39 91.2231 128.007 95.0071 127.303C96.4371 127.039 96.9871 128.172 97.6801 129.921C98.1421 131.098 98.6151 132.308 99.6601 132.506C99.7921 132.528 99.9241 132.55 100.056 132.55C100.441 132.55 100.782 132.429 101.057 132.187C101.882 131.406 101.783 129.723 101.783 129.657Z" fill="#212121"/>
<path d="M74.613 121.792L63.723 175.197C63.723 175.197 60.588 176.462 58.113 176.297C55.638 176.132 52.833 174.482 52.833 174.482L55.858 158.752L63.118 123.497L74.613 121.792Z" fill="#F1F1F1"/>
<path d="M58.113 176.297C58.96 176.121 60.247 176.198 61.49 175.956C62.59 175.747 63.723 175.197 63.723 175.197L74.613 121.792L68.123 122.672L58.113 176.297Z" fill="#FECE2F"/>
<path d="M74.855 121.671C74.778 121.594 74.668 121.55 74.558 121.572L63.008 123.442C62.876 123.464 62.766 123.563 62.733 123.706L60.203 136.356C60.192 136.433 60.203 136.51 60.236 136.576C60.258 136.62 60.83 137.698 61.908 137.995C62.095 138.05 62.293 138.072 62.48 138.072C62.898 138.072 63.338 137.94 63.767 137.687C64.691 137.148 64.757 135.971 64.812 134.717C64.922 132.649 65.032 130.504 68.783 130.361C72.776 130.207 73.7 127.611 73.744 127.501C73.744 127.49 73.755 127.479 73.755 127.468L74.932 121.968C74.965 121.858 74.932 121.748 74.855 121.671Z" fill="#212121"/>
<path d="M19.789 120.703C19.415 120.615 14.003 119.68 13.926 120.032C13.849 120.384 14.399 120.824 17.534 121.594C20.669 122.364 25.256 123.332 25.344 122.914C25.432 122.496 22.187 121.253 19.789 120.703Z" fill="#FECE2F"/>
<path d="M55.583 62.392H94.303L93.093 98.472L55.583 95.172V62.392Z" fill="#212121"/>
<path d="M55.759 65.197C55.77 66.517 55.649 67.837 55.583 69.157C55.517 70.455 55.616 71.753 55.55 73.051C55.539 73.359 55.506 73.656 55.462 73.953C55.594 74.481 55.583 75.053 55.517 75.581C55.484 75.856 55.451 76.12 55.407 76.395C55.396 76.439 55.33 76.934 55.385 76.527C55.44 76.164 55.385 76.527 55.385 76.615C55.374 76.769 55.374 76.923 55.374 77.066C55.374 77.22 55.396 77.374 55.407 77.528C55.385 77.011 55.418 77.605 55.429 77.693C55.495 78.133 55.572 78.584 55.616 79.024C55.649 79.354 55.671 79.684 55.649 80.014C56.485 80.212 57.541 80.399 58.685 80.509C61.413 80.751 63.723 79.992 63.723 79.992L64.449 65.604L55.759 65.197Z" fill="#FECE2F"/>
<path d="M64.6471 65.329C64.4491 65.087 63.9541 64.9 63.0631 64.724C62.1171 64.537 60.8631 64.394 59.5211 64.328C58.1791 64.262 56.9141 64.273 55.9571 64.372C55.8471 64.383 55.748 64.394 55.649 64.405C55.715 64.614 55.7591 64.845 55.7701 65.065C55.7701 65.384 55.77 65.714 55.759 66.033C55.792 66.044 55.836 66.044 55.869 66.055C56.8151 66.242 58.0691 66.385 59.4111 66.451C60.7531 66.517 62.0181 66.506 62.9751 66.407C63.4591 66.363 63.8221 66.297 64.0971 66.22L63.9541 69.124C63.9431 69.135 63.9431 69.157 63.9321 69.168C63.6351 69.344 62.0511 69.586 59.2571 69.443C57.5851 69.355 56.3641 69.179 55.583 69.014C55.583 69.058 55.5831 69.102 55.5721 69.146C55.5061 70.444 55.605 71.742 55.539 73.04C55.528 73.348 55.495 73.645 55.451 73.942C55.5611 74.404 55.572 74.899 55.528 75.372C56.4521 75.548 57.6511 75.68 58.9271 75.746C60.2691 75.812 61.5341 75.801 62.4911 75.702C62.9751 75.658 63.3381 75.592 63.6131 75.515L63.3931 79.849C63.3821 79.86 63.3821 79.882 63.3711 79.893C63.0741 80.069 61.4901 80.311 58.6961 80.168C57.4201 80.102 56.4081 79.981 55.649 79.86C55.649 80.08 55.627 80.3 55.605 80.52C56.4741 80.663 57.5411 80.773 58.6631 80.828C60.0051 80.894 61.2701 80.883 62.2271 80.784C63.3271 80.674 63.8441 80.498 63.9761 80.179C64.0201 80.124 64.0421 80.058 64.0421 79.992L64.7681 65.604C64.8011 65.494 64.7461 65.395 64.6471 65.329Z" fill="#212121"/>
<path d="M59.488 64.988C57.794 64.9 56.551 64.955 55.759 65.054V65.065C55.759 65.164 55.759 65.263 55.759 65.362C56.529 65.538 57.761 65.714 59.444 65.791C61.7651 65.912 63.2501 65.758 63.8551 65.604C63.2721 65.395 61.8091 65.109 59.488 64.988Z" fill="#F1F1F1"/>
<path d="M74.657 66.264L73.766 80.652C73.766 80.652 71.445 81.389 68.728 81.114C66.011 80.839 63.822 80.036 63.822 80.036L64.471 68.871L64.702 65.692L74.657 66.264Z" fill="#FECE2F"/>
<path d="M74.9871 66.286C74.9981 66.165 74.9321 66.055 74.8441 65.989C74.6461 65.747 74.1511 65.549 73.2711 65.362C72.3251 65.164 71.0711 65.01 69.7291 64.922C68.3871 64.834 67.1221 64.834 66.1651 64.922C65.1201 65.01 64.6031 65.164 64.4381 65.461C64.4051 65.505 64.3831 65.56 64.3831 65.626L64.1521 69.322L63.8001 74.954L63.4921 80.003C63.4921 80.014 63.4921 80.014 63.4921 80.025C63.4921 80.036 63.4921 80.036 63.4921 80.047C63.4701 80.465 63.9321 80.74 65.1751 80.993C66.1211 81.191 67.3751 81.345 68.7171 81.433C70.0591 81.521 71.3241 81.521 72.2811 81.433C73.3811 81.345 73.8981 81.169 74.0301 80.85C74.0741 80.795 74.0961 80.729 74.1071 80.663L74.9871 66.286ZM64.9881 66.319C65.2521 66.418 65.5931 66.517 66.0441 66.616C66.9901 66.814 68.2441 66.968 69.5861 67.056C70.9281 67.144 72.1931 67.144 73.1501 67.056C73.6341 67.012 73.9971 66.957 74.2721 66.88L74.0961 69.784C74.0851 69.795 74.0851 69.817 74.0741 69.828C73.7771 69.993 72.1931 70.224 69.3991 70.048C66.6491 69.883 65.1091 69.476 64.8011 69.267L64.9881 66.319ZM68.7391 80.773C65.9891 80.608 64.4491 80.201 64.1411 79.992L64.4161 75.614C64.6801 75.713 65.0211 75.812 65.4721 75.911C66.4181 76.109 67.6721 76.263 69.0141 76.351C70.3561 76.439 71.6211 76.439 72.5781 76.351C73.0621 76.307 73.4251 76.252 73.7001 76.175L73.4361 80.509C73.4251 80.52 73.4251 80.542 73.4141 80.553C73.1281 80.729 71.5441 80.949 68.7391 80.773Z" fill="#212121"/>
<path d="M69.6301 66.3959C67.3091 66.2529 65.8461 65.945 65.2631 65.725C65.8681 65.582 67.3531 65.45 69.6741 65.593C71.9951 65.736 73.4581 66.044 74.0411 66.264C73.4361 66.4069 71.9511 66.5389 69.6301 66.3959Z" fill="#F1F1F1"/>
<path d="M84.5899 66.957L83.6989 81.345C83.6989 81.345 81.3779 82.082 78.6609 81.807C75.9439 81.532 73.7549 80.729 73.7549 80.729L74.4039 69.564L74.6349 66.385L84.5899 66.957Z" fill="#FECE2F"/>
<path d="M84.92 66.979C84.931 66.858 84.865 66.748 84.777 66.682C84.579 66.44 84.084 66.242 83.204 66.055C82.258 65.857 81.004 65.703 79.662 65.615C78.32 65.527 77.055 65.527 76.098 65.615C75.0529 65.703 74.5359 65.857 74.3709 66.154C74.3379 66.198 74.3159 66.253 74.3159 66.319L74.0849 70.015L73.7329 75.647L73.4249 80.696C73.4249 80.707 73.4249 80.707 73.4249 80.718C73.4249 80.729 73.4249 80.729 73.4249 80.74C73.4029 81.158 73.8649 81.433 75.1079 81.686C76.054 81.884 77.308 82.038 78.65 82.126C79.992 82.214 81.257 82.214 82.214 82.126C83.314 82.038 83.831 81.862 83.963 81.543C84.007 81.488 84.029 81.422 84.04 81.356L84.92 66.979ZM74.9319 67.012C75.1959 67.111 75.5369 67.21 75.988 67.309C76.934 67.507 78.188 67.661 79.53 67.749C80.872 67.837 82.137 67.837 83.094 67.749C83.578 67.705 83.941 67.65 84.216 67.573L84.04 70.477C84.029 70.488 84.029 70.51 84.018 70.521C83.721 70.686 82.137 70.917 79.343 70.741C76.593 70.576 75.0529 70.169 74.7449 69.96L74.9319 67.012ZM78.683 81.477C75.933 81.312 74.3929 80.905 74.0849 80.696L74.3599 76.318C74.6239 76.417 74.9649 76.516 75.4159 76.615C76.362 76.813 77.616 76.967 78.958 77.055C80.3 77.143 81.565 77.143 82.522 77.055C83.006 77.011 83.369 76.956 83.644 76.879L83.38 81.213C83.369 81.224 83.369 81.246 83.358 81.257C83.061 81.422 81.477 81.642 78.683 81.477Z" fill="#212121"/>
<path d="M79.574 67.089C77.253 66.946 75.79 66.638 75.207 66.418C75.812 66.275 77.297 66.143 79.618 66.286C81.939 66.429 83.402 66.737 83.985 66.957C83.38 67.1 81.895 67.232 79.574 67.089Z" fill="#F1F1F1"/>
<path d="M93.8961 74.811C93.9511 72.413 93.7641 69.982 93.9951 67.595L84.5791 67.045L84.3481 70.224L83.6991 81.389C83.6991 81.389 85.8881 82.181 88.6051 82.467C91.1901 82.731 93.4121 82.082 93.6321 82.016C93.6321 79.607 93.8411 77.209 93.8961 74.811Z" fill="#FECE2F"/>
<path d="M93.8961 74.811C93.9291 73.623 93.8961 72.424 93.8741 71.225C93.4341 71.39 91.8831 71.566 89.2761 71.412C86.5261 71.247 84.9861 70.84 84.6781 70.631L84.8651 67.683C85.1291 67.782 85.4701 67.881 85.9211 67.98C86.8671 68.178 88.1211 68.332 89.4631 68.42C90.8051 68.508 92.0701 68.508 93.0271 68.42C93.3901 68.387 93.6871 68.354 93.9291 68.299C93.9621 67.859 93.9951 67.419 94.0501 66.979C93.8081 66.891 93.5001 66.814 93.1261 66.737C92.1801 66.539 90.9261 66.385 89.5841 66.297C88.2421 66.209 86.9771 66.209 86.0201 66.297C84.9751 66.385 84.4581 66.539 84.2931 66.836C84.2601 66.88 84.2381 66.935 84.2381 67.001L84.0071 70.697L83.6551 76.329L83.3471 81.378C83.3471 81.389 83.3471 81.389 83.3471 81.4C83.3471 81.411 83.3471 81.411 83.3471 81.422C83.3251 81.84 83.7871 82.115 85.0301 82.368C85.9761 82.566 87.2301 82.72 88.5721 82.808C89.9141 82.896 91.1791 82.896 92.1361 82.808C92.8621 82.742 93.3351 82.654 93.6101 82.5C93.5991 79.926 93.8301 77.363 93.8961 74.811ZM93.3131 81.862C93.3021 81.873 93.3021 81.895 93.2911 81.906C92.9941 82.071 91.4101 82.302 88.6161 82.126C85.8661 81.961 84.3261 81.554 84.0181 81.345L84.2931 76.967C84.5571 77.066 84.8981 77.165 85.3491 77.264C86.2951 77.462 87.5491 77.616 88.8911 77.704C90.2331 77.792 91.4981 77.792 92.4551 77.704C92.9391 77.66 93.3021 77.605 93.5771 77.528L93.3131 81.862Z" fill="#212121"/>
<path d="M89.507 67.749C87.186 67.606 85.723 67.298 85.14 67.078C85.745 66.935 87.23 66.803 89.551 66.946C91.8721 67.089 93.3351 67.397 93.9181 67.617C93.3131 67.76 91.8281 67.892 89.507 67.749Z" fill="#F1F1F1"/>
<path d="M55.5831 84.007C55.4071 85.745 55.3851 87.527 55.5721 89.243C55.6821 90.299 55.6271 91.322 55.5941 92.378C55.5721 93.324 55.6491 94.259 55.6271 95.205C55.8251 95.227 56.0341 95.26 56.2321 95.293C56.2761 95.293 56.5951 95.326 56.6281 95.326C57.4751 95.392 58.3221 95.447 59.1691 95.502C60.6871 95.601 62.1941 95.623 63.6901 95.843L64.2621 84.403L55.5831 84.007Z" fill="#FECE2F"/>
<path d="M64.4271 84.139C64.2291 83.897 63.7341 83.71 62.8431 83.534C61.8971 83.347 60.6431 83.204 59.3011 83.138C57.959 83.072 56.694 83.083 55.737 83.182C55.715 83.182 55.693 83.182 55.682 83.193C55.616 83.743 55.55 84.293 55.517 84.843C55.561 84.854 55.605 84.865 55.66 84.876C56.606 85.063 57.86 85.206 59.2021 85.272C60.5441 85.338 61.8091 85.327 62.7661 85.228C63.2501 85.184 63.6131 85.118 63.8881 85.041L63.7451 87.945C63.7341 87.956 63.7341 87.978 63.7231 87.989C63.4261 88.165 61.8421 88.407 59.0481 88.264C57.442 88.187 56.243 88.022 55.462 87.857C55.484 88.33 55.517 88.792 55.561 89.254C55.671 90.31 55.616 91.333 55.583 92.389C55.572 93.005 55.594 93.632 55.605 94.248C56.485 94.391 57.574 94.512 58.7181 94.567C60.0601 94.633 61.3251 94.622 62.2821 94.523C62.7661 94.479 63.1291 94.413 63.4041 94.336L63.3271 95.81C63.5471 95.843 63.7671 95.876 63.9871 95.909L64.5591 84.436C64.5811 84.304 64.5261 84.205 64.4271 84.139Z" fill="#212121"/>
<path d="M59.268 83.798C57.607 83.71 56.386 83.765 55.594 83.853C55.583 83.963 55.572 84.062 55.561 84.172C56.331 84.348 57.563 84.513 59.224 84.601C61.545 84.722 63.03 84.568 63.635 84.414C63.052 84.205 61.589 83.919 59.268 83.798Z" fill="#F1F1F1"/>
<path d="M64.482 84.491L64.251 87.67L63.767 95.865C64.075 95.909 64.394 95.975 64.702 96.041C64.933 96.096 65.142 96.184 65.329 96.305C68.134 96.371 70.917 96.69 73.7 96.932L74.437 85.063L64.482 84.491Z" fill="#FECE2F"/>
<path d="M74.613 84.799C74.415 84.557 73.92 84.359 73.04 84.172C72.094 83.974 70.84 83.82 69.498 83.732C68.156 83.644 66.891 83.644 65.934 83.732C64.889 83.82 64.372 83.974 64.207 84.271C64.174 84.315 64.152 84.37 64.152 84.436L63.921 88.132L63.569 93.764L63.437 95.821C63.657 95.854 63.877 95.887 64.097 95.92L64.185 94.413C64.449 94.512 64.79 94.611 65.241 94.71C66.187 94.908 67.441 95.062 68.783 95.15C70.125 95.238 71.39 95.238 72.347 95.15C72.831 95.106 73.194 95.051 73.469 94.974L73.37 96.91C73.59 96.932 73.81 96.954 74.03 96.965L74.767 85.085C74.767 84.975 74.712 84.865 74.613 84.799ZM73.887 88.594C73.876 88.605 73.876 88.627 73.865 88.638C73.568 88.803 71.984 89.034 69.19 88.858C66.44 88.693 64.9 88.286 64.592 88.077L64.779 85.129C65.043 85.228 65.384 85.327 65.835 85.426C66.781 85.624 68.035 85.778 69.377 85.866C70.719 85.954 71.984 85.954 72.941 85.866C73.425 85.822 73.788 85.767 74.063 85.69L73.887 88.594Z" fill="#212121"/>
<path d="M69.4099 85.206C67.089 85.063 65.626 84.755 65.043 84.535C65.648 84.392 67.133 84.26 69.4539 84.403C71.7749 84.546 73.2379 84.854 73.8209 85.074C73.2159 85.217 71.7309 85.349 69.4099 85.206Z" fill="#F1F1F1"/>
<path d="M74.4151 85.195L74.1841 88.374L73.6781 96.943C75.5591 97.108 77.4401 97.251 79.3321 97.251C79.6621 97.251 79.9701 97.328 80.2341 97.449C81.3671 97.548 82.5001 97.647 83.6221 97.735L84.3591 85.767L74.4151 85.195Z" fill="#FECE2F"/>
<path d="M84.5571 85.492C84.3591 85.25 83.8641 85.052 82.9841 84.865C82.0381 84.667 80.7841 84.513 79.4421 84.425C78.1001 84.337 76.8351 84.337 75.8781 84.425C74.8331 84.513 74.3161 84.667 74.1511 84.964C74.1181 85.008 74.0961 85.063 74.0961 85.129L73.8651 88.825L73.5131 94.457L73.3591 96.899C73.5791 96.921 73.7991 96.943 74.0191 96.954L74.1291 95.106C74.3931 95.205 74.7341 95.304 75.1851 95.403C76.1311 95.601 77.3851 95.755 78.7271 95.843C80.0691 95.931 81.3341 95.931 82.2911 95.843C82.7751 95.799 83.1381 95.744 83.4131 95.667L83.2921 97.702C83.5121 97.724 83.7321 97.735 83.9521 97.757L84.6891 85.778C84.7111 85.668 84.6451 85.558 84.5571 85.492ZM83.8201 89.298C83.8091 89.309 83.8091 89.331 83.7981 89.342C83.5011 89.507 81.9171 89.738 79.1231 89.562C76.3731 89.397 74.8331 88.99 74.5251 88.781L74.7121 85.833C74.9761 85.932 75.3171 86.031 75.7681 86.13C76.7141 86.328 77.9681 86.482 79.3101 86.57C80.6521 86.658 81.9171 86.658 82.8741 86.57C83.3581 86.526 83.7211 86.471 83.9961 86.394L83.8201 89.298Z" fill="#212121"/>
<path d="M79.3541 85.899C77.0331 85.756 75.5701 85.448 74.9871 85.228C75.5921 85.085 77.0771 84.953 79.3981 85.096C81.7191 85.239 83.1821 85.547 83.7651 85.767C83.1601 85.91 81.6751 86.042 79.3541 85.899Z" fill="#F1F1F1"/>
<path d="M86.5261 97.977C87.6701 98.065 88.814 98.153 89.958 98.274C90.992 98.384 92.015 98.538 93.049 98.538C93.071 97.9 93.104 97.262 93.071 96.613C93.005 95.293 93.104 94.061 93.291 92.741C93.313 92.576 93.335 92.4 93.368 92.235C93.368 92.213 93.379 92.191 93.379 92.169C93.412 91.872 93.445 91.575 93.467 91.278C93.511 90.695 93.5 90.112 93.478 89.529C93.445 88.473 93.39 87.428 93.456 86.383L84.3591 85.855L84.1281 89.034L83.6221 97.735C84.5791 97.812 85.5581 97.889 86.5261 97.977Z" fill="#FECE2F"/>
<path d="M83.941 97.7679L84.062 95.788C84.326 95.887 84.667 95.986 85.118 96.085C86.064 96.283 87.318 96.4369 88.66 96.5249C90.002 96.6129 91.267 96.6129 92.224 96.5249C92.543 96.5029 92.818 96.4589 93.038 96.4259C92.994 95.183 93.093 94.006 93.269 92.752C93.291 92.587 93.313 92.411 93.346 92.246C93.346 92.224 93.357 92.202 93.357 92.18C93.39 91.883 93.423 91.586 93.445 91.289C93.467 90.893 93.478 90.486 93.467 90.09C92.862 90.233 91.377 90.365 89.045 90.222C86.295 90.057 84.755 89.65 84.447 89.441L84.634 86.493C84.898 86.592 85.239 86.691 85.69 86.79C86.636 86.988 87.89 87.142 89.232 87.23C90.574 87.318 91.839 87.318 92.796 87.23C93.027 87.208 93.225 87.186 93.401 87.164C93.412 86.779 93.423 86.394 93.467 86.009C93.478 85.899 93.5 85.8 93.522 85.69C93.346 85.635 93.137 85.591 92.906 85.536C91.96 85.338 90.706 85.184 89.364 85.096C88.022 85.008 86.757 85.008 85.8 85.096C84.755 85.184 84.238 85.338 84.073 85.635C84.04 85.679 84.018 85.734 84.018 85.8L83.787 89.496L83.435 95.128L83.27 97.7129C83.512 97.7349 83.732 97.7459 83.941 97.7679Z" fill="#212121"/>
<path d="M93.456 86.35C92.763 86.141 91.388 85.888 89.342 85.756C87.021 85.613 85.536 85.745 84.931 85.888C85.514 86.108 86.977 86.416 89.298 86.559C91.344 86.68 92.741 86.603 93.456 86.482C93.445 86.438 93.456 86.394 93.456 86.35Z" fill="#F1F1F1"/>
<path d="M93.533 82.082C93.522 82.082 93.522 82.082 93.511 82.082L55.6711 79.552C55.4841 79.541 55.3521 79.387 55.3631 79.2C55.3741 79.013 55.5281 78.881 55.7151 78.892L93.555 81.422C93.742 81.433 93.874 81.587 93.863 81.774C93.852 81.95 93.709 82.082 93.533 82.082Z" fill="#212121"/>
<path d="M105.853 110.957C105.754 110.275 105.633 109.516 105.501 108.713C104.654 103.411 103.367 95.392 103.653 84.073C103.763 79.497 103.939 75.163 104.082 71.346C104.368 63.976 104.555 59.103 104.181 57.904C103.565 55.924 102.773 54.703 97.075 54.373C97.075 54.373 97.075 54.373 97.064 54.373C93.731 54.186 82.126 53.46 72.798 52.877C66.132 52.459 60.379 52.107 59.543 52.063C57.926 51.975 56.518 52.272 55.352 52.965C53.526 54.043 52.382 56.012 51.931 58.839C50.897 65.406 50.369 77.627 50.226 83.809C49.984 94.182 51.018 111.98 53.603 118.426C54.868 121.429 56.408 123.112 58.465 123.739C59.191 123.959 59.972 124.047 60.797 124.047C62.15 124.047 63.613 123.816 65.131 123.563C70.29 122.727 96.14 119.438 99.759 119.108C101.904 118.91 103.609 118.085 104.676 116.732C105.82 115.302 106.205 113.366 105.853 110.957ZM96.624 55L95.612 58.498C95.48 58.96 95.029 59.268 94.556 59.235L60.742 56.76C60.192 56.716 59.774 56.265 59.796 55.715L59.862 52.723C61.391 52.811 66.704 53.141 72.765 53.526C81.741 54.087 92.829 54.769 96.624 55ZM104.181 116.325C102.971 117.865 101.09 118.327 99.715 118.459C96.085 118.789 70.213 122.089 65.043 122.914C63.481 123.167 62.084 123.387 60.819 123.387C58.08 123.387 55.99 122.32 54.23 118.162C51.711 111.881 50.655 93.863 50.897 83.809C51.04 77.638 51.568 65.45 52.602 58.927C53.053 56.056 54.538 52.701 58.993 52.701C59.059 52.701 59.125 52.701 59.191 52.701L59.114 55.704C59.092 56.606 59.774 57.365 60.676 57.42L94.479 59.884C94.523 59.884 94.556 59.884 94.6 59.884C95.337 59.884 96.008 59.389 96.217 58.663L97.273 55.022C102.685 55.374 103.059 56.562 103.532 58.08C103.873 59.169 103.664 64.526 103.4 71.302C103.246 75.13 103.081 79.453 102.971 84.04C102.685 95.425 103.972 103.477 104.819 108.801C104.951 109.604 105.072 110.363 105.171 111.045C105.523 113.267 105.182 115.038 104.181 116.325Z" fill="#212121"/>
<path d="M87.6049 101.54L63.3971 104.756L64.9182 116.205L89.126 112.989L87.6049 101.54Z" fill="#212121"/>
<path d="M64.9221 116.534C64.8451 116.534 64.7791 116.512 64.7241 116.468C64.6581 116.413 64.6141 116.336 64.5921 116.248L63.0741 104.797C63.0521 104.621 63.1731 104.445 63.3601 104.423L87.56 101.2C87.648 101.189 87.736 101.211 87.802 101.266C87.868 101.321 87.9121 101.398 87.9341 101.486L89.452 112.937C89.474 113.113 89.353 113.289 89.166 113.311L64.9551 116.523C64.9551 116.523 64.9331 116.534 64.9221 116.534ZM63.7671 105.028L65.1971 115.819L88.748 112.684L87.318 101.893L63.7671 105.028Z" fill="#212121"/>
<path d="M89.3641 112.761L85.3381 108.46L87.9231 101.651C87.9891 101.486 87.9011 101.288 87.7361 101.222C87.5711 101.156 87.3731 101.244 87.3071 101.409L84.7221 108.229L68.7501 110.44L63.6461 104.533C63.5251 104.39 63.3161 104.379 63.1841 104.5C63.0411 104.621 63.0301 104.83 63.1511 104.962L68.2001 110.814L64.6471 116.017C64.5481 116.171 64.5811 116.369 64.7351 116.479C64.7901 116.523 64.8561 116.534 64.9221 116.534C65.0321 116.534 65.1311 116.479 65.1971 116.391L68.8161 111.1L84.8321 108.889L88.8911 113.212C88.9571 113.278 89.0451 113.311 89.1331 113.311C89.2101 113.311 89.2981 113.278 89.3641 113.223C89.4851 113.102 89.4961 112.893 89.3641 112.761Z" fill="#F1F1F1"/>
<path d="M15.301 119.999C14.795 120.747 14.498 121.649 14.498 122.617C14.498 125.202 16.588 127.292 19.173 127.292C21.758 127.292 23.848 125.202 23.848 122.617C23.848 122.43 23.837 122.254 23.815 122.067C23.815 122.067 22.583 121.187 19.888 120.692C17.193 120.197 15.301 119.999 15.301 119.999Z" fill="#FECE2F"/>
<path d="M19.1731 127.292C21.7581 127.292 23.8481 125.202 23.8481 122.617C23.8481 122.43 23.8371 122.254 23.8151 122.067C23.8151 122.067 23.6721 121.968 23.3751 121.803C23.2761 122.023 23.1661 122.287 23.0011 122.595C22.4841 123.508 21.7801 124.322 20.9001 124.905C19.4811 125.84 17.5671 126.104 16.0271 125.367C15.7191 125.213 15.4001 125.026 15.0811 124.872C15.8841 126.324 17.4131 127.292 19.1731 127.292Z" fill="#F1F1F1"/>
<path d="M33.462 103.334C33.429 103.202 32.45 100.056 25.85 98.406C18.755 96.646 15.499 98.549 15.367 98.626C15.279 98.681 15.224 98.769 15.213 98.879L13.134 119.779C13.112 119.812 13.101 119.845 13.09 119.889C13.002 120.274 13.365 120.604 14.421 121.055C14.256 121.55 14.168 122.078 14.168 122.617C14.168 123.013 14.212 123.398 14.3 123.772C14.003 123.981 13.717 124.223 13.453 124.487C13.101 124.85 12.793 125.257 12.54 125.73C12.298 126.203 12.122 126.742 12.067 127.303C12.056 127.446 12.056 127.589 12.056 127.721C12.056 127.787 12.056 127.864 12.067 127.93L12.089 128.139L12.1 128.249L12.122 128.348L12.166 128.557C12.188 128.7 12.232 128.821 12.287 128.953C12.474 129.47 12.749 129.932 13.079 130.328C13.739 131.12 14.542 131.67 15.4 132.066C15.521 132.121 15.653 132.099 15.763 132.011C15.906 131.89 15.917 131.681 15.796 131.538L15.785 131.527C15.642 131.351 15.488 131.197 15.334 131.032C15.191 130.867 15.048 130.702 14.905 130.537C14.839 130.449 14.773 130.372 14.707 130.284C14.641 130.196 14.575 130.119 14.52 130.031C14.41 129.855 14.278 129.701 14.19 129.525C14.146 129.437 14.08 129.36 14.047 129.272L13.926 129.008C13.904 128.964 13.893 128.92 13.871 128.876L13.827 128.744C13.816 128.7 13.794 128.656 13.783 128.612L13.75 128.48C13.662 128.139 13.64 127.798 13.684 127.457C13.728 127.116 13.838 126.775 13.992 126.445C14.146 126.104 14.355 125.774 14.586 125.444C14.663 125.334 14.751 125.224 14.828 125.114C15.697 126.599 17.314 127.611 19.151 127.611C20.537 127.611 21.78 127.05 22.693 126.137C22.759 126.346 22.825 126.544 22.869 126.753C22.957 127.127 23.023 127.49 23.034 127.831C23.056 128.183 23.023 128.513 22.935 128.832C22.77 129.47 22.352 130.042 21.769 130.559L21.659 130.658L21.549 130.746L21.318 130.933C21.153 131.054 20.988 131.164 20.823 131.285C20.647 131.395 20.471 131.505 20.295 131.626C20.108 131.736 19.932 131.846 19.745 131.967L19.723 131.978C19.613 132.044 19.558 132.176 19.58 132.308C19.613 132.495 19.778 132.616 19.965 132.583C20.185 132.55 20.416 132.506 20.636 132.462C20.856 132.407 21.076 132.341 21.296 132.264C21.516 132.187 21.736 132.099 21.945 132L22.264 131.835L22.418 131.747L22.572 131.648L22.88 131.45L23.177 131.219C23.221 131.175 23.276 131.142 23.32 131.098L23.452 130.966C23.54 130.878 23.639 130.79 23.716 130.68C24.057 130.284 24.321 129.8 24.486 129.294C24.651 128.777 24.695 128.238 24.651 127.71C24.596 127.193 24.464 126.698 24.277 126.247C24.079 125.796 23.837 125.389 23.54 125.015L23.529 125.004C23.793 124.531 23.98 124.003 24.068 123.453C24.42 123.486 24.717 123.508 24.959 123.508C25.63 123.508 25.949 123.376 26.037 123.101L33.407 103.521C33.473 103.466 33.484 103.4 33.462 103.334ZM14.663 120.439C14.366 120.318 14.135 120.197 13.981 120.109C14.179 120.098 14.465 120.109 14.828 120.142C14.773 120.241 14.718 120.34 14.663 120.439ZM19.173 126.962C16.775 126.962 14.828 125.015 14.828 122.617C14.828 121.759 15.081 120.923 15.554 120.219C16.599 120.351 18.007 120.604 19.712 121.022C21.252 121.396 22.539 121.792 23.496 122.122C23.518 122.287 23.529 122.452 23.529 122.617C23.518 125.015 21.571 126.962 19.173 126.962ZM24.178 122.815C24.178 122.749 24.178 122.683 24.178 122.617C24.178 122.54 24.178 122.463 24.167 122.386C24.64 122.573 24.981 122.738 25.201 122.859C24.97 122.87 24.618 122.859 24.178 122.815Z" fill="#212121"/>
<path d="M15.4 119.526C15.576 119.548 15.763 119.57 15.961 119.592L18.788 98.384C17.16 98.549 16.203 98.945 15.862 99.11L13.827 119.46C14.19 119.427 14.707 119.449 15.4 119.526Z" fill="#F1F1F1"/>
<path d="M19.778 120.362L23.595 98.615C22.803 98.483 22.077 98.406 21.406 98.362L17.798 119.922C18.436 120.043 19.096 120.197 19.778 120.362Z" fill="#F1F1F1"/>
<path d="M52.6901 56.452C52.5691 56.463 49.7861 56.727 45.8371 58.454C42.1961 60.049 36.8721 63.25 32.1091 69.443C30.0851 72.083 28.3471 74.943 26.8841 77.759C26.8621 77.781 26.8511 77.814 26.8401 77.836C24.8931 81.587 23.4191 85.239 22.3851 88.165C20.4161 93.72 19.5581 97.889 19.5471 97.922C19.5141 98.098 19.6241 98.274 19.8001 98.307C19.8221 98.307 19.8441 98.318 19.8661 98.318C20.0201 98.318 20.1521 98.208 20.1851 98.054C20.1961 97.977 20.9991 94.193 22.7921 89.001C22.8471 88.99 24.4861 88.638 26.5211 89.045C29.2491 89.584 31.3611 91.146 32.8131 93.687C31.4271 97.581 30.5141 100.54 30.5031 100.573C30.4481 100.749 30.5471 100.936 30.7231 100.98C30.7561 100.991 30.7891 100.991 30.8221 100.991C30.9651 100.991 31.0971 100.903 31.1411 100.76C31.1961 100.584 36.4981 83.391 41.3271 76.769C45.8811 70.521 50.8971 70.631 50.9411 70.631C51.1281 70.642 51.2821 70.499 51.2821 70.312C51.2931 70.125 51.1501 69.971 50.9631 69.971C50.8751 69.971 50.0391 69.938 48.7521 70.301C48.7851 66.583 47.4541 63.954 46.3211 62.403C45.4191 61.171 44.5061 60.401 44.0331 60.049C44.7481 59.664 45.4301 59.345 46.0571 59.059C49.9181 57.365 52.7011 57.101 52.7341 57.09C52.9101 57.079 53.0531 56.914 53.0311 56.727C53.0421 56.573 52.8771 56.441 52.6901 56.452ZM33.1211 92.884C31.2071 89.848 28.5671 88.759 26.6421 88.385C25.0471 88.077 23.6941 88.187 23.0561 88.286C24.1451 85.228 25.5641 81.752 27.3681 78.254C27.8301 78.21 29.1941 78.122 30.7891 78.639C33.3851 79.486 35.2881 81.455 36.4431 84.491C35.5961 86.427 34.7161 88.605 33.8031 91.036C33.5611 91.663 33.3301 92.29 33.1211 92.884ZM40.7991 76.384C39.5781 78.067 38.2361 80.498 36.8171 83.655C35.2661 80.08 32.8241 78.606 30.9981 78.012C29.6341 77.572 28.4351 77.528 27.7421 77.561C29.1501 74.91 30.7781 72.27 32.6481 69.839C33.0551 69.311 33.4621 68.816 33.8691 68.332C34.6941 68.42 39.1491 69.212 41.4371 75.559C41.2171 75.823 41.0081 76.098 40.7991 76.384ZM48.1031 70.532C46.4091 71.137 44.1651 72.38 41.9101 74.987C40.5461 71.456 38.5001 69.674 36.9931 68.783C35.9041 68.145 34.9581 67.881 34.3641 67.76C37.4551 64.273 40.6781 61.952 43.3951 60.412C43.8571 60.72 48.2571 63.833 48.1031 70.532Z" fill="#212121"/>
<path d="M80.883 36.377C83.3131 36.377 85.283 34.407 85.283 31.977C85.283 29.5469 83.3131 27.577 80.883 27.577C78.453 27.577 76.483 29.5469 76.483 31.977C76.483 34.407 78.453 36.377 80.883 36.377Z" fill="#F1F1F1"/>
<path d="M80.8831 27.247C78.2761 27.247 76.1531 29.37 76.1531 31.977C76.1531 34.584 78.2761 36.707 80.8831 36.707C83.4901 36.707 85.6131 34.584 85.6131 31.977C85.6131 29.37 83.4901 27.247 80.8831 27.247ZM76.8131 31.977C76.8131 29.733 78.6391 27.907 80.8831 27.907C83.1161 27.907 84.9311 29.711 84.9531 31.944C84.1941 31.317 83.2151 30.932 82.1481 30.932C79.9591 30.932 78.1331 32.538 77.8031 34.639C77.1871 33.924 76.8131 32.989 76.8131 31.977Z" fill="#212121"/>
<path d="M69.2451 37.323C68.4971 37.444 67.7931 36.927 67.6721 36.179L66.946 31.449C66.825 30.701 67.342 29.997 68.0901 29.876C68.8381 29.755 69.5421 30.272 69.6631 31.02L70.3891 35.75C70.5101 36.498 69.9931 37.202 69.2451 37.323Z" fill="#212121"/>
<path d="M68.838 49.742C68.761 49.742 68.684 49.72 68.629 49.665C65.241 46.838 63.5251 43.78 63.5141 40.568C63.5031 35.64 67.518 32.197 67.694 32.054C67.837 31.933 68.046 31.955 68.156 32.098C68.277 32.241 68.255 32.45 68.112 32.56C68.068 32.593 64.1521 35.948 64.1631 40.568C64.1741 43.571 65.813 46.453 69.047 49.159C69.19 49.28 69.201 49.489 69.091 49.621C69.025 49.698 68.937 49.742 68.838 49.742Z" fill="#212121"/>
<path d="M68.838 50.457C69.4151 50.457 69.883 49.9891 69.883 49.412C69.883 48.8349 69.4151 48.367 68.838 48.367C68.2608 48.367 67.793 48.8349 67.793 49.412C67.793 49.9891 68.2608 50.457 68.838 50.457Z" fill="#212121"/>
<path d="M77.088 42.1519L82.368 39.512C82.368 39.512 83.138 42.2619 81.103 43.2519C79.486 44.0329 77.088 42.1519 77.088 42.1519Z" fill="#F1F1F1"/>
<path d="M80.212 43.769C78.628 43.769 76.967 42.471 76.879 42.405C76.791 42.339 76.747 42.229 76.758 42.108C76.769 41.998 76.835 41.899 76.934 41.844L82.214 39.204C82.302 39.16 82.401 39.16 82.5 39.193C82.588 39.237 82.654 39.314 82.687 39.402C82.984 40.447 83.05 42.647 81.246 43.527C80.927 43.703 80.575 43.769 80.212 43.769ZM77.737 42.196C78.463 42.669 79.937 43.45 80.96 42.955C82.291 42.306 82.236 40.744 82.126 39.996L77.737 42.196Z" fill="#212121"/>
<path d="M74.5581 53.647C74.5471 53.647 74.5361 53.647 74.5251 53.647C74.3491 53.625 74.2171 53.471 74.2281 53.284L74.9761 46.156C74.9981 45.98 75.1521 45.848 75.3391 45.859C75.5151 45.881 75.6471 46.035 75.6361 46.222L74.8881 53.35C74.8661 53.515 74.7231 53.647 74.5581 53.647Z" fill="#212121"/>
<path d="M84.073 54.087C83.897 54.087 83.754 53.955 83.743 53.779L83.27 46.2C83.259 46.013 83.402 45.859 83.578 45.848C83.754 45.837 83.919 45.98 83.93 46.156L84.403 53.724C84.414 53.911 84.271 54.065 84.095 54.076C84.084 54.087 84.084 54.087 84.073 54.087Z" fill="#212121"/>
<path d="M78.551 25.707L78.617 25.652L78.672 25.597C78.705 25.564 78.749 25.531 78.782 25.509C78.859 25.443 78.936 25.399 79.024 25.344C79.189 25.245 79.365 25.168 79.541 25.102C79.904 24.97 80.289 24.893 80.674 24.893C80.773 24.882 80.861 24.893 80.96 24.904C81.059 24.915 81.147 24.915 81.246 24.937C81.345 24.948 81.433 24.97 81.532 24.992C81.62 25.014 81.719 25.047 81.807 25.069C81.994 25.124 82.159 25.201 82.324 25.278C82.489 25.366 82.643 25.465 82.797 25.575C82.94 25.685 82.973 25.894 82.863 26.048C82.786 26.147 82.676 26.191 82.566 26.18H82.522C82.357 26.169 82.203 26.125 82.049 26.103C81.895 26.092 81.741 26.048 81.587 26.037L81.367 26.015C81.29 26.015 81.213 26.004 81.147 26.004C81.07 25.993 81.004 25.993 80.927 25.993C80.85 25.993 80.784 25.982 80.707 25.993C80.41 25.993 80.124 26.026 79.827 26.07C79.684 26.092 79.53 26.125 79.387 26.158C79.31 26.18 79.233 26.191 79.167 26.213C79.134 26.224 79.09 26.235 79.057 26.246L79.002 26.257C78.98 26.257 78.969 26.268 78.958 26.268L78.771 26.257C78.606 26.246 78.474 26.103 78.485 25.927C78.463 25.828 78.496 25.762 78.551 25.707Z" fill="#212121"/>
<path d="M73.073 40.15C74.3367 40.15 75.361 39.1256 75.361 37.862C75.361 36.5983 74.3367 35.574 73.073 35.574C71.8094 35.574 70.785 36.5983 70.785 37.862C70.785 39.1256 71.8094 40.15 73.073 40.15Z" fill="#F1F1F1"/>
<path d="M86.4931 40.37C87.7567 40.37 88.7811 39.3456 88.7811 38.082C88.7811 36.8184 87.7567 35.794 86.4931 35.794C85.2295 35.794 84.2051 36.8184 84.2051 38.082C84.2051 39.3456 85.2295 40.37 86.4931 40.37Z" fill="#F1F1F1"/>
<path d="M88.3521 47.322C88.2091 47.322 88.0771 47.223 88.0331 47.091C87.5821 46.761 84.4581 46.321 79.5191 46.321C74.5801 46.321 71.4561 46.761 71.0051 47.091C70.9611 47.223 70.8401 47.322 70.6861 47.322C70.5101 47.322 70.3561 47.179 70.3561 46.992C70.3561 46.332 71.7751 46.123 73.2271 45.958C74.9101 45.771 77.1321 45.661 79.5081 45.661C81.8841 45.661 84.1061 45.771 85.7891 45.958C88.4401 46.266 88.6601 46.64 88.6601 46.992C88.6821 47.168 88.5281 47.322 88.3521 47.322Z" fill="#212121"/>
<path d="M94.27 17.05C93.786 17.017 93.368 17.391 93.335 17.875C93.313 18.194 93.467 18.491 93.709 18.656C93.698 18.678 93.687 18.711 93.676 18.733L92.411 24.915C91.443 24.178 88.913 22.605 84.238 21.912C84.656 21.263 84.755 20.24 84.205 19.107C83.743 18.172 82.742 17.226 81.345 17.413C80.982 16.533 80.443 15.785 79.805 15.279C78.474 14.223 76.8791 14.223 75.4271 15.29C74.2611 16.148 73.6451 17.16 73.5681 18.304C73.4691 19.822 74.3931 21.175 74.9651 21.857C70.9501 22.396 68.5301 23.562 67.5951 24.101L66.7151 17.71C66.7151 17.677 66.7041 17.655 66.6931 17.633C66.9461 17.479 67.1221 17.204 67.1221 16.874C67.1221 16.39 66.7261 15.994 66.2421 15.994C65.7581 15.994 65.3621 16.39 65.3621 16.874C65.3621 17.292 65.6591 17.655 66.0551 17.732C66.0551 17.754 66.0551 17.776 66.0551 17.798L67.0121 24.695L70.3121 46.915C70.3231 46.959 70.3341 47.003 70.3561 47.036C70.3891 47.377 70.7191 47.729 73.2271 48.015C74.9101 48.202 77.132 48.312 79.508 48.312C81.884 48.312 84.106 48.202 85.789 48.015C87.241 47.85 88.66 47.63 88.66 46.981C88.66 46.948 88.66 46.915 88.649 46.882C88.66 46.86 88.66 46.849 88.66 46.827L92.95 25.597C92.961 25.553 92.961 25.509 92.95 25.476L94.314 18.854C94.314 18.832 94.325 18.81 94.325 18.788C94.732 18.733 95.051 18.392 95.073 17.974C95.128 17.501 94.754 17.083 94.27 17.05ZM83.622 19.404C84.095 20.361 84.018 21.384 83.457 21.813C82.852 21.736 82.203 21.681 81.532 21.648C81.939 20.438 81.906 19.184 81.587 18.073C82.566 17.996 83.27 18.678 83.622 19.404ZM79.486 21.582C79.365 21.175 79.145 20.185 79.552 19.349C79.805 18.821 80.278 18.447 80.96 18.205C81.268 19.25 81.29 20.46 80.861 21.604C80.377 21.593 79.926 21.582 79.486 21.582ZM74.2501 18.348C74.3051 17.413 74.8441 16.555 75.8341 15.829C77.4621 14.63 78.7711 15.301 79.4091 15.807C79.948 16.225 80.399 16.852 80.718 17.578C79.871 17.875 79.277 18.37 78.947 19.052C78.496 19.976 78.65 21.01 78.793 21.571C77.704 21.593 76.7031 21.648 75.7791 21.758C75.4381 21.406 74.1511 19.954 74.2501 18.348ZM88.099 46.398C87.692 46.244 86.988 46.09 85.8 45.958C84.117 45.771 81.895 45.661 79.5191 45.661C77.1431 45.661 74.9211 45.771 73.2381 45.958C72.3361 46.057 71.4561 46.178 70.9061 46.42L67.7051 24.838C68.5851 24.299 72.9631 21.934 81.048 22.297C88.242 22.616 91.597 25.102 92.279 25.674C92.279 25.685 92.279 25.685 92.279 25.696L88.099 46.398Z" fill="#212121"/>
<path d="M83.281 46.409C82.192 46.354 80.927 46.31 79.53 46.31C78.056 46.31 76.747 46.354 75.625 46.409L74.932 52.998C77.825 53.174 80.861 53.361 83.743 53.548L83.281 46.409Z" fill="#F1F1F1"/>
<path d="M83.8311 47.784C83.8311 47.784 83.2261 49.918 79.4861 49.522C74.9871 49.049 74.9761 51.282 74.9761 52.294L75.3171 46.178L80.5861 45.991L83.6001 46.178L83.8311 47.784Z" fill="#212121"/>
<path d="M74.6791 121.572C74.5031 121.539 74.3271 121.649 74.2941 121.825L71.7531 134.233C68.4861 135.245 65.8021 134.904 64.1191 134.442C63.8661 134.376 63.6021 134.288 63.3491 134.2C62.6341 133.947 62.0951 133.694 61.7761 133.507C61.6221 133.43 61.5231 133.364 61.4571 133.32L63.3931 123.816C63.4261 123.64 63.3161 123.464 63.1401 123.431C62.9641 123.398 62.7881 123.508 62.7551 123.684L52.4151 174.46C52.1511 174.867 50.3911 177.573 48.6531 180.279C44.8031 186.274 44.8031 186.417 44.8031 186.571C44.8031 186.934 45.4961 187.561 45.7051 187.748C46.6181 188.551 49.0161 190.223 53.0311 190.223C53.6691 190.223 54.3511 190.179 55.0771 190.091C61.8971 189.2 65.4721 185.196 65.6261 185.031C65.6921 184.954 65.7251 184.855 65.7031 184.756L64.0641 175.142L74.9431 121.968C74.9761 121.792 74.8551 121.616 74.6791 121.572ZM63.4371 174.922C58.5971 177.342 54.0651 174.999 53.0971 174.438L54.2631 168.729C55.1101 169.213 57.2771 170.225 60.3351 170.225C61.5891 170.225 62.9971 170.06 64.5261 169.609L63.4371 174.922ZM64.6691 168.872C64.6471 168.872 64.6361 168.872 64.6141 168.883C59.1471 170.577 55.2201 168.531 54.3951 168.036L55.6711 161.777C56.5071 162.25 58.6741 163.284 61.7651 163.284C63.0191 163.284 64.4161 163.119 65.9451 162.679L64.6691 168.872ZM66.0881 161.942C66.0771 161.942 66.0661 161.942 66.0441 161.953C60.5441 163.658 56.5951 161.568 55.8031 161.095L57.0791 154.836C57.9041 155.309 60.0821 156.354 63.1841 156.354C64.4271 156.354 65.8241 156.189 67.3531 155.749L66.0881 161.942ZM67.5071 155.023C67.4961 155.023 67.4851 155.023 67.4851 155.023C61.9411 156.75 57.9701 154.605 57.2221 154.154L58.4981 147.895C59.3121 148.357 61.4901 149.413 64.6251 149.413C65.8681 149.413 67.2651 149.248 68.7721 148.808L67.5071 155.023ZM68.9151 148.093H68.9041C63.3051 149.831 59.3231 147.642 58.6301 147.213L59.9061 140.965C60.6981 141.427 62.8981 142.494 66.0551 142.494C67.2981 142.494 68.6841 142.329 70.1911 141.9L68.9151 148.093ZM70.3341 141.163C64.6911 142.912 60.6871 140.668 60.0381 140.272L61.3141 134.013C61.3581 134.035 61.4021 134.068 61.4571 134.09C61.7981 134.277 62.3701 134.563 63.1291 134.827C63.3931 134.915 63.6681 135.003 63.9321 135.08C64.8561 135.333 66.0661 135.553 67.4961 135.553C68.7171 135.553 70.0921 135.399 71.5991 134.97L70.3341 141.163Z" fill="#212121"/>
<path d="M64.031 135.102C63.998 135.102 63.976 135.102 63.943 135.091C63.668 135.014 63.404 134.937 63.14 134.838C62.381 134.574 61.809 134.299 61.4679 134.101C61.3029 134.013 61.2479 133.815 61.3359 133.65C61.4239 133.485 61.622 133.43 61.787 133.518C62.106 133.694 62.645 133.958 63.36 134.211C63.613 134.299 63.866 134.376 64.13 134.453C64.306 134.497 64.405 134.684 64.361 134.86C64.306 135.003 64.174 135.102 64.031 135.102Z" fill="#F1F1F1"/>
<path d="M68.948 128.634C66.099 128.634 64.02 127.765 63.096 127.281C62.931 127.193 62.865 126.995 62.953 126.841C63.041 126.676 63.239 126.61 63.393 126.698C64.625 127.336 67.958 128.678 72.457 127.512C72.633 127.468 72.809 127.578 72.864 127.754C72.919 127.93 72.798 128.106 72.622 128.161C71.302 128.491 70.07 128.634 68.948 128.634Z" fill="#F1F1F1"/>
<path d="M149.853 83.765C149.677 83.732 149.501 83.864 149.479 84.04C149.116 86.35 148.324 88.847 147.257 91.223C141.119 89.496 137.599 87.01 137.049 86.603C137.885 84.755 138.435 82.83 138.754 81.444C138.798 81.268 138.688 81.092 138.512 81.048C138.336 81.004 138.16 81.114 138.116 81.29C137.753 82.852 137.104 85.129 136.048 87.142C134.783 89.573 133.287 90.937 131.626 91.19C130.416 91.377 129.316 91.091 128.37 90.365C125.422 88.077 124.63 82.115 124.454 80.344C124.322 78.969 123.816 75.339 122.089 71.302C120.362 67.287 118.008 64.229 115.093 62.216C110.374 58.971 104.313 58.575 104.06 58.564C103.873 58.553 103.719 58.696 103.708 58.872C103.697 59.059 103.84 59.213 104.016 59.224C104.071 59.224 108.273 59.499 112.31 61.391C112.112 63.657 111.21 69.003 107.063 72.314C105.347 71.511 103.906 71.401 103.84 71.401C103.653 71.39 103.499 71.522 103.488 71.709C103.477 71.896 103.609 72.05 103.796 72.061C103.807 72.061 105.215 72.171 106.832 72.941C106.887 73.007 106.975 73.051 107.063 73.051C107.085 73.062 107.107 73.073 107.129 73.084C109.45 74.283 110.968 76.219 111.639 78.859C111.925 79.981 112.2 81.268 112.486 82.632C113.872 89.177 115.786 98.142 122.331 102.597C124.773 104.258 127.479 105.094 130.284 105.094C131.483 105.094 132.704 104.94 133.936 104.632C136.939 103.873 140.052 102.146 142.241 99.99C145.948 96.36 149.259 89.705 150.139 84.15C150.161 83.963 150.04 83.798 149.853 83.765ZM125.642 87.813C125.51 87.857 125.411 87.945 125.147 88.209C124.168 89.155 121.198 92.026 115.654 92.092C114.686 89.441 114.026 86.691 113.465 84.128C114.224 84.249 114.939 84.304 115.621 84.304C119.955 84.304 122.771 82.148 123.86 81.125C124.014 82.379 124.333 84.249 124.949 86.086C125.169 86.713 125.4 87.285 125.642 87.813ZM107.69 72.655C111.694 69.3 112.684 64.152 112.926 61.721C113.531 62.029 114.125 62.381 114.697 62.777C117.216 64.515 119.306 67.078 120.923 70.389C120.043 71.83 116.831 76.395 111.474 76.582C110.462 74.569 108.966 73.37 107.69 72.655ZM112.266 78.694C112.134 78.166 111.969 77.671 111.771 77.22C116.897 76.901 120.098 72.853 121.253 71.093C121.33 71.247 121.396 71.412 121.462 71.577C123.101 75.405 123.618 78.848 123.772 80.289C123.398 80.707 122.342 81.697 120.703 82.478C118.426 83.567 115.94 83.886 113.322 83.424C113.256 83.105 113.19 82.797 113.124 82.489C112.827 81.125 112.552 79.838 112.266 78.694ZM116.061 93.159C116.006 93.016 115.951 92.884 115.896 92.741C121.55 92.598 124.586 89.661 125.609 88.682C125.719 88.583 125.829 88.462 125.873 88.429C125.895 88.418 125.917 88.407 125.928 88.396C126.511 89.474 127.182 90.31 127.941 90.904C128.227 91.124 128.535 91.311 128.843 91.465C128.843 91.476 128.843 91.487 128.832 91.487C128.821 91.553 127.864 97.724 121.715 101.332C119.383 99.451 117.524 96.767 116.061 93.159ZM133.771 103.994C129.789 104.995 126.06 104.346 122.683 102.047C122.551 101.959 122.419 101.871 122.298 101.772C125.499 99.814 127.281 97.207 128.205 95.348C129.096 93.566 129.404 92.147 129.47 91.718C129.921 91.861 130.394 91.938 130.889 91.938C131.153 91.938 131.428 91.916 131.714 91.872C132.242 91.795 132.748 91.619 133.243 91.355C134.013 92.147 138.336 96.899 136.884 102.795C136.873 102.817 136.873 102.85 136.873 102.872C135.861 103.345 134.805 103.73 133.771 103.994ZM141.779 99.517C140.613 100.661 139.172 101.684 137.632 102.498C138.314 99.121 137.247 96.173 136.191 94.259C135.289 92.609 134.266 91.465 133.815 90.992C134.849 90.255 135.795 89.078 136.631 87.472C136.675 87.384 136.719 87.307 136.752 87.219C137.588 87.824 141.031 90.156 146.971 91.839C145.563 94.842 143.726 97.614 141.779 99.517Z" fill="#212121"/>
<path d="M115.621 184.129L109.142 171.512L108.053 165.176C108.053 165.132 108.042 165.088 108.031 165.044L106.953 158.752C106.964 158.686 106.953 158.609 106.92 158.554L100.078 118.723C100.045 118.547 99.88 118.426 99.693 118.459C99.517 118.492 99.3961 118.657 99.4291 118.844L99.616 119.944C99.528 120.021 99.44 120.098 99.341 120.164C98.197 121.066 96.932 121.726 95.579 122.111C92.983 122.859 90.706 122.43 89.837 122.21C89.661 122.166 89.54 122.133 89.452 122.1L89.122 120.087C89.089 119.911 88.924 119.79 88.748 119.812C88.572 119.845 88.451 120.01 88.473 120.186L97.306 173.998L97.713 183.183C97.713 183.238 97.735 183.293 97.768 183.348C97.889 183.535 100.793 188.001 108.031 188.672C108.504 188.716 108.955 188.738 109.384 188.738C111.452 188.738 113.058 188.243 114.169 187.253C115.599 185.977 115.665 184.371 115.665 184.294C115.654 184.239 115.643 184.184 115.621 184.129ZM89.584 122.826C89.617 122.837 89.65 122.848 89.683 122.848C90.31 123.013 91.311 123.189 92.521 123.189C93.489 123.189 94.589 123.068 95.766 122.738C97.196 122.331 98.527 121.638 99.748 120.681L100.716 126.313C100.617 126.401 100.518 126.478 100.408 126.566C100.133 126.786 99.847 126.995 99.561 127.182C99.044 127.523 98.494 127.82 97.933 128.062C94.347 129.646 91.069 128.777 90.53 128.612L89.584 122.826ZM90.651 129.338C91.179 129.47 92.158 129.668 93.423 129.668C94.776 129.668 96.448 129.437 98.197 128.667C98.791 128.403 99.363 128.095 99.913 127.732C100.221 127.534 100.518 127.314 100.815 127.083C100.826 127.072 100.826 127.072 100.837 127.061L101.816 132.792C97.13 136.719 91.927 135.102 91.575 134.981L90.651 129.338ZM91.696 135.707C92.224 135.85 93.28 136.081 94.666 136.081C94.732 136.081 94.809 136.081 94.875 136.081C96.701 136.048 99.363 135.575 101.948 133.54L102.927 139.216C98.329 143.066 93.181 141.592 92.631 141.416L91.696 135.707ZM92.752 142.131C93.291 142.274 94.358 142.505 95.733 142.505C95.799 142.505 95.876 142.505 95.942 142.505C97.779 142.472 100.474 141.999 103.059 139.964L104.038 145.684C99.583 149.424 94.512 148.104 93.687 147.851L92.752 142.131ZM94.743 154.297L93.797 148.566C94.38 148.72 95.469 148.951 96.855 148.951C96.899 148.951 96.932 148.951 96.976 148.951C98.846 148.929 101.563 148.467 104.159 146.432L105.138 152.152C102.685 154.187 100.1 154.704 98.351 154.792C96.404 154.88 95.073 154.473 94.798 154.363C94.787 154.33 94.765 154.308 94.743 154.297ZM95.799 160.732L94.864 155.067C95.447 155.243 96.481 155.452 97.79 155.452C99.891 155.452 102.652 154.924 105.259 152.889L106.238 158.598C101.431 162.536 95.953 160.776 95.876 160.754C95.865 160.743 95.832 160.732 95.799 160.732ZM95.92 161.447C96.382 161.579 97.515 161.832 99 161.832C99.099 161.832 99.209 161.832 99.308 161.832C101.145 161.788 103.818 161.304 106.37 159.346L107.349 165.055C102.949 168.663 97.768 167.497 96.855 167.244L95.92 161.447ZM96.987 167.948C97.559 168.08 98.626 168.278 99.968 168.278C100.067 168.278 100.177 168.278 100.287 168.278C102.179 168.234 104.929 167.761 107.492 165.781L108.471 171.49C104.137 175.043 98.989 173.976 97.933 173.712L96.987 167.948Z" fill="#212121"/>
<path d="M102.234 179.817C102.278 177.98 102.311 176.022 102.333 174.669C101.981 174.702 101.651 174.724 101.332 174.735C101.222 174.735 101.112 174.735 101.002 174.735C99.627 174.735 98.549 174.537 97.9771 174.405L98.3621 183.062C98.659 183.48 100.364 185.713 103.884 187.055C103.356 185.977 102.157 183.128 102.234 179.817Z" fill="#F1F1F1"/>
<path d="M109.274 185.724C108.977 185.724 108.658 185.713 108.328 185.691C106.26 185.537 104.764 184.866 103.158 184.074C102.564 183.777 101.97 183.436 101.387 183.062C100.485 182.479 99.605 181.797 98.78 181.038C98.648 180.917 98.637 180.708 98.758 180.576C98.879 180.444 99.088 180.433 99.22 180.554C100.023 181.291 100.87 181.94 101.739 182.512C102.3 182.875 102.872 183.205 103.444 183.48C104.984 184.239 106.414 184.877 108.372 185.031C112.387 185.339 113.443 183.634 113.608 182.16C113.63 181.984 113.795 181.852 113.971 181.874C114.147 181.896 114.279 182.061 114.257 182.237C114.114 183.568 113.234 185.724 109.274 185.724Z" fill="#F1F1F1"/>
<path d="M103.301 184.107C103.257 184.107 103.202 184.096 103.158 184.074C102.564 183.777 101.97 183.436 101.387 183.062C100.485 182.479 99.605 181.797 98.78 181.038C98.648 180.917 98.637 180.708 98.758 180.576C98.879 180.444 99.088 180.433 99.22 180.554C100.023 181.291 100.87 181.94 101.739 182.512C102.3 182.875 102.872 183.205 103.444 183.48C103.609 183.557 103.675 183.755 103.598 183.92C103.532 184.03 103.422 184.107 103.301 184.107Z" fill="#FECE2F"/>
<path d="M152.889 62.073C151.756 61.93 150.645 61.644 149.545 61.369C149.468 61.347 149.391 61.325 149.303 61.314C148.731 61.171 148.17 61.028 147.598 60.885C147.103 60.753 146.597 60.632 146.102 60.511C145.97 60.478 145.838 60.445 145.717 60.412C144.936 60.181 144.232 59.73 143.693 59.125C143.814 58.949 144.056 58.927 144.254 58.927C145.112 58.905 145.981 58.894 146.817 59.07C147.235 59.158 147.653 59.301 148.071 59.4C148.632 59.532 149.204 59.609 149.765 59.752C150.249 59.873 150.711 60.06 151.173 60.247C151.899 60.533 152.614 60.808 153.34 61.083C153.791 61.259 154.231 61.424 154.704 61.556C154.946 61.622 155.463 61.589 155.584 61.853C155.782 62.2929 154.682 62.194 154.418 62.194C153.901 62.172 153.395 62.1279 152.889 62.073Z" fill="#FECE2F"/>
<path d="M153.901 62.117C154.407 61.369 154.704 60.467 154.704 59.499C154.704 56.914 152.614 54.824 150.029 54.824C147.444 54.824 145.354 56.914 145.354 59.499C145.354 59.686 145.365 59.862 145.387 60.049C145.387 60.049 146.619 60.929 149.314 61.435C152.009 61.941 153.901 62.117 153.901 62.117Z" fill="#FECE2F"/>
<path d="M150.04 54.824C147.455 54.824 145.365 56.914 145.365 59.499C145.365 59.686 145.376 59.862 145.398 60.049C145.398 60.049 145.959 60.445 147.147 60.863C147.499 59.367 147.906 58.069 149.38 57.211C150.711 56.441 152.361 56.364 153.846 56.782C152.988 55.605 151.602 54.824 150.04 54.824Z" fill="#F1F1F1"/>
<path d="M158.906 53.207C158.906 53.064 158.873 52.921 158.862 52.789C158.84 52.646 158.818 52.514 158.785 52.382C158.521 51.304 157.993 50.358 157.333 49.577C157.245 49.478 157.102 49.434 156.959 49.478C156.783 49.544 156.695 49.731 156.761 49.907C157.102 50.82 157.366 51.722 157.432 52.591C157.454 53.02 157.454 53.449 157.377 53.856C157.3 54.263 157.168 54.648 156.97 55.011C156.596 55.737 155.991 56.375 155.309 56.958C155.089 57.145 154.858 57.321 154.616 57.497C154.374 56.936 154.022 56.419 153.571 55.968C152.625 55.022 151.371 54.505 150.029 54.494C148.687 54.494 147.433 55.011 146.487 55.957C146.344 56.1 146.201 56.265 146.08 56.419C145.882 56.166 145.695 55.924 145.53 55.671C145.321 55.352 145.145 55.033 145.024 54.703C144.892 54.384 144.815 54.054 144.793 53.724C144.738 53.075 144.958 52.382 145.332 51.711L145.398 51.579L145.475 51.458L145.629 51.205C145.739 51.04 145.86 50.875 145.981 50.71C146.113 50.556 146.234 50.38 146.366 50.215C146.509 50.05 146.641 49.896 146.773 49.72L146.784 49.698C146.861 49.599 146.883 49.456 146.817 49.335C146.729 49.17 146.531 49.104 146.366 49.192C146.168 49.302 145.97 49.412 145.772 49.533C145.585 49.654 145.398 49.797 145.211 49.929C145.035 50.072 144.848 50.226 144.683 50.391L144.43 50.655L144.309 50.787L144.199 50.93L143.979 51.216L143.781 51.535C143.748 51.59 143.715 51.645 143.682 51.7L143.594 51.876C143.539 51.997 143.473 52.107 143.44 52.228C143.242 52.712 143.154 53.251 143.165 53.79C143.176 54.329 143.308 54.868 143.517 55.341C143.737 55.814 144.023 56.243 144.353 56.606C144.683 56.958 145.046 57.266 145.431 57.519C145.277 57.882 145.167 58.256 145.101 58.641C143.814 58.509 143.264 58.608 143.121 58.982C143.121 58.982 143.121 58.982 143.121 58.993L135.729 78.562C135.707 78.628 135.696 78.705 135.718 78.771C135.751 78.903 136.719 82.049 143.319 83.699C145.563 84.26 147.411 84.447 148.907 84.447C152.152 84.447 153.703 83.545 153.791 83.479C153.879 83.424 153.934 83.336 153.945 83.226L156.046 62.326C156.068 62.293 156.079 62.249 156.09 62.216C156.189 61.831 155.815 61.501 154.77 61.05C154.935 60.555 155.023 60.027 155.023 59.488C155.023 59.246 155.001 58.993 154.968 58.762C155.386 58.597 155.782 58.399 156.167 58.157C156.629 57.871 157.058 57.53 157.443 57.123C157.828 56.716 158.158 56.243 158.411 55.726C158.477 55.594 158.532 55.462 158.587 55.33L158.664 55.132L158.719 54.923C158.752 54.78 158.796 54.648 158.818 54.494L158.851 54.274C158.862 54.208 158.873 54.131 158.873 54.054L158.895 53.625C158.928 53.493 158.917 53.35 158.906 53.207ZM146.96 56.43C147.785 55.616 148.874 55.165 150.029 55.165C151.195 55.165 152.284 55.616 153.098 56.441C153.923 57.266 154.374 58.355 154.363 59.51C154.363 60.368 154.11 61.204 153.637 61.908C152.603 61.776 151.184 61.512 149.479 61.094C147.939 60.709 146.652 60.324 145.695 59.983C145.673 59.818 145.662 59.653 145.673 59.488C145.684 58.333 146.146 57.244 146.96 56.43ZM145.035 59.301C145.035 59.367 145.035 59.433 145.035 59.499C145.035 59.576 145.035 59.653 145.046 59.73C144.584 59.543 144.232 59.378 144.012 59.246C144.232 59.246 144.584 59.257 145.035 59.301ZM155.221 62.018C155.023 62.029 154.737 62.018 154.374 61.985C154.429 61.886 154.484 61.787 154.539 61.677C154.836 61.809 155.067 61.919 155.221 62.018Z" fill="#212121"/>
<path d="M155.023 62.678C154.715 62.678 154.33 62.645 153.857 62.601L151.415 83.589C152.438 83.402 153.065 83.138 153.329 83.006L155.375 62.667C155.265 62.667 155.144 62.678 155.023 62.678Z" fill="#F1F1F1"/>
<path d="M149.336 61.732C149.072 61.666 148.808 61.6 148.555 61.534L142.626 82.83C142.901 82.907 143.187 82.984 143.484 83.061C145.156 83.479 146.608 83.677 147.818 83.754L151.492 62.216C150.81 62.084 150.084 61.919 149.336 61.732Z" fill="#F1F1F1"/>
<path d="M156.695 36.289V50.699C156.695 50.699 154.418 51.579 151.69 51.469C148.962 51.359 146.718 50.699 146.718 50.699L146.685 39.512L146.718 36.322L156.695 36.289Z" fill="#FECE2F"/>
<path d="M157.025 36.289C157.025 36.168 156.959 36.058 156.86 36.003C156.64 35.772 156.145 35.607 155.254 35.475C154.297 35.332 153.032 35.255 151.69 35.255C150.348 35.255 149.083 35.332 148.126 35.475C147.092 35.629 146.575 35.816 146.432 36.124C146.399 36.168 146.388 36.223 146.388 36.289V39.996V45.639V50.699C146.388 50.71 146.388 50.71 146.388 50.721C146.388 50.732 146.388 50.732 146.388 50.743C146.388 51.172 146.872 51.403 148.126 51.59C149.083 51.733 150.348 51.81 151.69 51.81C153.032 51.81 154.297 51.733 155.254 51.59C156.343 51.425 156.849 51.227 156.97 50.897C157.014 50.842 157.036 50.776 157.036 50.71V36.289H157.025ZM147.048 36.938C147.312 37.026 147.664 37.103 148.126 37.169C149.083 37.312 150.348 37.389 151.69 37.389C153.032 37.389 154.297 37.312 155.254 37.169C155.727 37.103 156.101 37.015 156.365 36.927V39.842C156.354 39.853 156.354 39.875 156.343 39.886C156.057 40.073 154.495 40.392 151.69 40.392C148.94 40.392 147.378 40.084 147.048 39.897V36.938ZM151.69 51.139C148.94 51.139 147.378 50.831 147.048 50.644V46.255C147.312 46.343 147.664 46.42 148.126 46.486C149.083 46.629 150.348 46.706 151.69 46.706C153.032 46.706 154.297 46.629 155.254 46.486C155.727 46.42 156.101 46.332 156.365 46.244V50.589C156.354 50.6 156.354 50.622 156.343 50.633C156.057 50.82 154.495 51.139 151.69 51.139Z" fill="#212121"/>
<path d="M151.69 36.729C149.369 36.729 147.895 36.509 147.29 36.322C147.884 36.135 149.358 35.915 151.69 35.915C154.022 35.915 155.485 36.135 156.09 36.322C155.485 36.509 154.011 36.729 151.69 36.729Z" fill="#F1F1F1"/>
<path d="M55.6638 80.7925L55.6287 81.3414L93.4713 83.7606L93.5064 83.2117L55.6638 80.7925Z" fill="#FECE2F"/>
<path d="M93.093 98.802C93.082 98.802 93.071 98.802 93.06 98.802L55.5501 95.502C55.3851 95.491 55.2531 95.348 55.2531 95.172V62.392C55.2531 62.205 55.3961 62.062 55.5831 62.062H94.303C94.391 62.062 94.479 62.095 94.545 62.161C94.611 62.227 94.644 62.315 94.633 62.403L93.423 98.483C93.423 98.571 93.379 98.659 93.313 98.714C93.258 98.769 93.17 98.802 93.093 98.802ZM55.9131 94.864L92.7741 98.109L93.962 62.722H55.9131V94.864Z" fill="#212121"/>
<path d="M61.743 56.188C62.1257 56.188 62.436 55.8777 62.436 55.495C62.436 55.1122 62.1257 54.802 61.743 54.802C61.3603 54.802 61.05 55.1122 61.05 55.495C61.05 55.8777 61.3603 56.188 61.743 56.188Z" fill="#FECE2F"/>
<path d="M93.9511 58.553C94.3338 58.553 94.6441 58.2427 94.6441 57.86C94.6441 57.4773 94.3338 57.167 93.9511 57.167C93.5683 57.167 93.2581 57.4773 93.2581 57.86C93.2581 58.2427 93.5683 58.553 93.9511 58.553Z" fill="#F1F1F1"/>
<path d="M100.958 58.74C101.341 58.74 101.651 58.4297 101.651 58.047C101.651 57.6643 101.341 57.354 100.958 57.354C100.575 57.354 100.265 57.6643 100.265 58.047C100.265 58.4297 100.575 58.74 100.958 58.74Z" fill="#F1F1F1"/>
<path d="M101.684 114.928C102.067 114.928 102.377 114.618 102.377 114.235C102.377 113.852 102.067 113.542 101.684 113.542C101.301 113.542 100.991 113.852 100.991 114.235C100.991 114.618 101.301 114.928 101.684 114.928Z" fill="#F1F1F1"/>
<path d="M59.422 120.23C59.8048 120.23 60.1151 119.92 60.1151 119.537C60.1151 119.154 59.8048 118.844 59.422 118.844C59.0393 118.844 58.729 119.154 58.729 119.537C58.729 119.92 59.0393 120.23 59.422 120.23Z" fill="#F1F1F1"/>
<path d="M56.562 56.738C56.9447 56.738 57.255 56.4277 57.255 56.045C57.255 55.6623 56.9447 55.352 56.562 55.352C56.1793 55.352 55.869 55.6623 55.869 56.045C55.869 56.4277 56.1793 56.738 56.562 56.738Z" fill="#FECE2F"/>
<path d="M100.903 70.862C100.892 70.862 100.892 70.862 100.881 70.862L97.141 70.642C96.965 70.631 96.822 70.477 96.833 70.301L97.163 62.271C97.174 62.095 97.317 61.952 97.493 61.952L101.123 61.919C101.211 61.919 101.299 61.952 101.365 62.018C101.431 62.084 101.464 62.172 101.464 62.26L101.244 70.543C101.244 70.631 101.2 70.719 101.134 70.774C101.068 70.829 100.991 70.862 100.903 70.862ZM97.504 70.004L100.584 70.18L100.782 62.579L97.812 62.612L97.504 70.004Z" fill="#212121"/>
<path d="M99.11 69.377H99.099C98.824 69.366 98.615 69.146 98.615 68.871L98.758 63.668C98.769 63.393 98.989 63.184 99.264 63.184C99.539 63.195 99.748 63.415 99.748 63.69L99.605 68.893C99.594 69.168 99.374 69.377 99.11 69.377Z" fill="#212121"/>
<path d="M98.065 128.689C97.933 128.689 97.823 128.612 97.768 128.491C97.691 128.326 97.768 128.128 97.933 128.051C98.494 127.809 99.033 127.512 99.561 127.171C99.847 126.984 100.133 126.775 100.408 126.555C100.551 126.445 100.76 126.467 100.87 126.61C100.98 126.753 100.958 126.962 100.815 127.072C100.529 127.303 100.221 127.523 99.913 127.721C99.363 128.084 98.78 128.392 98.197 128.656C98.153 128.689 98.109 128.689 98.065 128.689Z" fill="#F1F1F1"/>
<path d="M92.521 123.189C91.311 123.189 90.31 123.002 89.683 122.848C89.507 122.804 89.397 122.628 89.441 122.452C89.485 122.276 89.661 122.166 89.837 122.21C90.695 122.43 92.972 122.859 95.579 122.111C96.932 121.726 98.197 121.066 99.341 120.164C99.484 120.054 99.693 120.076 99.803 120.219C99.913 120.362 99.891 120.571 99.748 120.681C98.538 121.638 97.196 122.331 95.766 122.738C94.589 123.079 93.489 123.189 92.521 123.189Z" fill="#F1F1F1"/>
<path d="M56.001 176.297C54.461 175.912 53.328 175.329 52.833 175.032C50.028 179.355 45.98 185.636 45.496 186.571C45.782 187.011 47.267 188.496 49.995 189.189C50.171 181.225 54.153 178.629 56.177 176.33C56.111 176.33 56.056 176.319 56.001 176.297Z" fill="#F1F1F1"/>
<path d="M53.4381 186.934C52.2501 186.934 51.0621 186.802 49.8851 186.538C49.1591 186.373 48.4331 186.153 47.7291 185.889C47.5641 185.823 47.4761 185.636 47.5421 185.46C47.6081 185.284 47.7951 185.207 47.9711 185.273C48.6421 185.526 49.3351 185.735 50.0391 185.9C51.8211 186.307 53.6361 186.384 55.4401 186.153C60.2141 185.526 63.3601 183.315 64.8121 182.05C64.9441 181.929 65.1531 181.94 65.2741 182.083C65.3951 182.215 65.3841 182.424 65.2411 182.545C63.7341 183.854 60.4671 186.153 55.5281 186.802C54.8241 186.89 54.1311 186.934 53.4381 186.934Z" fill="#F1F1F1"/>
<path d="M49.962 186.538C49.94 186.538 49.918 186.538 49.907 186.538C49.434 186.45 47.982 186.087 46.86 185.449C46.706 185.361 46.651 185.152 46.739 184.998C46.827 184.844 47.036 184.789 47.19 184.877C48.224 185.471 49.621 185.812 50.028 185.889C50.204 185.922 50.325 186.098 50.292 186.274C50.248 186.428 50.116 186.538 49.962 186.538Z" fill="#FECE2F"/>
<path d="M153.516 101.948C152.713 101.893 151.162 102.806 150.821 103.664C150.491 104.522 150.447 105.765 150.557 105.776C150.667 105.787 153.989 105.27 153.989 105.27L157.443 105.347C157.454 105.347 157.289 102.201 153.516 101.948Z" fill="#FECE2F"/>
<path d="M153.516 101.948C152.713 101.893 151.162 102.806 150.821 103.664C150.491 104.522 150.447 105.765 150.557 105.776C150.601 105.776 151.085 105.71 151.69 105.622C151.976 104.676 152.779 102.663 154.627 102.135C154.297 102.036 153.934 101.97 153.516 101.948Z" fill="#F1F1F1"/>
<path d="M153.593 119.955C153.406 119.977 148.423 120.527 148.665 121.11C148.907 121.682 154.143 121.594 154.671 121.495C155.199 121.396 160.941 120.461 160.941 120.461C160.941 120.461 162.723 119.922 162.261 119.691C161.81 119.46 157.278 119.427 153.593 119.955Z" fill="#FECE2F"/>
<path d="M187.068 152.006C191.442 152.006 194.988 148.46 194.988 144.086C194.988 139.712 191.442 136.166 187.068 136.166C182.694 136.166 179.148 139.712 179.148 144.086C179.148 148.46 182.694 152.006 187.068 152.006Z" fill="#212121"/>
<path d="M191.719 144.551C191.939 142.021 190.069 139.799 187.55 139.579C187.297 139.557 182.512 140.624 175.747 139.095C168.982 137.566 164.505 132.583 162.635 128.667C160.765 124.751 159.962 119.493 159.962 119.493C159.962 119.493 158.653 119.328 156.596 119.416C154.539 119.504 151.085 120.538 151.085 120.538L151.657 124.729C151.657 124.729 153.758 134.079 158.191 138.996C162.624 143.913 167.651 146.949 174.141 148.511C179.993 149.919 185.834 148.951 186.923 148.742C189.376 148.852 191.499 147.015 191.719 144.551Z" fill="#F1F1F1"/>
<path d="M186.923 149.061C186.769 149.061 186.626 148.951 186.593 148.786C186.56 148.61 186.681 148.434 186.868 148.412C190.553 147.807 191.279 145.717 191.389 144.529C191.598 142.186 189.86 140.118 187.517 139.909C187.286 139.887 186.725 139.865 186.505 139.887C186.318 139.898 186.164 139.766 186.153 139.579C186.142 139.392 186.274 139.238 186.461 139.227C186.725 139.205 187.308 139.227 187.572 139.249C190.278 139.491 192.28 141.878 192.049 144.584C191.84 146.938 189.992 148.566 186.978 149.061C186.956 149.061 186.945 149.061 186.923 149.061Z" fill="#212121"/>
<path d="M187.429 148.621C187.385 148.445 187.209 148.335 187.033 148.379C187.011 148.39 185.064 148.83 182.072 148.918C181.5 144.683 182.325 141.086 182.545 140.217C185.13 140.217 186.802 139.854 186.879 139.832C187.055 139.788 187.165 139.612 187.132 139.436C187.099 139.26 186.912 139.15 186.736 139.183C186.714 139.183 184.415 139.689 181.104 139.513C178.057 139.359 173.492 138.578 169.07 135.773C165.088 133.243 162.91 128.953 161.788 125.796C160.567 122.353 160.292 119.482 160.292 119.449C160.27 119.262 160.116 119.13 159.929 119.152C159.753 119.163 159.61 119.328 159.632 119.515C159.643 119.614 159.841 121.759 160.699 124.597C159.907 124.179 158.51 123.728 156.541 124.08C154.088 124.531 152.856 125.906 152.372 126.621C151.503 123.112 151.426 120.549 151.426 120.516C151.426 120.34 151.272 120.197 151.096 120.197C151.096 120.197 151.096 120.197 151.085 120.197C150.898 120.197 150.755 120.351 150.766 120.538C150.766 120.67 150.854 123.728 152.009 127.842C153.076 131.648 155.298 137.082 159.83 141.372C165.99 147.213 173.096 148.984 177.98 149.435C179.135 149.545 180.224 149.589 181.214 149.589C184.745 149.589 187.066 149.05 187.198 149.017C187.352 148.973 187.462 148.797 187.429 148.621ZM164.318 144.089C164.01 141.526 164.681 139.458 166.32 137.94C167.354 136.983 168.465 136.543 168.85 136.411C170.698 137.566 172.568 138.38 174.35 138.952C173.591 139.964 171.534 143.11 171.501 147.466C169.18 146.74 166.738 145.662 164.318 144.089ZM152.592 127.479C152.636 127.446 152.68 127.402 152.702 127.347C152.702 127.347 152.955 126.819 153.56 126.247C154.374 125.477 155.419 124.96 156.662 124.729C159.467 124.212 160.952 125.521 161.018 125.587C161.062 125.73 161.117 125.862 161.161 126.005C161.744 127.666 162.624 129.635 163.889 131.516C162.987 131.329 161.458 131.263 159.599 132.198C157.377 133.32 156.519 134.981 156.211 135.872C154.396 132.957 153.307 130.009 152.647 127.677C152.625 127.611 152.614 127.545 152.592 127.479ZM156.695 136.609C156.695 136.598 156.695 136.598 156.706 136.587C156.706 136.565 157.091 134.211 159.907 132.781C161.293 132.077 162.459 132.011 163.196 132.066C163.988 132.132 164.472 132.374 164.472 132.374C164.494 132.385 164.516 132.396 164.538 132.396C165.528 133.705 166.738 134.937 168.179 135.96C167.607 136.202 166.738 136.653 165.902 137.423C164.714 138.512 163.405 140.448 163.625 143.594C162.492 142.802 161.381 141.911 160.292 140.877C158.862 139.546 157.685 138.094 156.695 136.609ZM178.035 148.775C176.308 148.61 174.306 148.28 172.161 147.664C172.128 143.099 174.504 139.81 175.021 139.161C177.309 139.821 179.421 140.085 181.093 140.173C181.357 140.184 181.621 140.195 181.863 140.206C181.577 141.328 180.862 144.782 181.401 148.918C180.378 148.929 179.245 148.896 178.035 148.775Z" fill="#212121"/>
<path d="M156.662 124.729C156.607 124.74 156.552 124.751 156.508 124.762C156.53 124.839 156.552 124.916 156.574 124.993C157.322 127.49 158.455 129.866 159.863 132.066C161.612 131.263 163.031 131.329 163.889 131.505C162.624 129.624 161.755 127.655 161.161 125.994C161.106 125.851 161.062 125.719 161.018 125.576C160.952 125.521 159.467 124.212 156.662 124.729Z" fill="#FECE2F"/>
<path d="M168.85 136.411C168.476 136.543 167.354 136.983 166.32 137.94C166.034 138.204 165.781 138.49 165.55 138.787C166.529 139.656 167.574 140.459 168.718 141.075C169.884 141.702 171.149 142.131 172.436 142.472C173.085 140.745 173.91 139.524 174.339 138.963C172.568 138.391 170.698 137.577 168.85 136.411Z" fill="#FECE2F"/>
<path d="M165.891 137.434C166.727 136.664 167.596 136.213 168.168 135.971C166.716 134.959 165.517 133.727 164.527 132.407C164.505 132.396 164.483 132.396 164.461 132.385C164.45 132.385 163.977 132.143 163.185 132.077C162.514 132.022 161.469 132.077 160.226 132.627C160.446 132.957 160.666 133.276 160.897 133.595C161.986 135.102 163.218 136.521 164.538 137.83C164.714 137.995 164.879 138.171 165.066 138.336C165.33 137.995 165.616 137.687 165.891 137.434Z" fill="#FECE2F"/>
<path d="M187.55 139.568C187.506 139.568 187.363 139.59 187.121 139.623C187.077 139.722 187 139.799 186.89 139.821C186.813 139.843 185.141 140.206 182.556 140.206C182.446 140.635 182.193 141.702 182.028 143.176C183.392 142.956 184.723 142.56 185.977 141.966C187 141.471 188.012 140.767 188.43 139.733C188.133 139.656 187.847 139.601 187.55 139.568Z" fill="#FECE2F"/>
<path d="M175.021 139.161C174.724 139.535 173.822 140.778 173.096 142.637C175.78 143.286 178.618 143.605 181.335 143.286C181.489 141.845 181.72 140.756 181.863 140.217C181.61 140.206 181.357 140.206 181.093 140.184C179.421 140.085 177.309 139.821 175.021 139.161Z" fill="#FECE2F"/>
<path d="M156.332 124.124C156.398 124.113 156.475 124.091 156.541 124.08C158.51 123.717 159.907 124.179 160.699 124.597C159.841 121.759 159.643 119.614 159.632 119.515C159.632 119.493 159.632 119.471 159.632 119.449C159.126 119.405 158.048 119.339 156.596 119.405C156.277 119.416 155.914 119.46 155.54 119.515C155.573 119.746 155.606 119.977 155.639 120.219C155.782 121.539 156.002 122.837 156.332 124.124Z" fill="#FECE2F"/>
<path d="M162.613 119.746C162.613 119.735 162.613 119.735 162.613 119.735C162.602 119.691 162.591 119.636 162.569 119.592L157.74 105.325C157.729 105.259 157.696 105.204 157.663 105.16C157.663 105.138 157.663 105.127 157.663 105.105C157.575 104.236 157.201 103.477 156.64 102.894C156.904 102.762 157.135 102.575 157.344 102.344C157.63 102.036 157.839 101.618 157.905 101.167C157.938 100.936 157.938 100.705 157.894 100.485C157.85 100.265 157.784 100.056 157.685 99.869C157.586 99.682 157.465 99.506 157.311 99.363C157.168 99.22 157.003 99.088 156.805 99C156.761 98.978 156.706 98.967 156.651 98.989C156.53 99.022 156.453 99.143 156.475 99.275L156.486 99.319C156.53 99.484 156.585 99.649 156.629 99.803C156.673 99.957 156.717 100.111 156.739 100.243C156.772 100.386 156.794 100.518 156.805 100.65C156.816 100.782 156.827 100.914 156.816 101.035C156.805 101.167 156.783 101.288 156.739 101.42C156.706 101.552 156.651 101.684 156.585 101.816C156.475 102.036 156.343 102.256 156.189 102.498C155.452 101.926 154.495 101.629 153.494 101.739C152.46 101.849 151.569 102.366 150.964 103.103C150.81 102.894 150.678 102.696 150.568 102.487C150.436 102.234 150.348 101.981 150.304 101.728C150.282 101.596 150.271 101.464 150.26 101.332C150.249 101.2 150.249 101.057 150.26 100.914C150.26 100.771 150.271 100.617 150.282 100.463C150.293 100.309 150.304 100.133 150.304 99.979V99.935C150.304 99.891 150.293 99.836 150.26 99.792C150.183 99.693 150.029 99.671 149.93 99.748C149.754 99.88 149.633 100.023 149.523 100.199C149.413 100.364 149.336 100.551 149.27 100.738C149.204 100.925 149.182 101.134 149.171 101.343C149.171 101.552 149.193 101.761 149.237 101.97C149.336 102.388 149.556 102.773 149.842 103.059C150.073 103.29 150.348 103.466 150.634 103.576C150.238 104.247 150.04 105.05 150.128 105.897C150.128 105.941 150.15 105.985 150.161 106.018C150.15 106.051 150.15 106.084 150.15 106.128L148.357 121.077C148.346 121.121 148.346 121.165 148.346 121.22V121.231C148.379 121.561 148.61 121.902 150.986 121.935C151.162 121.935 151.305 121.792 151.305 121.616C151.305 121.44 151.162 121.297 150.986 121.297C149.952 121.286 149.424 121.209 149.171 121.143C149.347 121.055 149.666 120.934 150.227 120.791C151.492 120.461 153.384 120.142 155.419 119.933C157.487 119.724 159.423 119.636 160.732 119.713C161.271 119.746 161.59 119.79 161.777 119.845C161.557 119.955 161.117 120.109 160.281 120.307C160.105 120.351 160.006 120.516 160.039 120.692C160.083 120.868 160.248 120.967 160.424 120.934C162.294 120.472 162.646 120.131 162.613 119.746ZM153.571 102.366C155.21 102.201 156.684 103.323 156.992 104.918C156.816 104.896 156.618 104.885 156.387 104.885C155.705 104.863 154.814 104.918 153.879 105.006C152.933 105.105 152.053 105.248 151.393 105.402C151.151 105.457 150.931 105.512 150.755 105.578C150.711 103.95 151.932 102.542 153.571 102.366Z" fill="#212121"/>
<path d="M150.073 120.164C150.755 119.988 151.613 119.812 152.57 119.658L152.889 105.765C151.712 105.941 150.997 106.139 150.788 106.249L149.083 120.483C149.336 120.384 149.655 120.274 150.073 120.164Z" fill="#F1F1F1"/>
<path d="M199.353 116.732C197.923 115.665 192.72 113.289 189.013 113.872C185.306 114.455 182.05 116.072 181.863 116.072C181.676 116.072 177.54 118.569 178.046 119.449C178.552 120.329 185.086 124.102 185.086 124.102L196.449 131.109C196.449 131.109 202.829 135.542 203.522 135.586C204.215 135.619 204.545 135.289 204.809 134.519C205.062 133.749 206.283 128.546 204.952 123.552C203.94 119.702 199.353 116.732 199.353 116.732Z" fill="#FECE2F"/>
<path d="M185.438 118.437C185.636 118.437 189.167 116.688 193.182 116.05C195.151 115.742 197.505 116.204 199.584 116.886C199.441 116.787 199.353 116.732 199.353 116.732C197.923 115.665 192.72 113.289 189.013 113.872C185.306 114.455 182.05 116.072 181.863 116.072C181.676 116.072 177.54 118.569 178.046 119.449C178.277 119.845 179.74 120.835 181.269 121.803C181.511 120.67 185.251 118.437 185.438 118.437Z" fill="#F1F1F1"/>
<path d="M189.53 128.865C187.33 128.139 181.027 126.665 177.067 128.128C173.107 129.591 168.927 132.088 167.244 139.051C165.561 146.014 165.924 150.788 167.387 156.871C168.85 162.954 172.81 170.588 177.43 173.591C182.05 176.594 186.67 174.328 188.65 173.074C190.63 171.831 197.23 166.177 200.167 159.577C203.104 152.977 204.49 146.157 203.324 140.877C202.136 135.619 197.373 131.439 189.53 128.865Z" fill="#FECE2F"/>
<path d="M173.096 156.882C171.633 150.799 171.259 146.025 172.953 139.062C174.636 132.099 178.816 129.602 182.776 128.139C183.26 127.963 183.766 127.831 184.305 127.732C181.863 127.413 179.135 127.369 177.056 128.139C173.096 129.602 168.916 132.099 167.233 139.062C165.55 146.025 165.913 150.799 167.376 156.882C168.839 162.965 172.799 170.599 177.419 173.602C180.235 175.439 183.051 175.307 185.273 174.647C184.569 174.416 183.854 174.075 183.139 173.602C178.53 170.599 174.57 162.965 173.096 156.882Z" fill="#F1F1F1"/>
<path d="M182.567 175.549C182.457 175.549 182.336 175.549 182.226 175.538C178.937 175.373 175.725 173.338 172.92 169.653C170.357 166.265 168.278 161.711 166.903 156.486C165.561 151.382 165.363 145.904 166.342 141.075C167.398 135.872 169.686 131.89 172.975 129.569C176 127.435 179.916 126.687 184.635 127.358C189.024 127.974 192.83 129.668 194.271 130.372C198.352 132.363 200.959 134.695 202.488 137.698C204.402 141.482 204.578 146.333 203.027 152.526C201.476 158.719 198.275 164.615 194.018 169.125C190.19 173.173 185.944 175.549 182.567 175.549ZM181.434 127.776C178.266 127.776 175.56 128.557 173.36 130.108C170.214 132.33 168.014 136.169 166.991 141.207C166.034 145.937 166.232 151.305 167.541 156.321C168.872 161.392 170.973 165.99 173.448 169.257C176.121 172.788 179.168 174.735 182.259 174.878C185.493 175.032 189.706 172.711 193.534 168.674C197.714 164.241 200.86 158.455 202.389 152.361C205.788 138.776 200.046 133.914 193.985 130.955C192.577 130.273 188.848 128.612 184.547 127.996C183.458 127.853 182.424 127.776 181.434 127.776Z" fill="#212121"/>
<path d="M202.301 127.732C202.653 127.732 202.939 127.446 202.939 127.094C202.939 126.742 202.653 126.456 202.301 126.456C201.949 126.456 201.663 126.742 201.663 127.094C201.663 127.446 201.949 127.732 202.301 127.732Z" fill="#212121"/>
<path d="M201.41 155.177C201.41 155.177 201.41 155.166 201.421 155.155C201.41 155.177 200.431 156.981 191.752 155.595C191.664 155.584 191.576 155.606 191.51 155.65C191.444 155.705 191.389 155.782 191.378 155.87C191.367 155.925 190.575 161.117 189.97 165.638C189.464 165.77 187.935 166.067 185.724 165.594C185.856 163.57 186.043 162.074 186.043 162.041C186.054 161.942 186.021 161.832 185.944 161.766C185.867 161.689 185.768 161.656 185.669 161.678C185.647 161.678 182.897 162.052 179.399 161.909C176.187 161.777 171.666 161.161 168.355 159.016C168.201 158.917 168.003 158.961 167.904 159.115C167.805 159.269 167.849 159.467 168.003 159.566C171.446 161.799 176.099 162.426 179.399 162.558C182.149 162.668 184.448 162.47 185.35 162.371C185.273 163.108 185.097 164.758 185.009 166.661C184.833 170.148 184.965 172.799 185.416 174.537C185.449 174.691 185.592 174.79 185.735 174.79C185.757 174.79 185.79 174.79 185.812 174.779C185.988 174.735 186.098 174.559 186.054 174.383C185.515 172.249 185.548 168.916 185.702 166.254C186.615 166.441 187.418 166.507 188.089 166.507C189.519 166.507 190.355 166.21 190.399 166.188C190.509 166.144 190.597 166.045 190.608 165.924C191.125 162.008 191.796 157.52 191.983 156.288C200.981 157.674 201.96 155.617 202.048 155.375L201.41 155.177Z" fill="#212121"/>
<path d="M183.018 165.242C183.383 165.242 183.678 164.947 183.678 164.582C183.678 164.217 183.383 163.922 183.018 163.922C182.654 163.922 182.358 164.217 182.358 164.582C182.358 164.947 182.654 165.242 183.018 165.242Z" fill="#212121"/>
<path d="M193.116 158.741C193.493 158.741 193.798 158.436 193.798 158.059C193.798 157.682 193.493 157.377 193.116 157.377C192.739 157.377 192.434 157.682 192.434 158.059C192.434 158.436 192.739 158.741 193.116 158.741Z" fill="#212121"/>
<path d="M188.881 165.165C189.221 165.165 189.497 164.889 189.497 164.549C189.497 164.209 189.221 163.933 188.881 163.933C188.541 163.933 188.265 164.209 188.265 164.549C188.265 164.889 188.541 165.165 188.881 165.165Z" fill="#212121"/>
<path d="M206.206 115.445C205.645 115.445 205.172 115.808 204.996 116.314C203.863 116.314 202.191 116.501 200.805 117.469C200.233 116.996 199.617 116.545 198.946 116.116C194.843 113.498 190.476 112.816 185.977 114.092C182.314 115.126 179.498 117.216 178.145 118.36C177.837 118.613 177.683 118.998 177.716 119.394C177.749 119.79 177.958 120.131 178.288 120.34L203.104 135.817C203.302 135.938 203.522 136.004 203.753 136.004C203.885 136.004 204.028 135.982 204.16 135.938C204.512 135.817 204.787 135.542 204.908 135.201C205.491 133.606 206.393 130.383 205.964 126.786C205.546 123.277 203.984 120.307 201.322 117.92C202.51 117.15 203.951 116.985 204.952 116.974C205.062 117.568 205.59 118.008 206.206 118.008C206.91 118.008 207.493 117.436 207.493 116.721C207.493 116.006 206.921 115.445 206.206 115.445ZM205.315 126.863C205.513 128.502 205.414 130.064 205.205 131.417C203.445 129.47 200.904 128.04 199.969 127.556C202.048 124.696 202.697 121.946 202.895 120.626C204.226 122.452 205.029 124.531 205.315 126.863ZM202.323 119.889C202.268 120.494 201.883 123.981 199.21 127.479C199.155 127.556 199.133 127.655 199.155 127.754C199.177 127.853 199.243 127.93 199.331 127.974C199.364 127.996 202.972 129.734 204.996 132.176C205.018 132.198 205.04 132.22 205.062 132.242C204.831 133.375 204.534 134.321 204.303 134.981C204.248 135.146 204.116 135.267 203.951 135.322C203.786 135.377 203.61 135.355 203.467 135.267L178.64 119.79C178.486 119.691 178.387 119.537 178.376 119.35C178.365 119.163 178.431 118.987 178.574 118.877C179.245 118.305 180.279 117.502 181.599 116.721L189.046 121.594C189.508 121.902 190.036 122.045 190.564 122.045C191.455 122.045 192.335 121.616 192.874 120.835C193.292 120.219 193.446 119.471 193.303 118.734C193.16 117.997 192.742 117.37 192.115 116.952L188.166 114.312C191.774 113.784 195.272 114.576 198.594 116.699C200.068 117.623 201.311 118.69 202.323 119.889Z" fill="#212121"/>
<path d="M134.464 156.728C134.079 157.432 134.255 159.225 134.882 159.885C135.52 160.545 136.631 161.106 136.686 161.007C136.741 160.908 137.665 157.685 137.665 157.685L139.194 154.583C139.205 154.594 136.279 153.417 134.464 156.728Z" fill="#FECE2F"/>
<path d="M134.464 156.728C134.079 157.432 134.255 159.225 134.882 159.885C135.52 160.545 136.631 161.106 136.686 161.007C136.708 160.974 136.851 160.501 137.016 159.918C136.279 159.258 134.794 157.685 135.091 155.782C134.871 156.057 134.662 156.365 134.464 156.728Z" fill="#F1F1F1"/>
<path d="M150.821 164.241C150.766 164.417 149.171 169.169 149.787 169.191C150.414 169.213 152.526 164.428 152.658 163.911C152.79 163.394 154.363 157.784 154.363 157.784C154.363 157.784 154.616 155.947 154.22 156.266C153.835 156.585 151.899 160.677 150.821 164.241Z" fill="#FECE2F"/>
<path d="M186.811 151.975C191.185 151.975 194.731 148.429 194.731 144.055C194.731 139.681 191.185 136.135 186.811 136.135C182.437 136.135 178.891 139.681 178.891 144.055C178.891 148.429 182.437 151.975 186.811 151.975Z" fill="#212121"/>
<path d="M189.354 139.733C188.21 139.073 186.89 138.908 185.614 139.249C184.349 139.59 183.282 140.404 182.633 141.548C182.556 141.68 182.446 141.889 182.347 142.098C182.292 142.142 182.248 142.208 182.226 142.285C182.226 142.285 182.215 142.34 182.193 142.428C182.171 142.472 182.16 142.516 182.138 142.549C182.116 142.593 182.116 142.648 182.116 142.692C181.896 143.473 181.324 145.321 180.147 147.543C178.717 150.249 176.088 154.055 171.688 156.882C167.717 159.434 162.91 159.599 159.577 159.28C155.947 158.939 153.219 157.971 153.186 157.96C153.01 157.894 152.823 157.993 152.768 158.158C152.702 158.334 152.79 158.521 152.966 158.576C153.065 158.609 155.089 159.324 158.026 159.753C157.311 160.303 156.31 161.37 155.815 163.306C155.188 165.726 155.914 167.42 156.365 168.168C152.812 167.475 150.458 166.463 150.425 166.452C150.26 166.375 150.062 166.452 149.996 166.628C149.919 166.793 149.996 166.991 150.172 167.057C150.293 167.112 153.098 168.322 157.322 169.004C158.873 169.257 160.721 169.455 162.767 169.455C165.869 169.455 169.389 169.004 172.898 167.618C180.796 164.494 185.383 158.785 187.858 154.55C190.366 150.26 191.213 146.663 191.345 146.091C192.082 143.209 191.367 140.888 189.354 139.733ZM185.79 139.887C186.89 139.59 188.034 139.744 189.024 140.305C190.047 140.888 191.587 142.384 190.696 145.838C190.696 145.849 190.685 145.871 190.685 145.882C190.685 145.882 190.685 145.904 190.674 145.937C190.663 145.97 190.652 146.003 190.652 146.036C190.652 146.058 190.641 146.069 190.641 146.091C190.509 146.663 190.058 148.368 189.09 150.612C185.009 149.347 182.094 147.092 181.401 146.52C182.281 144.617 182.699 143.154 182.831 142.637C182.941 142.395 183.117 142.043 183.216 141.878C183.766 140.888 184.69 140.184 185.79 139.887ZM157.432 168.355C157.366 168.344 157.3 168.333 157.234 168.322C157.223 168.267 157.201 168.212 157.157 168.168C157.146 168.146 155.694 166.408 156.453 163.471C157.168 160.71 158.983 159.918 159.06 159.885C159.203 159.896 159.346 159.918 159.5 159.929C160.281 160.006 161.139 160.05 162.041 160.05C163.185 160.05 164.395 159.973 165.649 159.775C165.099 160.512 164.395 161.865 164.461 163.955C164.549 166.452 165.682 167.915 166.364 168.575C162.954 168.993 159.819 168.74 157.432 168.355ZM172.634 167.002C170.819 167.717 169.004 168.179 167.244 168.454C167.233 168.454 167.233 168.443 167.222 168.443C167.2 168.432 165.231 167.09 165.121 163.944C165.022 160.974 166.617 159.687 166.683 159.632C166.705 159.621 166.716 159.599 166.727 159.588C168.333 159.236 169.961 158.675 171.49 157.784C171.468 158.4 171.512 159.39 171.864 160.468C172.359 162.008 173.558 164.01 176.495 165.132C175.307 165.814 174.02 166.441 172.634 167.002ZM177.232 164.681C174.779 163.889 173.184 162.404 172.502 160.281C172.073 158.939 172.139 157.74 172.183 157.344C174.009 156.156 175.538 154.803 176.803 153.428C177.397 154.539 179.388 157.729 183.326 159.588C181.687 161.381 179.685 163.152 177.232 164.681ZM187.264 154.22C186.395 155.716 185.251 157.399 183.777 159.082C179.619 157.19 177.639 153.648 177.265 152.911C178.827 151.107 179.96 149.314 180.741 147.84C180.862 147.609 180.983 147.378 181.093 147.147C181.995 147.873 184.822 149.985 188.804 151.239C188.386 152.152 187.869 153.164 187.264 154.22Z" fill="#212121"/>
<path d="M188.815 151.217C184.833 149.974 182.006 147.862 181.104 147.125C180.994 147.345 180.873 147.576 180.752 147.818C179.971 149.292 178.849 151.096 177.276 152.889C177.65 153.626 179.63 157.179 183.788 159.06C185.251 157.377 186.395 155.694 187.275 154.198C187.869 153.164 188.386 152.152 188.815 151.217Z" fill="#F1F1F1"/>
<path d="M183.315 159.588C179.377 157.729 177.386 154.539 176.792 153.428C175.527 154.803 173.998 156.156 172.172 157.344C172.128 157.74 172.062 158.939 172.491 160.281C173.184 162.404 174.779 163.889 177.221 164.681C179.685 163.152 181.687 161.381 183.315 159.588Z" fill="#F1F1F1"/>
<path d="M176.495 165.121C173.558 163.988 172.348 161.986 171.864 160.457C171.523 159.379 171.468 158.389 171.49 157.773C169.961 158.664 168.333 159.225 166.727 159.577C166.716 159.599 166.694 159.61 166.683 159.621C166.617 159.676 165.022 160.963 165.121 163.933C165.231 167.079 167.2 168.421 167.222 168.432C167.233 168.432 167.233 168.443 167.244 168.443C169.004 168.168 170.83 167.706 172.634 166.991C174.02 166.441 175.307 165.814 176.495 165.121Z" fill="#F1F1F1"/>
<path d="M150.425 166.452C150.447 166.463 152.812 167.475 156.365 168.168C155.914 167.42 155.188 165.726 155.815 163.306C156.31 161.37 157.322 160.292 158.026 159.753C155.089 159.335 153.065 158.609 152.966 158.576C152.944 158.565 152.922 158.554 152.911 158.554C152.658 158.994 152.141 159.951 151.602 161.293C150.964 162.844 150.502 165.517 150.348 166.43C150.37 166.43 150.392 166.441 150.425 166.452Z" fill="#F1F1F1"/>
<path d="M156.453 163.471C155.694 166.408 157.146 168.146 157.157 168.168C157.201 168.212 157.223 168.267 157.234 168.322C157.3 168.333 157.366 168.344 157.432 168.355C159.819 168.74 162.954 168.993 166.364 168.575C165.682 167.915 164.549 166.452 164.461 163.955C164.395 161.865 165.099 160.512 165.649 159.775C164.406 159.973 163.185 160.05 162.041 160.05C161.139 160.05 160.281 160.006 159.5 159.929C159.357 159.918 159.203 159.896 159.06 159.885C158.972 159.918 157.168 160.71 156.453 163.471Z" fill="#F1F1F1"/>
<path d="M190.641 146.091C190.641 146.069 190.641 146.058 190.652 146.036C190.663 146.003 190.674 145.97 190.674 145.937C190.685 145.904 190.685 145.893 190.685 145.882C190.685 145.871 190.696 145.849 190.696 145.838C191.587 142.384 190.036 140.888 189.024 140.305C188.034 139.733 186.89 139.59 185.79 139.887C184.69 140.184 183.777 140.888 183.205 141.878C183.106 142.043 182.93 142.395 182.82 142.637C182.688 143.165 182.27 144.617 181.39 146.52C182.083 147.092 184.998 149.347 189.079 150.612C190.047 148.368 190.498 146.663 190.641 146.091Z" fill="#F1F1F1"/>
<path d="M180.741 147.818C179.96 149.292 178.838 151.096 177.265 152.889C177.485 153.318 178.222 154.66 179.608 156.09C181.324 153.934 182.809 151.492 183.656 148.896C182.413 148.148 181.522 147.477 181.093 147.125C180.983 147.356 180.873 147.587 180.741 147.818Z" fill="#FECE2F"/>
<path d="M171.864 160.446C171.523 159.368 171.468 158.378 171.49 157.762C169.961 158.653 168.333 159.214 166.727 159.566C166.716 159.588 166.694 159.599 166.683 159.61C166.617 159.665 165.154 160.853 165.121 163.559C165.506 163.493 165.902 163.427 166.287 163.35C168.113 162.998 169.917 162.481 171.666 161.832C171.897 161.744 172.117 161.656 172.348 161.568C172.128 161.194 171.974 160.809 171.864 160.446Z" fill="#FECE2F"/>
<path d="M172.502 160.27C172.623 160.644 172.777 160.985 172.942 161.326C174.141 160.809 175.307 160.193 176.352 159.412C177.408 158.609 178.332 157.652 179.179 156.629C177.892 155.309 177.122 154.044 176.792 153.428C175.527 154.803 173.998 156.156 172.172 157.344C172.139 157.74 172.062 158.939 172.502 160.27Z" fill="#FECE2F"/>
<path d="M155.76 163.515C155.771 163.449 155.793 163.372 155.815 163.306C156.31 161.37 157.322 160.292 158.026 159.753C155.089 159.335 153.065 158.609 152.966 158.576C152.944 158.565 152.922 158.554 152.911 158.554C152.658 158.994 152.141 159.951 151.602 161.293C151.481 161.59 151.36 161.931 151.25 162.294C151.47 162.36 151.701 162.426 151.932 162.503C153.186 162.932 154.462 163.273 155.76 163.515Z" fill="#FECE2F"/>
<path d="M183.645 141.24C183.48 141.438 183.337 141.647 183.205 141.867C183.106 142.032 182.93 142.384 182.82 142.626C182.688 143.154 182.27 144.606 181.39 146.509C181.731 146.784 182.589 147.466 183.865 148.236C184.239 146.905 184.448 145.541 184.426 144.144C184.404 143.132 184.239 142.043 183.645 141.24Z" fill="#FECE2F"/>
<path d="M156.453 163.471C156.442 163.526 156.431 163.57 156.42 163.625C156.497 163.636 156.585 163.647 156.662 163.658C159.247 164.032 161.876 163.999 164.461 163.658C164.461 161.733 165.121 160.468 165.649 159.775C164.406 159.973 163.185 160.05 162.041 160.05C161.139 160.05 160.281 160.006 159.5 159.929C159.357 159.918 159.203 159.896 159.06 159.885C158.972 159.918 157.168 160.71 156.453 163.471Z" fill="#FECE2F"/>
<path d="M154.429 155.98C154.418 155.98 154.418 155.98 154.407 155.98C154.363 155.969 154.319 155.958 154.264 155.958L139.293 154.33C139.227 154.319 139.172 154.319 139.106 154.33C139.084 154.319 139.073 154.308 139.051 154.308C138.226 154.022 137.379 154.044 136.609 154.308C136.598 154.022 136.532 153.725 136.411 153.439C136.246 153.054 135.96 152.68 135.575 152.438C135.388 152.317 135.168 152.218 134.959 152.163C134.739 152.108 134.519 152.086 134.31 152.097C134.101 152.108 133.892 152.152 133.694 152.218C133.496 152.284 133.32 152.383 133.144 152.526C133.1 152.559 133.078 152.603 133.067 152.658C133.045 152.779 133.122 152.911 133.254 152.933L133.298 152.944C133.463 152.977 133.639 152.999 133.793 153.021C133.947 153.043 134.101 153.076 134.244 153.109C134.387 153.142 134.519 153.175 134.64 153.219C134.761 153.263 134.882 153.318 134.992 153.373C135.102 153.439 135.212 153.505 135.311 153.604C135.41 153.692 135.509 153.791 135.608 153.912C135.762 154.099 135.905 154.319 136.059 154.561C135.234 154.99 134.563 155.727 134.233 156.684C133.892 157.663 133.991 158.697 134.409 159.555C134.156 159.599 133.914 159.643 133.694 159.654C133.408 159.665 133.144 159.643 132.891 159.577C132.77 159.544 132.638 159.5 132.517 159.445C132.396 159.401 132.264 159.335 132.132 159.269C132 159.203 131.868 159.137 131.725 159.06C131.593 158.983 131.439 158.906 131.296 158.829L131.252 158.807C131.208 158.785 131.153 158.785 131.109 158.796C130.988 158.829 130.9 158.95 130.933 159.071C130.977 159.28 131.065 159.456 131.164 159.621C131.274 159.786 131.395 159.94 131.549 160.072C131.703 160.204 131.868 160.325 132.055 160.413C132.242 160.501 132.44 160.578 132.649 160.622C133.067 160.71 133.507 160.666 133.892 160.534C134.2 160.424 134.475 160.248 134.695 160.039C135.135 160.688 135.784 161.205 136.576 161.48C136.609 161.491 136.642 161.502 136.675 161.502C136.686 161.502 136.686 161.502 136.697 161.502C136.719 161.524 136.752 161.546 136.785 161.557L149.589 169.477C149.622 169.499 149.655 169.521 149.688 169.543C149.699 169.543 149.71 169.554 149.71 169.554H149.721H149.732C149.743 169.554 149.743 169.554 149.754 169.554C149.798 169.565 149.842 169.576 149.886 169.576C150.183 169.576 150.612 169.235 151.47 167.442C151.547 167.288 151.481 167.09 151.316 167.013C151.162 166.936 150.964 167.002 150.887 167.167C150.436 168.102 150.15 168.542 149.985 168.751C149.985 168.553 150.007 168.212 150.106 167.651C150.337 166.364 150.843 164.516 151.514 162.58C152.185 160.611 152.933 158.829 153.549 157.674C153.802 157.19 153.989 156.926 154.11 156.772C154.11 157.014 154.077 157.476 153.901 158.323C153.868 158.499 153.978 158.664 154.154 158.697C154.33 158.73 154.495 158.62 154.528 158.444C154.968 156.574 154.803 156.101 154.429 155.98ZM138.325 155.364C138.028 155.969 137.687 156.805 137.379 157.696C137.071 158.587 136.829 159.456 136.686 160.116C136.631 160.358 136.598 160.578 136.576 160.765C135.091 160.116 134.321 158.422 134.849 156.86C135.388 155.298 137.027 154.44 138.6 154.836C138.523 154.979 138.435 155.155 138.325 155.364Z" fill="#212121"/>
<path d="M137.214 161.029L149.413 168.575C149.424 168.3 149.468 167.959 149.545 167.541C149.666 166.848 149.875 166.001 150.128 165.066L137.665 158.928C137.324 160.05 137.203 160.787 137.214 161.029Z" fill="#F1F1F1"/>
</svg>
