<svg width="92" height="59" viewBox="0 0 92 59" fill="none" xmlns="http://www.w3.org/2000/svg">
<g clip-path="url(#clip0)">
<path d="M91.8273 20.0413C91.8273 9.09041 83.0288 0.259064 72.1187 0.259064H70.007H22.4953H2.43473C1.37891 0.259064 0.675034 0.965572 0.675034 1.67208C0.675034 2.02533 -0.732723 11.5632 4.19442 17.5685C6.658 20.3945 10.1774 22.1608 15.1045 22.1608H17.92C17.92 25.3401 17.92 31.6987 21.7914 35.9377C24.255 38.7637 27.7743 40.53 32.7015 40.53H35.517C35.517 43.7093 35.517 50.0679 39.3883 54.3069C41.8519 57.133 45.3713 58.8992 50.2984 58.8992H70.359H72.4706C83.3807 58.8992 92.1792 50.0679 92.5311 39.117V38.7637L91.8273 20.0413ZM70.007 36.6442H58.0411H53.114C49.5946 36.6442 46.779 35.5845 45.0194 33.4649C42.2038 29.9324 41.8519 24.6336 42.2038 21.8076H70.359H72.1187H88.3079V36.6442H71.4148H70.007ZM71.7667 3.7916H72.1187C80.5652 3.7916 87.604 10.1502 88.3079 18.6283H71.4148H69.6551H40.0922H35.1651C31.6457 18.6283 28.8302 17.5685 27.0705 15.449C24.255 11.9164 24.255 6.26438 24.255 3.7916H71.7667ZM14.7526 18.6283C11.2332 18.6283 8.41769 17.5685 6.658 15.449C3.84248 11.9164 3.84249 6.26438 3.84249 3.7916H20.7356C20.7356 6.97089 20.7356 13.3295 24.6069 17.5685C24.6069 17.9218 24.9588 18.275 25.3108 18.6283H20.0317H14.7526ZM32.3496 36.9975C28.8302 36.9975 26.0147 35.5845 24.255 33.4649C21.4394 29.9324 21.4394 24.6336 21.4394 22.1608H35.1651H38.3325C38.3325 25.3401 38.3325 31.6987 42.2038 35.9377C42.5558 36.291 42.9077 36.6442 42.9077 36.9975H37.6286H32.3496ZM49.9465 55.0134C46.4271 55.0134 43.6116 53.9537 41.8519 51.8341C39.0364 48.3016 38.6845 43.0028 39.0364 40.1768H52.762H55.9295C55.9295 43.356 55.9295 49.7146 59.8008 53.9537C60.1527 54.3069 60.5047 54.6602 60.5047 55.0134H49.9465ZM72.1187 55.0134H71.7667H70.7109C70.007 55.0134 68.9512 55.0134 68.2473 55.0134C65.7838 54.6602 64.0241 53.6004 62.6163 51.8341C59.8008 48.3016 59.4489 43.0028 59.8008 40.1768H70.359H72.1187H88.3079C87.604 48.6549 80.5652 55.0134 72.1187 55.0134Z" fill="#212121"/>
</g>
<defs>
<clipPath id="clip0">
<rect width="91.5042" height="58.2869" fill="white" transform="translate(0.32312 0.259064)"/>
</clipPath>
</defs>
</svg>
