<svg width="220" height="220" viewBox="0 0 220 220" fill="none" xmlns="http://www.w3.org/2000/svg">
<path d="M86.504 194.546C25.091 184.525 -18.656 125.136 19.184 86.746C53.647 51.777 45.353 16.434 101.904 12.826C151.965 9.63598 200.145 61.105 209.704 112.706C222.761 183.172 163.537 207.119 86.504 194.546Z" fill="#FECE2F"/>
<path d="M161.238 118.745C169.653 118.899 177.683 118.613 184.382 117.931C184.14 117.436 183.579 116.281 182.721 114.543C181.731 112.541 180.532 109.329 180.532 109.329C180.532 109.329 180.07 109.846 178.959 110.473C177.837 111.111 177.265 111.056 177.045 110.99C176.825 110.913 174.592 112.09 174.592 112.09C174.592 112.09 167.002 113.993 161.425 114.323C155.848 114.653 149.215 114.213 149.105 114.213C148.995 114.213 139.425 113.289 139.425 113.289L141.152 117.458C147.158 118.162 154.044 118.613 161.238 118.745Z" fill="#FECE2F"/>
<path d="M121.187 42.251L132.847 44.253C132.847 44.253 132.957 46.695 132.495 48.455C132.033 50.215 131.307 51.227 131.307 51.227L119.757 49.049C119.757 49.049 118.547 48.554 118.965 45.837C119.383 43.12 120.164 42.174 121.187 42.251Z" fill="#F1F1F1"/>
<path d="M161.161 58.883C161.161 58.883 174.141 57.816 185.724 62.953C197.307 68.09 203.104 74.47 204.127 78.353C205.15 82.236 204.644 88.11 195.547 97.933L187.627 106.733C187.627 106.733 184.844 105.93 182.93 103.433C181.027 100.936 180.73 98.813 180.73 98.813L185.867 91.916L191.004 83.699C191.004 83.699 188.144 85.602 183.007 85.899C177.87 86.196 174.724 84.942 173.327 85.459C173.327 85.459 176.264 98.362 177.727 101.222L173.107 105.182C173.107 105.182 171.49 106.799 171.787 107.085C172.084 107.371 174.944 106.128 174.944 106.128C174.944 106.128 171.611 109.208 172.117 109.758C172.623 110.308 174.097 109.208 174.097 109.208C174.097 109.208 173.8 110.011 174.097 110.231C174.394 110.451 178.387 108.691 178.387 108.691C178.387 108.691 176.924 110.341 177.034 110.968C177.034 110.968 174.031 112.431 169.411 113.355C164.791 114.268 152.174 114.158 152.174 114.158C152.174 114.158 140.987 113.751 138.864 113.025C138.864 113.025 137.676 109.12 136.521 104.148C135.278 98.648 134.618 94.325 134.618 94.325C134.618 94.325 132.583 94.457 131.615 94.457C128.095 94.457 120.868 94.171 115.61 92.609C108.9 90.629 102.905 85.734 101.97 79.629C101.035 73.524 106.26 68.024 106.26 68.024L111.87 61.699L115.005 58.509L118.8 53.559C118.8 53.559 120.615 55.429 122.705 56.199C124.795 56.969 127.05 57.024 127.05 57.024L123.365 63.734C123.365 63.734 118.635 72.424 117.48 76.219L120.67 73.964C120.67 73.964 127.38 69.014 131.945 66.704C136.51 64.394 139.48 63.459 139.48 63.459C139.48 63.459 144.056 72.05 152.46 69.784C159.984 67.771 161.161 58.883 161.161 58.883Z" fill="#F1F1F1"/>
<path d="M204.215 78.683C204.193 78.573 204.16 78.463 204.127 78.353C203.962 77.737 203.676 77.055 203.269 76.329C203.291 76.307 203.313 76.285 203.335 76.263C203.346 76.252 203.346 76.252 203.357 76.241C203.236 76.076 203.126 75.9 203.049 75.702C202.873 75.493 202.719 75.251 202.62 74.987C202.444 74.789 202.301 74.558 202.202 74.305C202.092 74.217 201.982 74.129 201.872 74.052C201.74 73.92 201.63 73.777 201.542 73.634C201.498 73.667 201.465 73.7 201.421 73.733C200.75 72.941 199.969 72.127 199.056 71.302C199.067 71.291 199.089 71.269 199.1 71.258C199.133 71.225 199.155 71.203 199.188 71.17C199.034 71.038 198.902 70.895 198.781 70.73C198.374 70.565 198.022 70.268 197.78 69.894C197.714 69.949 197.648 69.993 197.582 70.037C195.261 68.145 192.324 66.22 188.705 64.394C188.716 64.328 188.716 64.251 188.727 64.185C188.287 64.108 187.913 63.899 187.605 63.613C187.319 63.58 187.033 63.481 186.78 63.338C186.736 63.305 186.692 63.272 186.637 63.228C186.615 63.283 186.604 63.327 186.582 63.382C186.285 63.25 185.988 63.107 185.691 62.975C184.228 62.326 182.754 61.776 181.28 61.314C181.313 61.27 181.346 61.215 181.379 61.171C181.06 61.138 180.763 61.039 180.499 60.885C180.07 60.885 179.685 60.753 179.366 60.544C179.311 60.599 179.256 60.654 179.212 60.709C177.397 60.225 175.615 59.862 173.921 59.587C173.965 59.532 174.009 59.466 174.053 59.4C173.932 59.389 173.822 59.367 173.723 59.334C173.657 59.334 173.591 59.345 173.525 59.334H173.492C173.283 59.334 173.074 59.301 172.876 59.246C172.799 59.257 172.722 59.257 172.645 59.257C172.271 59.257 171.919 59.158 171.622 59.004C171.611 59.004 171.6 59.004 171.578 59.004C171.457 59.004 171.347 58.993 171.237 58.971C171.072 59.015 170.907 59.037 170.731 59.037C170.346 59.037 169.994 58.938 169.686 58.773C169.554 58.85 169.433 58.938 169.301 59.026C164.483 58.619 161.117 58.894 161.117 58.894C161.117 58.894 160.996 59.796 160.589 61.094C161.293 60.973 163.746 60.621 167.288 60.764C166.76 61.358 166.298 62.029 165.946 62.744C165.495 63.624 165.198 64.559 165 65.483C164.901 65.945 164.835 66.407 164.791 66.869C164.769 67.1 164.747 67.331 164.736 67.551C164.725 67.782 164.714 68.002 164.714 68.233C164.703 69.135 164.758 70.015 164.835 70.884L164.868 71.203L164.901 71.511L164.967 72.116C165.011 72.512 165.033 72.908 165.055 73.293C165.099 74.063 165.099 74.811 164.989 75.504C164.879 76.197 164.648 76.835 164.285 77.418C163.922 78.001 163.427 78.54 162.866 79.035C162.305 79.53 161.689 79.959 161.051 80.267C160.413 80.575 159.742 80.762 159.115 80.784C158.488 80.795 157.905 80.619 157.454 80.278C157.003 79.937 156.695 79.42 156.563 78.804C156.497 78.496 156.464 78.188 156.497 77.88C156.508 77.726 156.541 77.583 156.574 77.44C156.607 77.297 156.662 77.154 156.728 77.011C156.849 76.736 157.025 76.461 157.245 76.219C157.355 76.098 157.465 75.977 157.586 75.867C157.652 75.812 157.707 75.757 157.773 75.713C157.806 75.691 157.839 75.669 157.861 75.647L157.927 75.603L157.982 75.559C158.444 75.24 158.576 74.613 158.279 74.129C157.971 73.634 157.311 73.48 156.816 73.788C156.761 73.821 156.739 73.832 156.706 73.865L156.618 73.92C156.563 73.964 156.508 73.997 156.464 74.041C156.365 74.118 156.266 74.206 156.167 74.283C155.98 74.448 155.804 74.635 155.628 74.822C155.298 75.207 155.001 75.636 154.781 76.12C154.561 76.604 154.418 77.132 154.363 77.66C154.308 78.199 154.352 78.727 154.451 79.233C154.55 79.739 154.737 80.256 155.012 80.729C155.287 81.202 155.65 81.631 156.09 81.983C156.519 82.324 157.025 82.588 157.542 82.753C158.059 82.918 158.598 82.995 159.115 82.995C160.16 83.006 161.139 82.731 162.019 82.335C162.899 81.939 163.68 81.411 164.384 80.828C165.088 80.245 165.759 79.552 166.309 78.738C166.859 77.924 167.255 76.978 167.486 76.032C167.717 75.086 167.794 74.151 167.816 73.249C167.827 72.798 167.816 72.358 167.805 71.929L167.783 71.28L167.75 70.664C167.728 70.257 167.717 69.861 167.717 69.465C167.717 69.069 167.728 68.684 167.739 68.299C167.75 67.914 167.783 67.529 167.816 67.166C167.849 66.792 167.904 66.429 167.97 66.066C168.102 65.351 168.311 64.68 168.608 64.064C168.905 63.448 169.29 62.876 169.763 62.37C170.192 61.897 170.698 61.49 171.259 61.116C173.217 61.38 175.351 61.809 177.617 62.48C177.287 62.887 176.957 63.294 176.649 63.712C176.418 64.031 176.187 64.35 175.967 64.68C175.747 65.01 175.538 65.351 175.329 65.692C174.922 66.385 174.548 67.111 174.229 67.881C173.91 68.651 173.646 69.476 173.514 70.378C173.371 71.269 173.36 72.259 173.613 73.249C173.646 73.37 173.679 73.491 173.723 73.623C173.767 73.744 173.811 73.865 173.855 73.986C173.954 74.206 174.042 74.426 174.163 74.646C174.383 75.086 174.68 75.504 175.021 75.889C175.362 76.274 175.747 76.604 176.154 76.879C176.561 77.154 176.979 77.374 177.397 77.55C178.233 77.902 179.014 78.1 179.729 78.287C180.444 78.474 181.093 78.65 181.632 78.892C182.171 79.134 182.578 79.453 182.897 79.893C183.051 80.113 183.183 80.366 183.304 80.63C183.414 80.905 183.491 81.202 183.557 81.51C183.678 82.137 183.711 82.808 183.678 83.501C183.645 84.194 183.546 84.887 183.403 85.591C183.37 85.745 183.337 85.888 183.304 86.042C183.414 86.02 183.513 85.998 183.623 85.987C183.755 85.954 183.898 85.943 184.03 85.943C184.151 85.943 184.272 85.954 184.382 85.976C184.591 85.91 184.8 85.877 185.02 85.877C185.108 85.877 185.196 85.888 185.273 85.888C185.471 85.173 185.636 84.447 185.735 83.699C185.79 83.292 185.823 82.885 185.834 82.467C185.845 82.049 185.834 81.62 185.79 81.191C185.735 80.762 185.658 80.322 185.526 79.882C185.394 79.442 185.207 79.013 184.965 78.595C184.723 78.177 184.415 77.792 184.063 77.451C183.711 77.11 183.326 76.824 182.941 76.582C182.16 76.098 181.379 75.79 180.664 75.504C179.96 75.218 179.3 74.965 178.772 74.679C178.233 74.393 177.826 74.085 177.518 73.711C177.441 73.623 177.364 73.524 177.287 73.425C177.221 73.315 177.155 73.216 177.089 73.106C177.023 72.996 176.968 72.875 176.913 72.754L176.847 72.589L176.792 72.424C176.649 71.962 176.616 71.412 176.671 70.818C176.726 70.224 176.88 69.597 177.078 68.959C177.287 68.321 177.551 67.683 177.848 67.045C178.453 65.769 179.179 64.526 179.971 63.294C179.982 63.283 179.982 63.272 179.993 63.261C182.028 63.976 184.041 64.746 185.999 65.571C185.911 65.989 185.834 66.418 185.79 66.858C185.779 67.001 185.757 67.133 185.746 67.276L185.724 67.705C185.713 67.848 185.713 67.991 185.713 68.134C185.713 68.277 185.713 68.42 185.713 68.574C185.724 69.157 185.79 69.762 185.933 70.367C185.999 70.675 186.087 70.983 186.197 71.28L186.384 71.731C186.417 71.808 186.45 71.885 186.494 71.951L186.615 72.171C186.934 72.765 187.363 73.326 187.891 73.788C188.43 74.239 189.013 74.58 189.662 74.822C190.311 75.053 191.004 75.152 191.664 75.141C192.324 75.13 192.962 75.02 193.545 74.844C194.128 74.668 194.678 74.437 195.184 74.184C195.701 73.931 196.185 73.645 196.636 73.337C197.098 73.029 197.527 72.699 197.934 72.347C197.989 72.303 198.055 72.248 198.11 72.193C199.045 72.897 199.925 73.634 200.717 74.382C200.497 74.591 200.277 74.822 200.068 75.042C199.903 75.24 199.727 75.427 199.573 75.636L199.331 75.944C199.254 76.043 199.177 76.153 199.1 76.252C199.023 76.362 198.957 76.461 198.88 76.571C198.803 76.681 198.737 76.791 198.671 76.901C198.539 77.121 198.396 77.341 198.275 77.583C198.022 78.045 197.802 78.529 197.615 79.013L197.483 79.387C197.439 79.508 197.395 79.64 197.362 79.761C197.296 80.014 197.219 80.267 197.153 80.531C197.098 80.795 197.054 81.048 196.999 81.312C196.966 81.576 196.933 81.84 196.911 82.093C196.834 83.138 196.922 84.194 197.131 85.195C197.186 85.448 197.252 85.69 197.318 85.932L197.417 86.295L197.538 86.658L197.769 87.373L198.044 88.066C198.649 89.562 199.43 90.937 200.321 92.213C200.42 92.07 200.53 91.949 200.662 91.828C200.75 91.443 200.959 91.091 201.234 90.816C201.322 90.695 201.421 90.585 201.52 90.486L201.179 89.749L200.948 89.144L200.827 88.836L200.772 88.682L200.728 88.528L200.53 87.912C200.497 87.813 200.464 87.714 200.431 87.604L200.354 87.296L200.211 86.68C200.178 86.471 200.145 86.262 200.112 86.064L200.068 85.756L200.046 85.448C200.035 85.239 200.013 85.041 200.002 84.832C199.98 84.018 200.046 83.226 200.156 82.456C200.376 80.916 200.937 79.453 201.828 78.133C202.147 77.649 202.499 77.198 202.895 76.758C203.39 77.396 203.841 78.056 204.215 78.727V78.683ZM194.216 71.929C193.798 72.072 193.369 72.171 192.962 72.215C192.555 72.259 192.17 72.237 191.818 72.171C191.466 72.105 191.147 71.984 190.861 71.841C190.575 71.687 190.289 71.478 190.058 71.28C189.816 71.071 189.629 70.818 189.431 70.532L189.365 70.422C189.343 70.389 189.321 70.345 189.299 70.312C189.255 70.235 189.222 70.147 189.178 70.07C189.112 69.894 189.035 69.729 188.98 69.531C188.859 69.157 188.771 68.75 188.716 68.321C188.661 67.892 188.617 67.441 188.617 66.99C188.617 66.891 188.617 66.792 188.617 66.693C191.4 67.98 194.007 69.388 196.317 70.917C195.624 71.324 194.92 71.687 194.216 71.929Z" fill="#FECE2F"/>
<path d="M192.423 96.558C192.291 96.525 192.17 96.481 192.038 96.448C191.906 96.426 191.774 96.393 191.642 96.371C191.576 96.36 191.51 96.349 191.444 96.349L191.235 96.327C191.169 96.327 191.103 96.316 191.026 96.316H190.817C190.267 96.327 189.717 96.437 189.189 96.613C188.672 96.789 188.177 97.031 187.737 97.328C187.627 97.405 187.517 97.482 187.418 97.559C187.319 97.636 187.209 97.713 187.11 97.801C187.011 97.889 186.912 97.966 186.813 98.065C186.714 98.153 186.626 98.241 186.538 98.34C186.362 98.527 186.186 98.725 186.032 98.923C185.955 99.022 185.878 99.132 185.801 99.242C185.768 99.297 185.724 99.352 185.691 99.407C185.647 99.473 185.625 99.517 185.57 99.605L187.352 100.771C187.363 100.771 187.396 100.727 187.429 100.694L187.528 100.595C187.594 100.529 187.66 100.463 187.726 100.397C187.858 100.265 188.001 100.144 188.144 100.023C188.287 99.902 188.441 99.792 188.584 99.682C188.661 99.627 188.738 99.572 188.815 99.528C188.892 99.473 188.969 99.429 189.046 99.385C189.354 99.198 189.673 99.044 189.992 98.934C190.311 98.813 190.652 98.747 190.982 98.703C191.323 98.659 191.664 98.615 192.038 98.637C192.401 98.648 192.786 98.692 193.16 98.813C193.622 98.945 194.084 99.143 194.524 99.374C194.59 99.297 194.656 99.231 194.733 99.165C194.898 98.813 195.162 98.505 195.481 98.274C194.986 97.856 194.447 97.482 193.853 97.163C193.413 96.921 192.929 96.723 192.423 96.558Z" fill="#FECE2F"/>
<path d="M195.173 85.954C195.019 85.602 194.832 85.272 194.656 84.964C194.469 84.656 194.271 84.359 194.073 84.084C193.875 83.798 193.666 83.523 193.457 83.259C193.248 82.984 193.028 82.731 192.808 82.467C192.676 82.324 192.555 82.181 192.423 82.038C192.423 82.038 192.423 82.049 192.412 82.049C192.324 82.324 192.17 82.555 191.961 82.753C191.807 82.918 191.62 83.05 191.422 83.138C191.312 83.314 191.18 83.468 191.026 83.611C191.004 83.655 190.971 83.699 190.949 83.743C191.521 84.557 192.082 85.382 192.544 86.196C192.687 86.46 192.819 86.702 192.929 86.955C193.039 87.208 193.138 87.472 193.226 87.736C193.391 88.264 193.501 88.814 193.534 89.331C193.578 89.848 193.545 90.343 193.391 90.75C193.314 90.959 193.215 91.135 193.072 91.3C192.929 91.454 192.753 91.597 192.544 91.707C192.335 91.817 192.082 91.905 191.818 91.96C191.554 92.015 191.268 92.048 190.971 92.059C190.388 92.081 189.772 92.015 189.145 91.916H189.134C188.826 91.861 188.529 92.048 188.43 92.345C188.331 92.675 188.518 93.027 188.848 93.126C189.508 93.324 190.19 93.489 190.916 93.566C191.642 93.632 192.412 93.61 193.215 93.335C193.611 93.203 193.996 92.983 194.348 92.708C194.7 92.433 194.997 92.081 195.217 91.696C195.448 91.311 195.602 90.915 195.701 90.508C195.811 90.101 195.855 89.694 195.866 89.298C195.888 88.506 195.745 87.747 195.536 87.021C195.459 86.647 195.327 86.295 195.173 85.954Z" fill="#FECE2F"/>
<path d="M136.653 77.242C136.84 77.264 137.038 77.275 137.214 77.286L137.687 77.308L138.622 77.341C139.238 77.374 139.854 77.407 140.404 77.495C140.679 77.539 140.943 77.583 141.174 77.66C141.405 77.726 141.592 77.814 141.724 77.902C141.856 77.99 141.933 78.078 141.999 78.188C142.065 78.298 142.12 78.452 142.142 78.661C142.153 78.76 142.164 78.881 142.164 78.991C142.164 79.09 142.153 79.189 142.142 79.288C142.109 79.486 142.043 79.695 141.944 79.937C141.856 80.179 141.724 80.454 141.592 80.762C141.46 81.07 141.328 81.433 141.218 81.84C141.119 82.247 141.064 82.698 141.075 83.149C141.086 83.6 141.163 84.04 141.284 84.447C141.339 84.656 141.416 84.843 141.493 85.03L141.526 85.096L141.559 85.173L141.636 85.338C141.691 85.448 141.746 85.558 141.812 85.657C142.076 86.075 142.439 86.471 142.879 86.779C143.099 86.933 143.33 87.054 143.561 87.153C143.803 87.252 144.045 87.329 144.287 87.373C144.771 87.472 145.244 87.483 145.695 87.439C146.586 87.34 147.378 87.032 148.082 86.614C148.786 86.196 149.391 85.635 149.886 84.964C150.37 84.304 150.744 83.523 150.898 82.687C151.063 81.851 151.019 80.982 150.799 80.201C150.612 79.541 149.952 79.112 149.27 79.233C148.544 79.365 148.06 80.069 148.192 80.795L148.203 80.828C148.28 81.268 148.28 81.697 148.17 82.093C148.06 82.489 147.873 82.874 147.598 83.215C147.323 83.556 146.971 83.842 146.586 84.073C146.201 84.293 145.783 84.425 145.42 84.458C145.233 84.469 145.079 84.458 144.936 84.425C144.804 84.392 144.705 84.337 144.617 84.282C144.573 84.249 144.54 84.216 144.496 84.172C144.463 84.128 144.419 84.084 144.386 84.029C144.364 84.007 144.353 83.974 144.331 83.941L144.309 83.886L144.298 83.864L144.276 83.831C144.232 83.732 144.188 83.622 144.155 83.534C144.078 83.336 144.034 83.16 144.012 82.973C143.99 82.786 143.99 82.61 144.012 82.39C144.034 82.181 144.089 81.939 144.166 81.653C144.243 81.367 144.342 81.048 144.43 80.685C144.518 80.322 144.595 79.915 144.617 79.475C144.628 79.255 144.617 79.035 144.606 78.826C144.584 78.617 144.562 78.419 144.518 78.21C144.43 77.792 144.287 77.341 144.012 76.912C143.748 76.483 143.352 76.12 142.945 75.878C142.538 75.636 142.131 75.493 141.757 75.405C141.372 75.306 141.02 75.251 140.668 75.218C139.975 75.141 139.315 75.13 138.666 75.119L137.709 75.108L137.236 75.097C137.093 75.097 136.972 75.086 136.851 75.075C136.609 75.053 136.389 75.009 136.224 74.943C136.059 74.877 135.949 74.8 135.883 74.723C135.806 74.635 135.762 74.525 135.729 74.36C135.696 74.195 135.696 73.975 135.729 73.744C135.762 73.513 135.817 73.26 135.894 73.007C135.938 72.886 135.982 72.754 136.026 72.633C136.048 72.567 136.081 72.512 136.103 72.446L136.147 72.358L136.18 72.292L136.202 72.248C136.455 71.72 136.246 71.093 135.729 70.829C135.201 70.565 134.563 70.774 134.299 71.302L134.255 71.379L134.222 71.445L134.167 71.577C134.134 71.665 134.09 71.742 134.057 71.83C133.991 71.995 133.925 72.171 133.87 72.347C133.76 72.699 133.661 73.062 133.606 73.458C133.551 73.854 133.54 74.272 133.617 74.723C133.694 75.174 133.881 75.669 134.211 76.076C134.541 76.483 134.97 76.769 135.388 76.945C135.861 77.11 136.268 77.198 136.653 77.242Z" fill="#FECE2F"/>
<path d="M133.386 82.203C133.364 82.038 133.342 81.873 133.32 81.708C133.265 81.378 133.188 81.048 133.1 80.718C133.012 80.388 132.891 80.058 132.77 79.739C132.638 79.42 132.484 79.101 132.308 78.804C131.956 78.21 131.549 77.671 131.153 77.209C130.746 76.736 130.372 76.318 130.053 75.9C129.734 75.482 129.47 75.064 129.25 74.624C129.14 74.404 129.041 74.173 128.953 73.942C128.865 73.689 128.799 73.513 128.766 73.293C128.678 72.864 128.678 72.391 128.733 71.907C128.854 70.928 129.217 69.916 129.679 68.937C129.91 68.453 130.174 67.969 130.46 67.496C130.504 67.419 130.548 67.353 130.603 67.276C130.493 67.342 130.372 67.408 130.24 67.441C130.24 67.441 130.229 67.441 130.229 67.452C130.042 67.639 129.822 67.771 129.58 67.848C129.514 67.881 129.459 67.903 129.393 67.936C129.206 68.09 128.986 68.2 128.755 68.288C128.579 68.442 128.37 68.574 128.161 68.662C127.985 68.816 127.776 68.948 127.556 69.036C127.446 69.124 127.325 69.212 127.193 69.278C127.138 69.421 127.083 69.564 127.028 69.718C126.819 70.312 126.654 70.939 126.544 71.599C126.445 72.259 126.412 72.952 126.522 73.667C126.544 73.843 126.588 74.03 126.632 74.206C126.676 74.393 126.731 74.536 126.775 74.701C126.885 75.009 126.995 75.328 127.138 75.625C127.402 76.23 127.754 76.802 128.117 77.319C128.48 77.836 128.843 78.309 129.151 78.76C129.459 79.211 129.701 79.629 129.888 80.069C130.064 80.498 130.196 80.938 130.284 81.411C130.306 81.521 130.328 81.653 130.339 81.763C130.35 81.884 130.372 82.005 130.383 82.126C130.394 82.247 130.405 82.379 130.416 82.489C130.427 82.61 130.427 82.72 130.427 82.83C130.427 83.061 130.416 83.281 130.405 83.49C130.383 83.71 130.35 83.919 130.306 84.117C130.207 84.524 130.053 84.909 129.833 85.272C129.613 85.635 129.327 85.9649 128.997 86.2729C128.667 86.5809 128.271 86.8559 127.853 87.0979C127.644 87.2189 127.424 87.3289 127.204 87.4279C127.094 87.4829 126.984 87.5269 126.874 87.5709L126.709 87.6369L126.632 87.6699L126.599 87.6809C126.588 87.6809 126.577 87.6919 126.588 87.6919C125.873 87.8679 125.422 88.5939 125.598 89.3089C125.774 90.0239 126.5 90.4749 127.215 90.2989L127.369 90.2659L127.501 90.2329C127.589 90.2109 127.666 90.1889 127.754 90.1559C127.919 90.1009 128.073 90.0459 128.238 89.9909C128.557 89.8699 128.865 89.7379 129.162 89.5949C129.767 89.2979 130.35 88.9239 130.889 88.4729C131.164 88.2529 131.417 87.9999 131.659 87.7359C131.901 87.4719 132.121 87.1749 132.33 86.8779C132.737 86.2619 133.045 85.569 133.232 84.865C133.331 84.513 133.386 84.15 133.43 83.787C133.463 83.424 133.474 83.072 133.452 82.72C133.419 82.555 133.408 82.379 133.386 82.203Z" fill="#FECE2F"/>
<path d="M123.519 86.57L123.464 86.504L123.365 86.372C123.299 86.284 123.233 86.207 123.156 86.119C123.013 85.954 122.87 85.8 122.727 85.646C122.43 85.338 122.089 85.052 121.715 84.788C121.528 84.656 121.33 84.535 121.11 84.425C120.89 84.315 120.67 84.216 120.417 84.139C120.175 84.062 119.911 84.018 119.636 83.985C119.504 83.974 119.361 83.974 119.218 83.974C119.075 83.985 118.943 83.985 118.8 84.018C118.25 84.106 117.744 84.348 117.326 84.634C116.908 84.92 116.567 85.261 116.281 85.591C115.984 85.932 115.709 86.328 115.489 86.79C115.434 86.9 115.39 87.032 115.335 87.153C115.291 87.274 115.247 87.406 115.214 87.538C115.148 87.802 115.093 88.077 115.093 88.363C115.071 88.638 115.093 88.924 115.126 89.188C115.148 89.32 115.17 89.452 115.203 89.573L115.247 89.76L115.302 89.936C115.456 90.42 115.654 90.838 115.874 91.212C116.083 91.586 116.303 91.916 116.501 92.224L116.787 92.664C116.864 92.774 116.93 92.884 116.996 92.983C117.073 92.994 117.15 93.005 117.216 93.016C117.832 93.148 118.448 93.269 119.075 93.368C119.108 93.368 119.317 93.401 119.372 93.401C119.537 93.423 119.713 93.434 119.878 93.445C120.021 93.456 120.164 93.456 120.307 93.456C120.285 93.291 120.263 93.115 120.219 92.95C120.186 92.818 120.153 92.697 120.12 92.565C120.076 92.444 120.032 92.312 119.977 92.191C119.878 91.938 119.768 91.718 119.647 91.52C119.526 91.311 119.416 91.135 119.295 90.959C119.174 90.794 119.053 90.629 118.943 90.475C118.712 90.178 118.481 89.903 118.294 89.65C118.107 89.397 117.931 89.166 117.821 88.946C117.7 88.737 117.623 88.539 117.601 88.352C117.579 88.165 117.601 87.967 117.689 87.747C117.777 87.527 117.909 87.296 118.085 87.065C118.459 86.581 118.844 86.273 119.196 86.196C119.284 86.174 119.383 86.174 119.482 86.174C119.581 86.185 119.691 86.196 119.801 86.229C119.911 86.251 120.032 86.306 120.142 86.35C120.263 86.405 120.384 86.471 120.505 86.548C120.747 86.702 120.978 86.911 121.209 87.131C121.319 87.241 121.429 87.362 121.539 87.483C121.594 87.538 121.638 87.604 121.693 87.67L121.759 87.758L121.814 87.835L121.836 87.868C122.177 88.341 122.837 88.451 123.321 88.121C123.805 87.791 123.904 87.12 123.574 86.636L123.519 86.57Z" fill="#FECE2F"/>
<path d="M116.226 73.381C116.457 73.051 116.655 72.71 116.831 72.358C117.007 71.984 117.15 71.577 117.249 71.17C117.436 70.345 117.403 69.498 117.238 68.728C117.073 67.947 116.787 67.243 116.435 66.583C116.083 65.934 115.687 65.318 115.247 64.757C115.027 64.471 114.796 64.196 114.554 63.932C114.433 63.8 114.312 63.668 114.191 63.536L114.004 63.338L113.905 63.239L113.795 63.129C113.366 62.733 112.695 62.755 112.299 63.173C111.903 63.602 111.925 64.273 112.343 64.669L112.376 64.691L112.442 64.757L112.519 64.834L112.673 64.988C112.783 65.098 112.882 65.208 112.981 65.318C113.179 65.549 113.377 65.78 113.564 66.022C113.938 66.506 114.268 67.012 114.532 67.54C115.06 68.585 115.313 69.696 115.071 70.631C115.016 70.862 114.917 71.093 114.807 71.313C114.675 71.555 114.532 71.786 114.378 71.995C114.059 72.413 113.685 72.732 113.223 72.996C112.772 73.26 112.233 73.458 111.628 73.634L110.66 73.92C110.319 74.019 109.956 74.14 109.582 74.294C109.208 74.459 108.812 74.668 108.438 74.943C108.064 75.218 107.723 75.57 107.448 75.966C107.206 76.307 107.008 76.67 106.832 77.066C106.656 77.462 106.524 77.88 106.436 78.298C106.26 79.145 106.271 80.014 106.392 80.773C106.502 81.543 106.7 82.236 106.876 82.874C107.052 83.512 107.217 84.095 107.283 84.623C107.316 84.887 107.338 85.14 107.338 85.371C107.338 85.613 107.316 85.833 107.261 86.042C107.162 86.471 106.964 86.889 106.667 87.307C106.579 87.439 106.469 87.571 106.359 87.692C106.612 87.857 106.821 88.066 106.997 88.319C107.316 88.451 107.591 88.649 107.811 88.902C107.866 88.946 107.921 88.979 107.976 89.034C108.196 89.122 108.394 89.254 108.57 89.408C108.68 89.287 108.79 89.166 108.889 89.045C109.153 88.726 109.384 88.374 109.593 88C109.802 87.615 109.967 87.208 110.077 86.779C110.198 86.35 110.264 85.91 110.286 85.481C110.308 85.052 110.286 84.634 110.231 84.249C110.132 83.457 109.956 82.753 109.791 82.104C109.626 81.455 109.472 80.861 109.395 80.322C109.351 80.047 109.329 79.794 109.318 79.541C109.307 79.299 109.318 79.057 109.351 78.826C109.384 78.595 109.439 78.375 109.516 78.155C109.593 77.935 109.703 77.704 109.824 77.495C109.912 77.33 110.022 77.176 110.165 77.033C110.308 76.89 110.484 76.758 110.715 76.637C110.935 76.516 111.199 76.395 111.485 76.274C111.771 76.164 112.079 76.054 112.409 75.933C113.058 75.702 113.784 75.427 114.466 74.998C115.137 74.624 115.764 74.041 116.226 73.381Z" fill="#FECE2F"/>
<path d="M151.426 95.568C151.085 95.172 150.7 94.82 150.282 94.534C149.457 93.951 148.533 93.61 147.631 93.401C147.18 93.302 146.729 93.225 146.278 93.181C145.816 93.137 145.343 93.126 144.881 93.148C143.957 93.203 143.044 93.39 142.197 93.676C140.481 94.248 138.974 95.194 137.643 96.283C136.972 96.833 136.345 97.405 135.751 98.021C135.674 98.098 135.597 98.175 135.531 98.263C135.597 98.439 135.421 98.692 135.443 98.879C135.575 99.132 135.355 99.44 135.399 99.737C135.509 99.935 135.641 100.155 135.696 100.386C135.74 100.485 135.872 100.925 135.905 101.035C135.971 100.958 136.433 100.441 136.499 100.364C136.752 100.078 137.016 99.792 137.291 99.517C137.83 98.967 138.402 98.439 139.007 97.966C140.206 97.02 141.526 96.239 142.912 95.799C143.605 95.579 144.309 95.458 145.013 95.436C145.365 95.425 145.706 95.447 146.058 95.491C146.41 95.535 146.773 95.601 147.114 95.689C147.796 95.865 148.412 96.129 148.907 96.503C149.402 96.877 149.765 97.35 149.963 97.9C150.172 98.45 150.227 99.077 150.15 99.704C150.084 100.331 149.897 100.969 149.611 101.519C149.545 101.651 149.468 101.783 149.391 101.904L149.072 102.366C148.83 102.707 148.588 103.07 148.368 103.444C148.137 103.818 147.917 104.203 147.719 104.599C147.521 104.995 147.323 105.413 147.158 105.831C146.828 106.678 146.564 107.591 146.443 108.537C146.311 109.483 146.322 110.473 146.509 111.43C146.685 112.387 147.026 113.311 147.488 114.136C147.95 114.972 148.511 115.709 149.138 116.369C149.622 116.875 150.425 116.93 150.975 116.479C151.547 116.006 151.624 115.159 151.14 114.587C150.216 113.476 149.567 112.244 149.38 110.946C149.292 110.297 149.292 109.637 149.402 108.966C149.512 108.295 149.71 107.635 149.985 106.975C150.128 106.645 150.271 106.315 150.447 105.996C150.612 105.666 150.799 105.347 150.986 105.017C151.184 104.687 151.382 104.368 151.591 104.027L151.756 103.774L151.844 103.642C151.877 103.587 151.921 103.532 151.954 103.466C152.086 103.235 152.207 103.004 152.306 102.773C152.515 102.311 152.658 101.827 152.768 101.343C152.867 100.859 152.933 100.364 152.944 99.869C152.966 98.879 152.79 97.845 152.339 96.899C152.042 96.415 151.756 95.964 151.426 95.568Z" fill="#FECE2F"/>
<path d="M175.879 95.051C175.736 94.82 175.637 94.567 175.582 94.292C175.252 94.468 174.922 94.655 174.614 94.853C173.91 95.304 173.239 95.832 172.645 96.47C172.348 96.789 172.073 97.141 171.82 97.526L171.732 97.669C171.699 97.713 171.677 97.768 171.644 97.812L171.501 98.076L171.215 98.582C170.852 99.253 170.489 99.891 170.093 100.496C169.697 101.101 169.279 101.662 168.817 102.146C168.355 102.63 167.838 103.026 167.299 103.301C166.749 103.576 166.166 103.719 165.561 103.719C165.253 103.719 164.945 103.697 164.637 103.642C164.329 103.587 164.043 103.51 163.779 103.389C163.526 103.279 163.295 103.136 163.119 102.971C162.943 102.806 162.8 102.619 162.701 102.41C162.503 101.992 162.47 101.475 162.624 100.947C162.767 100.419 163.064 99.913 163.471 99.517C163.669 99.319 163.9 99.143 164.153 99C164.274 98.923 164.406 98.868 164.538 98.813C164.604 98.78 164.67 98.758 164.736 98.736L164.978 98.648C165.737 98.395 166.507 98.098 167.266 97.702C167.64 97.504 168.025 97.284 168.388 97.02C168.751 96.756 169.114 96.448 169.444 96.085C169.609 95.898 169.763 95.7 169.906 95.48C170.049 95.26 170.17 95.029 170.28 94.787C170.489 94.292 170.599 93.753 170.61 93.236C170.621 92.972 170.599 92.719 170.566 92.477C170.544 92.356 170.533 92.235 170.511 92.114C170.489 91.993 170.456 91.861 170.423 91.74C170.28 91.245 170.06 90.772 169.785 90.354C169.224 89.496 168.432 88.847 167.574 88.418C166.705 87.989 165.759 87.758 164.813 87.725C163.867 87.692 162.921 87.846 162.052 88.154C161.172 88.462 160.369 88.924 159.654 89.474C159.302 89.749 158.961 90.046 158.653 90.365C158.345 90.673 158.037 91.025 157.773 91.388C157.234 92.103 156.805 92.873 156.464 93.654C155.771 95.227 155.408 96.888 155.254 98.549C155.111 100.21 155.199 101.871 155.474 103.499C155.749 105.127 156.222 106.711 156.871 108.207C157.52 109.714 158.334 111.133 159.28 112.453C160.237 113.773 161.315 114.983 162.503 116.072C163.031 116.556 163.856 116.545 164.362 116.028C164.879 115.5 164.879 114.653 164.351 114.125C163.317 113.113 162.382 112.013 161.579 110.836C160.765 109.659 160.083 108.405 159.544 107.085C159.016 105.776 158.62 104.401 158.4 103.015C158.18 101.629 158.125 100.21 158.268 98.824C158.4 97.438 158.708 96.085 159.236 94.853C159.5 94.237 159.797 93.654 160.171 93.137C160.358 92.873 160.545 92.642 160.765 92.411C160.985 92.18 161.216 91.96 161.458 91.762C161.942 91.366 162.47 91.036 163.031 90.816C163.592 90.596 164.175 90.475 164.758 90.475C165.341 90.464 165.924 90.585 166.43 90.805C166.947 91.036 167.387 91.377 167.684 91.784C167.838 91.993 167.948 92.213 168.025 92.455C168.058 92.576 168.091 92.697 168.113 92.829C168.135 92.961 168.146 93.093 168.146 93.214C168.146 93.456 168.113 93.676 168.025 93.896C167.948 94.105 167.816 94.325 167.64 94.523C167.288 94.93 166.76 95.304 166.166 95.623C165.572 95.942 164.912 96.217 164.23 96.448L163.933 96.558C163.823 96.602 163.713 96.646 163.603 96.69C163.383 96.789 163.174 96.899 162.965 97.02C162.558 97.262 162.173 97.559 161.843 97.9C161.172 98.582 160.666 99.429 160.424 100.386C160.303 100.859 160.248 101.365 160.281 101.882C160.314 102.399 160.446 102.916 160.688 103.4C160.919 103.884 161.26 104.313 161.645 104.654C162.041 104.995 162.481 105.259 162.921 105.446C163.372 105.633 163.823 105.754 164.263 105.831C164.703 105.908 165.154 105.941 165.616 105.93C166.54 105.908 167.475 105.677 168.289 105.259C169.114 104.841 169.807 104.269 170.39 103.653C170.984 103.026 171.468 102.355 171.908 101.673C172.348 100.991 172.733 100.298 173.096 99.627L173.371 99.132L173.503 98.89C173.525 98.846 173.547 98.813 173.569 98.78L173.624 98.681C173.789 98.417 173.987 98.164 174.207 97.933C174.647 97.46 175.186 97.031 175.769 96.657C175.912 96.558 176.066 96.47 176.22 96.382C176.132 96.151 176.077 95.909 176.055 95.656C175.967 95.458 175.912 95.26 175.879 95.051Z" fill="#FECE2F"/>
<path d="M161.161 58.883C161.161 58.883 160.259 67.496 152.449 69.806C144.639 72.116 139.469 63.481 139.469 63.481L144.309 61.556L144.254 53.086C144.254 53.086 145.794 53.856 147.664 53.251C149.534 52.646 151.074 51.656 151.074 51.656L152.614 56.441L153.989 59.576L161.161 58.883Z" fill="#FECE2F"/>
<path d="M153.384 44.066C153.384 44.066 156.904 43.571 156.409 40.711C155.914 37.851 152.614 40.491 152.614 40.491L145.244 39.116L139.469 43.571L139.084 44.726C139.084 44.726 136.224 44.506 136.114 47.036C136.004 49.566 138.699 49.071 139.634 48.191C139.634 48.191 140.789 52.206 144.254 53.086C147.719 53.966 149.644 52.481 149.644 52.481C149.644 52.481 152.449 50.336 153.109 47.916C153.769 45.496 153.384 44.066 153.384 44.066Z" fill="#FECE2F"/>
<path d="M118.789 53.5809L120.989 49.456L123.684 49.786L125.356 49.368C125.356 49.368 123.354 45.408 123.926 45.166C124.498 44.924 127.226 47.564 127.226 47.564C127.226 47.564 128.381 49.302 128.304 50.534C128.227 51.766 127.149 54.4719 127.072 54.6259C126.995 54.7799 125.697 57.1009 125.697 57.1009L121.605 55.6709L118.789 53.5809Z" fill="#FECE2F"/>
<path d="M122.584 42.284C122.716 42.119 124.322 38.929 124.696 39.116C125.07 39.303 124.718 41.426 124.718 41.426C124.718 41.426 125.796 40.854 126.016 41.646C126.016 41.646 126.874 41.206 127.138 41.811C127.138 41.811 128.436 42.229 128.513 42.416C128.59 42.603 129.558 43.791 129.591 44.088C129.624 44.385 129.591 46.783 129.316 46.783C129.041 46.783 128.271 44.473 128.271 44.473L127.809 43.923C127.809 43.923 127.589 46.651 127.171 46.651C126.753 46.651 126.291 45.606 126.291 45.606C126.291 45.606 126.049 46.266 125.906 46.178C125.763 46.09 125.191 45.21 125.224 45.1C125.257 44.99 124.872 42.878 124.872 42.878L122.584 42.284Z" fill="#FECE2F"/>
<path d="M180.741 98.813L175.714 102.971C175.714 102.971 171.446 106.436 171.787 107.096C172.128 107.756 176.099 105.171 176.099 105.171C176.099 105.171 171.611 109.45 172.117 109.769C172.634 110.088 175.241 108.526 175.241 108.526C175.241 108.526 173.58 109.934 174.097 110.253C174.614 110.561 179.124 108.284 179.124 108.284C179.124 108.284 176.726 110.726 177.034 110.99C177.342 111.254 179.212 110.319 180.532 109.329C181.852 108.339 183.502 107.437 183.502 107.437C183.502 107.437 185.207 106.447 185.372 105.699C185.372 105.699 183.887 104.599 182.842 103.004C181.797 101.409 180.741 98.813 180.741 98.813Z" fill="#FECE2F"/>
<path d="M185.559 105.413C185.394 105.325 185.196 105.38 185.108 105.545C184.514 106.612 183.568 107.129 182.369 107.778C182.16 107.888 181.951 107.998 181.731 108.119C181.357 108.328 180.84 108.691 180.246 109.098C179.432 109.659 177.793 110.803 177.287 110.836C177.408 110.594 177.914 110.077 178.277 109.725C178.739 109.274 179.256 108.757 179.608 108.251C180.037 107.998 180.323 107.822 180.323 107.822C180.477 107.723 180.521 107.525 180.433 107.371C180.334 107.217 180.136 107.173 179.982 107.261C179.971 107.272 178.695 108.064 177.331 108.79C175.142 109.967 174.46 110.055 174.273 110.044C174.339 109.813 174.779 109.296 175.285 108.856C175.461 108.746 175.626 108.647 175.791 108.559C176.913 107.877 178.464 106.821 178.904 106.513C179.058 106.414 179.091 106.205 178.992 106.051C178.893 105.897 178.684 105.864 178.53 105.963C178.09 106.271 176.561 107.316 175.45 107.987C175.34 108.053 175.219 108.119 175.109 108.185C175.054 108.196 175.01 108.218 174.966 108.251C174.944 108.273 174.911 108.295 174.889 108.317C174.757 108.394 174.636 108.471 174.504 108.559C173.723 109.043 172.656 109.714 172.293 109.626H172.282C172.425 109.043 174.746 106.843 176.891 105.083C176.924 105.05 176.957 105.017 176.968 104.984C177.089 104.907 177.199 104.83 177.287 104.775C177.441 104.676 177.474 104.467 177.375 104.313C177.276 104.159 177.067 104.126 176.913 104.225C174.482 105.875 172.557 106.887 171.941 107.008C172.04 106.81 172.37 106.359 173.404 105.435C174.306 104.621 175.406 103.752 176.286 103.048C176.495 102.883 176.693 102.718 176.869 102.575C178.552 101.211 180.972 99.176 180.994 99.165C181.137 99.044 181.148 98.835 181.038 98.703C180.917 98.56 180.708 98.549 180.576 98.659C180.554 98.681 178.134 100.705 176.451 102.069C176.275 102.212 176.077 102.366 175.868 102.542C171.908 105.71 170.885 106.81 171.325 107.459C171.38 107.536 171.479 107.635 171.666 107.679C171.699 107.69 171.743 107.69 171.787 107.69C172.216 107.69 172.975 107.36 173.8 106.931C172.513 108.13 171.347 109.329 171.677 109.934C171.776 110.11 171.93 110.231 172.128 110.286C172.194 110.308 172.271 110.308 172.359 110.308C172.722 110.308 173.162 110.132 173.657 109.857C173.613 109.967 173.602 110.044 173.602 110.088C173.591 110.264 173.657 110.418 173.778 110.539C173.888 110.638 174.031 110.715 174.284 110.715C174.779 110.715 175.681 110.429 177.496 109.461C177.595 109.406 177.694 109.362 177.782 109.307C176.957 110.121 176.374 110.726 176.715 111.232C176.803 111.364 176.946 111.452 177.111 111.485C177.155 111.496 177.21 111.496 177.254 111.496C177.936 111.496 179.047 110.748 180.642 109.648C181.203 109.263 181.731 108.889 182.072 108.702C182.292 108.581 182.501 108.471 182.699 108.361C183.942 107.69 185.02 107.107 185.702 105.864C185.779 105.699 185.713 105.501 185.559 105.413Z" fill="#212121"/>
<path d="M129.921 45.089L129.91 44.781C129.877 43.615 129.547 43.186 129.008 42.493L128.986 42.471C128.37 41.679 127.743 41.668 127.424 41.734C127.325 41.591 127.215 41.459 127.083 41.36C126.676 41.019 126.247 41.096 125.939 41.25C125.631 40.997 125.279 40.964 124.96 41.019C125.323 39.633 125.202 39.237 125.026 39.028C124.894 38.874 124.707 38.797 124.52 38.83C123.772 38.951 122.837 40.986 122.342 42.196C122.276 42.361 122.353 42.559 122.518 42.625C122.683 42.691 122.881 42.614 122.947 42.449C123.497 41.107 124.19 39.842 124.531 39.545C124.575 39.963 124.267 41.239 123.794 42.504C123.728 42.68 123.816 42.867 123.992 42.933C124.025 42.944 124.069 42.955 124.102 42.955C124.234 42.955 124.366 42.867 124.41 42.735C124.421 42.713 124.564 42.317 124.729 41.8C124.894 41.712 125.334 41.503 125.62 41.888C126.049 42.46 126.126 45.188 125.862 45.738C125.62 45.474 125.345 44.198 125.279 42.9C125.268 42.713 125.114 42.581 124.927 42.592C124.74 42.603 124.608 42.757 124.619 42.933C124.685 44.242 124.938 46.431 125.895 46.431H125.906C125.983 46.431 126.093 46.409 126.214 46.321C126.302 46.541 126.434 46.75 126.599 46.882C126.753 47.003 126.929 47.069 127.116 47.069C127.149 47.069 127.171 47.069 127.204 47.069C127.908 46.992 128.062 45.65 128.04 44.737C128.073 44.803 128.095 44.858 128.106 44.913C128.15 45.089 128.194 45.254 128.238 45.408C128.535 46.563 128.678 47.102 129.272 47.102C129.283 47.102 129.283 47.102 129.294 47.102C129.503 47.102 129.624 47.003 129.701 46.926C129.965 46.64 129.954 46.189 129.921 45.089ZM127.127 46.398C126.973 46.376 126.852 46.09 126.808 45.958C126.698 45.639 126.665 45.309 126.654 45.298C126.654 45.287 126.654 45.276 126.643 45.265C126.775 44.198 126.643 42.581 126.324 41.778C126.423 41.745 126.544 41.745 126.654 41.844C127.083 42.207 127.303 43.021 127.38 44.561C127.446 45.617 127.237 46.266 127.127 46.398ZM129.25 46.376C129.151 46.211 129.03 45.727 128.887 45.221C128.843 45.067 128.81 44.902 128.755 44.726C128.623 44.231 128.095 43.593 127.941 43.417C127.886 42.999 127.809 42.647 127.71 42.361C127.886 42.383 128.161 42.493 128.458 42.867L128.48 42.889C128.986 43.538 129.217 43.835 129.239 44.792L129.25 45.1C129.283 45.65 129.294 46.167 129.25 46.376Z" fill="#212121"/>
<path d="M155.738 41.58C155.54 41.019 155.243 40.678 154.836 40.546C154.264 40.37 153.769 40.722 153.714 40.766C153.571 40.876 153.538 41.085 153.648 41.228C153.758 41.371 153.967 41.404 154.11 41.294C154.11 41.294 154.363 41.118 154.594 41.162L153.802 42.306C153.703 42.46 153.736 42.658 153.89 42.768C153.945 42.812 154.011 42.823 154.077 42.823C154.187 42.823 154.286 42.768 154.352 42.68L155.067 41.646C155.089 41.701 155.111 41.745 155.122 41.789C155.166 41.921 155.298 42.009 155.43 42.009C155.463 42.009 155.507 41.998 155.54 41.987C155.705 41.943 155.793 41.745 155.738 41.58Z" fill="#212121"/>
<path d="M138.468 46.827L137.885 46.244C137.995 46.145 138.083 46.09 138.116 46.079C138.281 46.002 138.358 45.815 138.281 45.65C138.204 45.485 138.017 45.408 137.841 45.485C137.379 45.694 136.598 46.442 136.983 47.817C137.027 47.96 137.159 48.059 137.302 48.059C137.335 48.059 137.357 48.059 137.39 48.048C137.566 48.004 137.665 47.817 137.621 47.641C137.533 47.322 137.533 47.069 137.566 46.86L138.006 47.3C138.072 47.366 138.16 47.399 138.237 47.399C138.314 47.399 138.402 47.366 138.468 47.3C138.6 47.168 138.6 46.959 138.468 46.827Z" fill="#212121"/>
<path d="M150.205 42.878C149.93 42.878 149.611 42.933 149.281 43.065C148.39 43.417 147.939 44.088 148.093 44.473C148.192 44.726 148.511 44.814 148.687 44.847C149.05 44.913 149.501 44.847 149.919 44.682C150.81 44.33 151.261 43.659 151.107 43.274C151.019 43.043 150.667 42.878 150.205 42.878Z" fill="#F1F1F1"/>
<path d="M151.723 43.043C151.404 42.24 150.227 41.987 149.039 42.46C147.851 42.933 147.158 43.923 147.477 44.726C147.642 45.133 148.027 45.408 148.566 45.507C148.698 45.529 148.841 45.54 148.984 45.54C149.358 45.54 149.765 45.463 150.15 45.309C151.349 44.836 152.042 43.835 151.723 43.043ZM149.919 44.693C149.501 44.858 149.05 44.924 148.687 44.858C148.511 44.825 148.192 44.737 148.093 44.484C147.939 44.099 148.39 43.428 149.281 43.076C149.38 43.032 149.479 43.01 149.578 42.977C149.424 43.252 149.38 43.538 149.479 43.791C149.622 44.143 149.996 44.352 150.491 44.396C150.315 44.506 150.139 44.605 149.919 44.693Z" fill="#212121"/>
<path d="M143.33 45.518C143.055 45.518 142.736 45.573 142.406 45.705C141.515 46.057 141.064 46.728 141.218 47.113C141.317 47.366 141.636 47.454 141.812 47.487C142.175 47.553 142.626 47.487 143.044 47.322C143.935 46.97 144.386 46.299 144.232 45.914C144.144 45.683 143.792 45.518 143.33 45.518Z" fill="#F1F1F1"/>
<path d="M144.848 45.683C144.529 44.88 143.352 44.627 142.164 45.1C140.976 45.573 140.283 46.563 140.602 47.366C140.767 47.773 141.152 48.048 141.691 48.147C141.823 48.169 141.966 48.18 142.109 48.18C142.483 48.18 142.89 48.103 143.275 47.949C144.474 47.476 145.167 46.475 144.848 45.683ZM143.044 47.333C142.626 47.498 142.175 47.564 141.812 47.498C141.636 47.465 141.317 47.377 141.218 47.124C141.064 46.739 141.515 46.068 142.406 45.716C142.461 45.694 142.527 45.672 142.582 45.65C142.428 45.925 142.395 46.2 142.494 46.453C142.637 46.816 143.055 47.025 143.583 47.058C143.418 47.157 143.242 47.245 143.044 47.333Z" fill="#212121"/>
<path d="M146.278 47.773C146.113 47.773 145.97 47.641 145.948 47.476C145.926 47.3 146.058 47.135 146.245 47.113C146.74 47.069 147.015 46.849 147.026 46.662C147.037 46.519 146.839 46.31 146.399 46.222C146.058 46.156 145.783 45.969 145.618 45.705C145.299 45.166 145.475 44.473 145.497 44.396C145.552 44.22 145.728 44.121 145.904 44.165C146.08 44.22 146.179 44.396 146.135 44.572C146.102 44.704 146.036 45.111 146.179 45.353C146.245 45.463 146.355 45.54 146.52 45.573C147.07 45.683 147.708 46.046 147.675 46.695C147.653 47.168 147.213 47.685 146.3 47.773C146.3 47.773 146.289 47.773 146.278 47.773Z" fill="#212121"/>
<path d="M148.372 49.9066C148.591 49.2113 148.422 48.5381 147.993 48.4029C147.564 48.2677 147.039 48.7218 146.82 49.417C146.6 50.1123 146.77 50.7855 147.199 50.9207C147.628 51.0559 148.153 50.6019 148.372 49.9066Z" fill="#212121"/>
<path d="M133.199 44.198C133.177 44.055 133.067 43.934 132.924 43.912L129.459 43.318C129.283 43.285 129.107 43.406 129.074 43.582C129.041 43.758 129.162 43.934 129.338 43.967L132.55 44.517C132.583 45.034 132.627 46.332 132.319 47.74C131.923 49.522 131.395 50.534 131.164 50.908L128.524 50.38C128.348 50.347 128.172 50.457 128.139 50.633C128.106 50.809 128.216 50.985 128.392 51.018L131.252 51.59C131.274 51.59 131.296 51.601 131.318 51.601C131.417 51.601 131.516 51.557 131.582 51.469C131.615 51.425 132.418 50.347 132.957 47.872C133.408 45.947 133.21 44.264 133.199 44.198Z" fill="#212121"/>
<path d="M125.026 42.57L120.923 41.844C120.901 41.833 120.868 41.833 120.846 41.822C120.824 41.822 120.802 41.822 120.791 41.811H120.78C120.747 41.8 120.703 41.811 120.67 41.811C120.659 41.811 120.659 41.811 120.648 41.811C119.746 41.91 119.009 43.582 118.723 45.32C118.569 46.266 118.547 47.19 118.668 47.916C118.844 48.972 119.273 49.269 119.603 49.324L124.069 50.16C124.091 50.16 124.113 50.171 124.135 50.171C124.289 50.171 124.432 50.061 124.454 49.907C124.487 49.731 124.366 49.555 124.19 49.522L120.593 48.851C120.714 48.708 120.835 48.532 120.956 48.301C121.308 47.663 121.583 46.783 121.737 45.826C121.891 44.88 121.913 43.956 121.792 43.23C121.748 42.988 121.704 42.801 121.638 42.625L124.916 43.208C124.938 43.208 124.96 43.208 124.971 43.208C125.125 43.208 125.268 43.098 125.301 42.933C125.323 42.779 125.213 42.603 125.026 42.57ZM121.132 43.351C121.242 44 121.22 44.847 121.077 45.727C120.934 46.607 120.681 47.41 120.362 47.993C120.065 48.532 119.812 48.708 119.702 48.686C119.603 48.664 119.405 48.422 119.306 47.817C119.196 47.168 119.218 46.321 119.361 45.441C119.669 43.571 120.384 42.493 120.703 42.482L120.758 42.493C120.868 42.537 121.044 42.79 121.132 43.351Z" fill="#212121"/>
<path d="M184.173 107.063C183.997 107.041 183.821 107.162 183.799 107.349C183.799 107.371 183.799 107.404 183.799 107.426C183.579 107.503 183.293 107.613 183.227 107.657C183.117 107.734 180.521 109.329 180.521 109.329C180.521 109.329 182.083 113.19 182.083 113.333C182.083 113.454 183.843 116.919 184.36 117.931C177.661 118.613 169.631 118.91 161.216 118.745C154.011 118.613 147.103 118.162 141.075 117.447L139.128 112.871L137.28 107.019C137.423 106.975 137.522 106.832 137.511 106.667C137.489 106.491 137.324 106.359 137.148 106.37C132.429 106.898 128.524 107.613 125.84 108.46C122.859 109.395 121.396 110.451 121.374 111.672C121.33 114.18 127.765 115.918 133.166 116.919C140.646 118.316 150.612 119.196 161.216 119.394C162.723 119.427 164.208 119.438 165.682 119.438C174.603 119.438 182.875 118.932 189.343 117.964C194.788 117.15 201.278 115.665 201.322 113.157C201.388 109.901 190.608 107.943 184.173 107.063Z" fill="#212121"/>
<path d="M182.578 113.289C181.731 111.463 180.829 109.417 180.818 109.395C180.741 109.23 180.554 109.153 180.378 109.23C180.213 109.307 180.136 109.494 180.213 109.67C180.224 109.692 181.126 111.749 181.973 113.586C183.568 117.007 184.206 118.36 184.206 118.371C184.261 118.492 184.382 118.558 184.503 118.558C184.547 118.558 184.602 118.547 184.646 118.525C184.811 118.448 184.877 118.25 184.8 118.085C184.811 118.052 184.173 116.71 182.578 113.289Z" fill="#212121"/>
<path d="M203.39 75.922C199.419 68.849 188.199 62.139 176.11 59.587C170.335 58.377 165.187 58.256 161.304 58.476C161.271 58.465 161.238 58.454 161.205 58.443C161.117 58.432 161.04 58.454 160.974 58.498C157.454 58.729 155.045 59.224 154.242 59.411L151.239 51.634C151.976 50.886 152.669 49.852 153.197 48.444C153.923 46.486 153.868 45.034 153.769 44.363C155.452 44.165 156.497 42.988 156.772 41.921C157.036 40.887 156.651 39.93 155.771 39.402C154.55 38.676 153.23 39.545 152.603 40.073C152.35 39.501 151.789 38.544 150.645 37.675C153.131 36.597 154.451 33.946 155.133 32.582C155.782 31.284 156.101 28.919 155.43 27.071C154.99 25.861 154.187 24.992 153.065 24.508C151.591 23.87 150.073 23.881 148.665 24.541C146.795 25.41 145.332 27.324 144.551 29.92C143.616 33.011 144.232 34.98 144.815 36.003C143.055 36.157 141.306 36.773 139.975 37.378C137.731 38.39 135.982 39.633 135.575 40.15C135.487 40.271 135.476 40.425 135.564 40.546C135.641 40.656 137.159 42.724 139.095 43.626C139.04 43.857 138.985 44.099 138.952 44.352C138.083 44.264 136.708 44.495 136.037 45.881C135.553 46.882 135.773 48.048 136.554 48.73C136.95 49.071 137.434 49.247 137.962 49.247C138.457 49.247 138.985 49.093 139.524 48.796C140.404 51.007 141.779 52.503 143.627 53.229C143.682 53.251 143.748 53.273 143.803 53.295L143.913 56.386C143.913 56.463 143.913 56.54 143.913 56.617C143.913 56.65 143.924 56.683 143.924 56.716L144.089 61.369C142.307 61.952 135.399 64.295 130.075 67.375C125.906 69.784 122.419 72.248 120.131 73.964L118.085 75.405C119.317 72.215 121.539 68.079 122.661 66L127.402 57.2C127.468 57.123 127.501 57.035 127.512 56.947V56.936C127.512 56.925 127.512 56.925 127.512 56.914C127.512 56.76 127.435 56.375 126.742 55.924C127.38 54.802 127.952 53.526 128.37 52.536C128.887 51.293 128.854 49.907 128.293 48.741C128.183 48.521 128.062 48.323 127.93 48.136C127.622 47.707 125.301 44.88 124.201 44.803C123.948 44.781 123.794 44.891 123.706 44.979C123.453 45.243 123.31 45.76 124.168 47.641C124.443 48.235 124.74 48.796 124.927 49.148C124.41 49.313 123.585 49.676 123.266 50.325C123.189 50.49 123.255 50.688 123.42 50.765C123.585 50.842 123.783 50.776 123.86 50.611C124.124 50.083 125.125 49.753 125.488 49.676C125.587 49.654 125.675 49.588 125.719 49.489C125.763 49.39 125.752 49.28 125.708 49.192C124.762 47.553 124.069 45.848 124.179 45.463C124.289 45.485 124.696 45.617 125.708 46.607C126.379 47.278 127.083 48.092 127.402 48.521C127.512 48.675 127.611 48.84 127.71 49.027C128.194 50.028 128.216 51.216 127.776 52.283C127.325 53.372 126.445 55.352 125.521 56.661C124.85 56.54 123.97 56.298 122.947 55.891C120.747 55.022 119.581 53.867 119.218 53.471C119.427 53.152 120.45 51.513 121.198 49.654C121.264 49.489 121.187 49.291 121.011 49.225C120.846 49.159 120.648 49.236 120.582 49.412C119.801 51.37 118.646 53.152 118.635 53.163C118.602 53.207 118.591 53.262 118.58 53.317C118.58 53.317 118.58 53.328 118.569 53.328L118.558 53.339C118.536 53.372 116.083 57.046 113.212 60.005L112.783 60.445C107.173 66.187 102.333 71.148 101.607 76.472C101.101 80.168 102.322 83.721 105.149 86.746C107.668 89.441 111.419 91.652 115.731 92.972C121.209 94.644 127.567 94.941 131.329 94.941C132.759 94.941 133.826 94.897 134.31 94.875C134.629 96.932 136.653 109.131 140.932 117.887C140.987 118.008 141.108 118.074 141.229 118.074C141.273 118.074 141.328 118.063 141.372 118.041C141.537 117.964 141.603 117.766 141.526 117.601C140.899 116.314 140.316 114.95 139.788 113.553C141.493 113.872 147.202 114.796 155.232 114.796C157.41 114.796 159.753 114.73 162.239 114.565C167.915 114.18 171.655 113.333 173.8 112.684C176.143 111.98 177.133 111.364 177.177 111.331C177.331 111.232 177.375 111.034 177.276 110.88C177.177 110.726 176.979 110.682 176.825 110.781C176.792 110.803 172.909 113.19 162.195 113.905C151.657 114.609 142.835 113.531 139.524 112.838C136.345 104.181 134.948 94.611 134.926 94.501C134.926 94.49 134.926 94.49 134.926 94.479C134.926 94.468 134.926 94.457 134.915 94.446C134.915 94.435 134.904 94.424 134.904 94.413C134.904 94.402 134.893 94.391 134.893 94.38C134.893 94.369 134.882 94.358 134.871 94.358C134.86 94.347 134.86 94.336 134.849 94.336C134.838 94.325 134.838 94.325 134.827 94.314C134.816 94.303 134.805 94.303 134.805 94.292C134.794 94.292 134.794 94.281 134.783 94.281C134.772 94.27 134.761 94.27 134.75 94.259C134.739 94.259 134.739 94.248 134.728 94.248C134.717 94.237 134.706 94.237 134.684 94.237C134.673 94.237 134.673 94.237 134.662 94.237C134.651 94.237 134.64 94.237 134.618 94.226C134.607 94.226 134.596 94.226 134.585 94.226C134.574 94.226 134.574 94.226 134.563 94.226C134.464 94.237 124.157 94.897 115.907 92.367C111.705 91.08 108.053 88.935 105.611 86.328C102.927 83.457 101.761 80.091 102.234 76.593C102.938 71.489 107.701 66.594 113.234 60.94L113.663 60.5C114.675 59.466 115.632 58.333 116.457 57.299C117.26 58.256 119.9 60.973 124.3 61.6L122.089 65.714C120.604 68.486 117.15 74.877 116.644 78.001C116.391 78.991 116.16 80.19 116.193 81.092C116.215 81.972 116.919 82.687 117.898 82.841C118.019 82.863 118.14 82.874 118.25 82.874C119.064 82.874 119.735 82.423 119.999 81.653C120.263 80.905 120.439 80.113 120.626 79.277C120.846 78.276 121.088 77.253 121.473 76.274C122.672 73.304 125.774 70.928 126.753 70.224L127.072 70.004C127.094 69.982 127.116 69.971 127.138 69.949C128.172 69.3 129.261 68.629 130.405 67.969C133.232 66.33 136.532 64.9 139.238 63.844C139.502 64.328 140.514 66.033 142.307 67.606C143.913 69.014 146.41 70.532 149.776 70.532C150.458 70.532 151.173 70.466 151.921 70.334C155.243 69.718 157.96 67.529 159.764 64.009C160.853 61.886 161.304 59.895 161.447 59.147C165.264 58.927 170.324 59.059 175.989 60.247C181.973 61.512 187.759 63.767 192.72 66.781C197.417 69.641 201.014 73.007 202.829 76.252C206.47 82.731 202.576 88.275 199.441 92.73C197.703 95.194 194.128 99.22 191.301 102.289C186.329 101.024 184.272 96.063 183.964 95.238C185.394 93.247 187.209 90.618 189.068 87.593C191.73 83.27 193.072 81.29 193.49 80.685L193.644 80.465C193.743 80.333 194.887 78.815 194.337 77.682C194.051 77.088 193.182 76.406 192.071 76.263C191.026 76.131 190.058 76.527 189.332 77.385C188.837 77.968 188.551 78.881 188.21 79.937C187.473 82.258 186.571 85.107 182.996 85.525L181.874 85.58C181.841 85.58 181.819 85.591 181.786 85.591C179.542 85.602 177.298 85.382 175.329 85.107C172.744 84.744 170.379 86.218 170.17 86.361C170.06 86.416 169.422 86.757 168.773 87.23C167.75 87.956 167.233 88.583 167.2 89.144C167.145 89.815 167.332 90.332 167.739 90.684C168.41 91.245 169.642 91.278 171.501 90.794C172.029 90.662 172.513 90.728 172.964 91.003C173.976 91.619 174.867 93.28 175.549 95.821C175.714 96.492 175.813 96.91 175.824 96.921C175.846 96.998 175.879 97.053 175.934 97.097C176.473 98.989 177.001 100.639 177.419 101.574C177.474 101.695 177.595 101.772 177.716 101.772C177.76 101.772 177.804 101.761 177.848 101.739C178.013 101.662 178.09 101.464 178.013 101.299C177.43 100.001 176.616 97.207 175.868 94.336C174.988 90.717 174.009 86.647 173.855 85.745C174.306 85.69 174.779 85.69 175.252 85.756C179.201 86.306 184.272 86.603 188.254 85.426L188.298 85.415C188.331 85.415 188.364 85.404 188.386 85.382L188.397 85.371C188.98 85.195 189.53 84.986 190.058 84.744C189.596 85.47 189.09 86.295 188.518 87.23C184.426 93.874 180.576 98.637 180.543 98.692C180.543 98.692 180.543 98.703 180.532 98.703C180.521 98.714 180.51 98.725 180.51 98.747C180.51 98.758 180.499 98.769 180.499 98.78C180.499 98.791 180.488 98.802 180.488 98.813C180.488 98.824 180.488 98.835 180.477 98.846C180.477 98.857 180.477 98.868 180.466 98.879C180.466 98.89 180.466 98.901 180.466 98.912C180.466 98.923 180.466 98.934 180.466 98.945C180.466 98.967 180.477 98.978 180.477 99V99.011C180.521 99.143 181.401 102.025 183.128 103.972C184.866 105.93 187.319 107.03 187.418 107.085C187.462 107.107 187.506 107.118 187.55 107.118C187.638 107.118 187.726 107.085 187.792 107.019C187.88 106.92 196.867 97.548 199.98 93.115C201.564 90.86 203.357 88.308 204.303 85.437C205.403 82.071 205.106 78.958 203.39 75.922ZM116.875 56.738C117.799 55.561 118.503 54.56 118.844 54.065C119.361 54.604 120.582 55.671 122.683 56.507C124.146 57.09 125.609 57.431 126.522 57.442L124.63 60.962C120.175 60.412 117.502 57.497 116.875 56.738ZM136.994 48.235C136.433 47.751 136.279 46.893 136.631 46.167C137.192 45.012 138.358 44.968 138.875 45.012C138.809 45.958 138.908 47.014 139.293 48.169C138.039 48.928 137.269 48.477 136.994 48.235ZM140.008 48.191C139.48 46.695 139.381 45.254 139.722 43.868C140.041 43.967 140.371 44.033 140.701 44.044C140.723 44.044 140.756 44.044 140.778 44.044C142.89 44.044 145.145 41.393 146.014 40.26C146.355 40.909 147.147 41.888 148.896 42.086C151.382 42.372 152.603 41.03 152.724 40.876C152.812 40.788 154.275 39.281 155.441 39.974C156.068 40.348 156.332 41.008 156.134 41.756C155.892 42.68 154.924 43.692 153.373 43.736C153.274 43.736 153.175 43.791 153.12 43.868C153.065 43.945 153.043 44.055 153.065 44.154C153.065 44.165 153.483 45.771 152.581 48.213C151.283 51.711 148.863 52.668 147.543 52.932C146.267 53.185 141.933 53.592 140.008 48.191ZM159.17 63.69C157.432 67.078 154.957 69.091 151.789 69.674C148.434 70.29 145.398 69.432 142.747 67.111C141.119 65.692 140.151 64.119 139.854 63.58C142.098 62.722 143.858 62.139 144.485 61.941L144.529 61.93C144.54 61.93 144.54 61.93 144.54 61.919C144.551 61.919 144.562 61.908 144.573 61.908C144.584 61.908 144.595 61.897 144.595 61.897C144.606 61.886 144.617 61.886 144.617 61.875C144.628 61.864 144.639 61.864 144.639 61.853C144.65 61.842 144.65 61.842 144.661 61.831C144.672 61.82 144.672 61.809 144.683 61.809C144.694 61.798 144.694 61.787 144.705 61.787C144.705 61.776 144.716 61.765 144.716 61.754C144.716 61.743 144.727 61.732 144.727 61.721C144.727 61.71 144.738 61.699 144.738 61.688C144.738 61.677 144.738 61.666 144.738 61.655C144.738 61.644 144.738 61.633 144.738 61.622C144.738 61.611 144.738 61.611 144.738 61.6L144.573 56.881C148.621 55.946 150.634 54.384 151.327 53.724L153.714 59.906C153.714 59.917 153.725 59.917 153.725 59.928C153.725 59.939 153.725 59.939 153.736 59.95C153.747 59.961 153.758 59.983 153.758 59.994C153.758 59.994 153.758 59.994 153.758 60.005C153.769 60.016 153.78 60.038 153.802 60.049C153.802 60.049 153.802 60.049 153.813 60.06C153.824 60.071 153.835 60.082 153.857 60.093C153.857 60.093 153.868 60.093 153.868 60.104C153.879 60.115 153.901 60.115 153.912 60.126H153.923C153.945 60.137 153.956 60.137 153.978 60.137C153.989 60.137 154.011 60.137 154.022 60.137H154.033C154.044 60.137 154.044 60.137 154.055 60.137C154.066 60.137 154.077 60.137 154.088 60.126H154.099C154.143 60.115 156.64 59.466 160.721 59.18C160.578 59.983 160.138 61.798 159.17 63.69ZM187.473 106.37C186.857 106.062 184.965 105.061 183.612 103.532C182.204 101.937 181.357 99.605 181.148 98.978C181.445 98.604 182.303 97.504 183.502 95.876C183.755 96.47 184.25 97.493 185.042 98.604C186.934 101.222 189.134 102.355 190.795 102.839C189.189 104.555 187.913 105.908 187.473 106.37Z" fill="#212121"/>
<path d="M185.999 200.882C184.36 200.882 182.677 200.629 181.005 200.112C177.782 199.122 175.065 196.68 173.349 193.237C170.94 188.408 170.841 182.303 173.096 176.066C175.56 169.246 176.99 161.953 177.254 154.968C177.32 153.274 177.309 151.613 177.232 150.018C174.669 152.867 171.787 155.661 165.484 156.53C162.569 156.937 159.214 155.133 155.54 151.173C152.834 148.269 150.931 145.2 150.92 145.167C150.821 145.013 150.876 144.804 151.03 144.716C151.184 144.617 151.393 144.672 151.481 144.826C151.558 144.947 158.928 156.772 165.396 155.87C171.82 154.979 174.57 151.998 177.177 149.083C176.891 144.881 176.099 141.141 174.867 138.237C173.701 135.498 171.039 131.527 164.945 128.161C159.17 124.971 151.723 123.101 142.813 122.595C125.202 121.594 114.136 116.292 105.82 104.863C99.9459 96.778 91.0689 89.518 83.2479 83.116C79.5519 80.091 76.0649 77.242 73.5239 74.767C70.3229 71.654 65.5269 65.494 62.2269 58.069C56.5839 58.751 51.4029 58.795 48.1909 58.355C43.4279 57.706 38.6429 55.616 34.7269 52.481C30.7999 49.335 27.9949 45.331 26.8399 41.206C25.9599 38.082 26.0259 35.002 27.0159 32.054C28.1049 28.831 30.2829 25.861 33.5059 23.232C38.1259 19.459 43.6699 17.292 49.9839 16.764C55.3629 16.313 61.3249 17.072 67.7049 18.986C78.8589 22.352 89.4959 28.831 95.7439 33.781C107.206 42.867 120.164 45.221 120.296 45.243C120.472 45.276 120.593 45.441 120.56 45.628C120.527 45.804 120.362 45.925 120.175 45.892C120.142 45.881 116.831 45.298 112.145 43.582C107.822 41.998 101.387 39.105 95.3369 34.309C89.1439 29.403 78.5729 22.968 67.5179 19.624C61.2259 17.721 55.3409 16.984 50.0389 17.424C43.8679 17.941 38.4449 20.064 33.9239 23.749C30.7999 26.29 28.6879 29.161 27.6429 32.263C26.6969 35.09 26.6309 38.027 27.4779 41.019C28.5999 45.012 31.3279 48.895 35.1449 51.964C38.9729 55.033 43.6369 57.068 48.2899 57.706C51.4139 58.135 56.4629 58.102 61.9629 57.442C61.8969 57.299 61.8419 57.145 61.7759 57.002C57.2659 46.255 58.9599 40.04 61.1709 36.729C63.1949 33.682 66.8799 31.713 71.5329 31.185C75.6909 30.712 80.3219 31.471 83.8969 33.209C86.3059 34.375 88.1539 35.937 89.2319 37.719C90.4529 39.732 90.6839 41.943 89.9139 44.275C88.9679 47.179 86.6469 49.742 83.0169 51.909C79.9259 53.757 75.9439 55.286 71.1919 56.452C68.4639 57.123 65.6479 57.629 62.9199 57.981C66.1869 65.23 70.8619 71.236 73.9969 74.283C76.5159 76.736 80.0029 79.585 83.6769 82.599C91.5199 89.045 100.43 96.338 106.359 104.489C114.543 115.742 125.455 120.967 142.846 121.957C151.855 122.474 159.401 124.366 165.264 127.6C171.523 131.054 174.273 135.157 175.472 137.995C176.671 140.822 177.452 144.397 177.782 148.423C178.816 147.279 179.905 146.113 181.225 145.123C183.623 143.319 186.219 142.131 188.749 141.702C191.411 141.24 193.908 141.592 196.163 142.747C202.642 146.047 206.085 155.342 205.865 168.938C205.744 176.308 204.666 182.589 202.664 187.627C200.871 192.137 198.374 195.58 195.228 197.857C192.467 199.848 189.299 200.882 185.999 200.882ZM177.848 149.336C177.958 151.151 177.98 153.054 177.914 155.001C177.65 162.052 176.198 169.422 173.723 176.297C171.534 182.358 171.611 188.276 173.943 192.951C175.56 196.185 178.2 198.561 181.203 199.485C186.032 200.97 190.872 200.2 194.832 197.318C197.868 195.107 200.288 191.763 202.037 187.374C204.006 182.413 205.073 176.209 205.183 168.916C205.403 155.595 202.081 146.498 195.844 143.33C191.609 141.174 186.428 142.021 181.61 145.651C180.169 146.74 179.036 147.994 177.848 149.336ZM74.0629 31.702C69.0469 31.702 64.1849 33.374 61.7099 37.103C59.5869 40.282 57.9809 46.277 62.3699 56.76C62.4579 56.969 62.5459 57.167 62.6339 57.376C65.3949 57.024 68.2439 56.518 71.0269 55.836C75.7129 54.681 79.6399 53.174 82.6759 51.359C86.1629 49.269 88.3849 46.827 89.2869 44.077C89.9909 41.932 89.7819 39.908 88.6709 38.06C87.6589 36.388 85.9099 34.914 83.6109 33.803C80.7839 32.439 77.3959 31.702 74.0629 31.702Z" fill="#212121"/>
<path d="M144.529 149.776C142.219 146.751 138.204 145.321 138.204 145.321C138.204 145.321 129.459 159.016 117.909 162.921C106.359 166.826 102.509 158.796 99.5391 154.341C96.5691 149.886 93.3791 139.601 93.3791 139.601C93.3791 139.601 91.7841 134.211 87.7141 128.711C83.6441 123.211 77.2641 119.746 73.3591 118.041C69.4541 116.336 65.8241 115.016 65.8241 115.016L64.1741 116.611L45.2541 143.341L29.6341 152.339C29.6341 152.339 29.0951 153.241 28.4241 154.363C28.4571 154.451 28.4571 154.539 28.4131 154.627C28.3581 154.737 28.2591 154.803 28.1491 154.814C27.1481 156.475 25.9821 158.378 25.8501 158.466C25.6521 158.598 21.4831 163.405 20.6471 164.362C27.9181 170.698 37.6091 177.914 48.2791 184.921C53.0201 188.034 57.7281 190.96 62.2491 193.622L71.7861 181.907C71.7421 181.874 71.7091 181.852 71.6651 181.819C71.5221 181.709 71.4891 181.5 71.5991 181.357C71.7091 181.214 71.9181 181.181 72.0611 181.291C72.1051 181.324 72.1601 181.357 72.2041 181.401L77.2641 175.186C91.2341 186.406 107.734 184.481 107.734 184.481C107.734 184.481 118.074 183.601 129.844 174.801C141.614 166.001 146.839 153.901 146.839 153.901C146.839 153.901 146.839 152.801 144.529 149.776Z" fill="#F1F1F1"/>
<path d="M88.2311 119.746C88.2311 119.746 90.1781 123.453 92.4441 125.433C94.7211 127.413 98.1971 128.7 98.1971 128.7L91.7841 136.51L83.1271 124.487L88.2311 119.746Z" fill="#F1F1F1"/>
<path d="M89.188 124.223C88.11 122.848 87.406 121.572 86.988 120.725C86.647 121.044 86.284 121.341 85.954 121.671C85.877 121.748 85.8 121.836 85.723 121.913L85.712 121.924C85.646 122.133 85.426 122.364 85.327 122.562C85.228 122.749 85.107 122.903 84.975 123.035C85.437 123.86 86.064 124.85 86.856 125.884C89.056 128.733 91.817 130.955 94.952 132.407C95.59 131.615 96.36 130.955 97.02 130.185C93.962 128.964 91.333 126.962 89.188 124.223Z" fill="#FECE2F"/>
<path d="M90.3979 132.374C90.7389 132.979 91.1239 133.551 91.3659 134.222C91.4979 134.585 91.5859 134.948 91.6849 135.322C91.6959 135.344 91.729 135.465 91.762 135.564C91.806 135.63 91.9159 135.839 91.9599 135.927C92.1799 135.729 92.389 135.531 92.609 135.333C92.829 135.124 93.0379 134.915 93.2359 134.695C93.3349 134.596 93.4229 134.486 93.5109 134.376C93.5219 134.354 93.5439 134.332 93.5659 134.299C93.6099 134.233 93.6649 134.167 93.7199 134.101C92.5429 133.65 91.4429 133.067 90.3979 132.374Z" fill="#FECE2F"/>
<path d="M140.096 148.225C140.096 148.214 140.085 148.214 140.096 148.225C140.393 147.719 140.69 147.224 140.987 146.707C139.469 145.783 138.215 145.332 138.215 145.332C138.215 145.332 137.786 146.014 136.983 147.103C136.84 147.29 136.686 147.466 136.532 147.642C136.51 147.697 136.488 147.752 136.455 147.818C133.342 151.954 126.379 160.072 117.92 162.932C106.37 166.837 102.52 158.807 99.55 154.352C96.58 149.897 93.39 139.612 93.39 139.612C93.39 139.612 91.795 134.222 87.725 128.722C83.655 123.222 77.275 119.757 73.37 118.052C69.465 116.347 65.835 115.027 65.835 115.027L64.185 116.622L63.734 117.26C66.176 117.733 72.974 119.702 78.32 123.453C84.48 127.897 86.735 133.628 89.87 141.878C92.07 147.675 94.93 156.497 99.869 162.019C99.858 162.008 99.847 162.008 99.847 162.008C99.847 162.008 102.498 164.813 103.224 167.2C103.95 169.587 102.564 171.963 101.684 172.975C100.507 174.328 100.177 176.022 101.97 176.649C103.763 177.276 107.833 174.141 110.957 171.16C115.379 166.947 121.319 164.802 121.319 164.802L121.088 164.868C125.928 162.789 130.845 159.368 135.025 154.847C137.038 156.365 139.502 158.807 141.493 162.525C141.658 162.206 141.878 161.909 142.12 161.612C142.549 161.073 143.066 160.6 143.517 160.072C141.372 156.453 138.864 154.044 136.972 152.592C137.478 151.965 137.962 151.327 138.435 150.667C140.459 152.218 142.802 154.649 144.683 158.323C144.859 158.048 145.035 157.773 145.178 157.487C145.233 157.377 145.288 157.278 145.332 157.168C145.343 157.146 145.343 157.113 145.365 157.069C145.431 156.838 145.497 156.618 145.53 156.376C145.618 155.859 145.926 155.463 146.333 155.188C144.221 151.668 142.978 150.546 140.096 148.225Z" fill="#FECE2F"/>
<path d="M89.1221 164.406C88.8581 165.924 88.4071 167.387 87.1971 167.2C86.0641 167.013 85.8991 165.418 86.1521 163.9C86.4161 162.382 86.9331 161.018 88.0771 161.15C89.0781 161.26 89.3861 162.888 89.1221 164.406Z" fill="#212121"/>
<path d="M96.8772 176.473C96.7232 178.002 96.3712 179.498 95.1502 179.388C94.0062 179.289 93.7312 177.705 93.8852 176.176C94.0392 174.647 94.4572 173.25 95.6122 173.294C96.6022 173.338 97.0312 174.944 96.8772 176.473Z" fill="#212121"/>
<path d="M81.5432 171.567C81.3122 173.019 80.8832 174.427 79.7282 174.251C78.6391 174.086 78.4631 172.557 78.7051 171.105C78.9471 169.653 79.4202 168.344 80.5202 168.454C81.4662 168.553 81.7852 170.115 81.5432 171.567Z" fill="#212121"/>
<path d="M75.2071 161.414C74.9761 162.866 74.5471 164.274 73.3921 164.098C72.3031 163.933 72.1271 162.404 72.3691 160.952C72.6001 159.5 73.0841 158.191 74.1841 158.301C75.1301 158.4 75.4381 159.962 75.2071 161.414Z" fill="#212121"/>
<path d="M83.4571 152.834C83.2261 154.286 82.7971 155.694 81.6421 155.518C80.5531 155.353 80.3771 153.824 80.6191 152.372C80.8501 150.92 81.3341 149.611 82.4341 149.721C83.3801 149.82 83.6881 151.382 83.4571 152.834Z" fill="#212121"/>
<path d="M97.5701 160.963C97.3941 162.085 97.0641 163.163 96.1731 163.031C95.3371 162.899 95.2051 161.733 95.3811 160.611C95.5571 159.489 95.9311 158.488 96.7781 158.576C97.5151 158.642 97.7461 159.841 97.5701 160.963Z" fill="#212121"/>
<path d="M129.822 161.546C129.569 163.086 129.118 164.571 127.908 164.384C126.753 164.208 126.577 162.591 126.819 161.062C127.072 159.522 127.578 158.136 128.733 158.257C129.734 158.367 130.064 160.017 129.822 161.546Z" fill="#212121"/>
<path d="M136.037 169.312C136.499 168.916 136.895 168.454 137.313 168.014C137.39 167.695 137.456 167.354 137.511 167.013C137.764 165.473 137.434 163.823 136.422 163.724C135.267 163.603 134.75 164.989 134.508 166.529C134.266 168.003 134.431 169.554 135.465 169.829C135.63 169.631 135.828 169.466 136.037 169.312Z" fill="#212121"/>
<path d="M127.402 176.605C127.732 176.286 128.106 176.022 128.469 175.758C128.524 175.714 128.634 175.659 128.722 175.604C128.744 175.582 128.766 175.56 128.788 175.538C128.744 175.571 128.711 175.593 128.667 175.626C128.744 175.56 128.81 175.505 128.876 175.428C128.997 175.307 129.129 175.208 129.272 175.12C129.283 175.054 129.294 174.988 129.305 174.933C129.558 173.393 129.228 171.743 128.216 171.644C127.061 171.523 126.544 172.909 126.302 174.449C126.137 175.483 126.159 176.55 126.555 177.199C126.786 176.935 127.083 176.726 127.402 176.605Z" fill="#212121"/>
<path d="M117.128 176.77C116.875 178.31 116.424 179.795 115.214 179.608C114.059 179.432 113.883 177.815 114.125 176.286C114.378 174.746 114.884 173.36 116.039 173.481C117.051 173.58 117.381 175.23 117.128 176.77Z" fill="#212121"/>
<path d="M92.2021 148.203C91.9381 149.82 91.4651 151.393 90.1781 151.206C88.9681 151.019 88.7701 149.314 89.0341 147.697C89.2981 146.08 89.8371 144.617 91.0581 144.738C92.1141 144.837 92.4551 146.575 92.2021 148.203Z" fill="#212121"/>
<path d="M84.7881 140.921C84.5571 142.384 84.1281 143.792 82.9621 143.616C81.873 143.451 81.697 141.922 81.928 140.459C82.159 138.996 82.6541 137.687 83.7541 137.797C84.7111 137.896 85.0191 139.458 84.7881 140.921Z" fill="#212121"/>
<path d="M88.8031 130.328C88.3521 129.646 87.9011 128.986 87.4391 128.326C87.1531 128.821 86.9661 129.514 86.8451 130.251C86.6141 131.714 86.7791 133.243 87.8791 133.408C88.8581 133.562 89.3201 132.561 89.5731 131.373C89.2871 131.032 89.0341 130.669 88.8031 130.328Z" fill="#212121"/>
<path d="M77.8251 131.142C77.5941 132.605 77.1651 134.013 75.999 133.837C74.91 133.672 74.734 132.143 74.965 130.68C75.196 129.217 75.691 127.908 76.791 128.018C77.748 128.117 78.0561 129.679 77.8251 131.142Z" fill="#212121"/>
<path d="M71.2801 117.293C71.2251 117.249 71.1701 117.216 71.1151 117.183C70.7851 117.062 70.4551 116.941 70.1801 116.743C70.1361 116.71 70.0921 116.688 70.0481 116.655C69.5861 117.128 69.3331 118.008 69.1791 118.954C68.9481 120.417 69.1131 121.946 70.2131 122.111C71.3681 122.287 71.7971 120.879 72.0391 119.416C72.1381 118.778 72.1381 118.118 72.0281 117.568C71.7421 117.524 71.4781 117.436 71.2801 117.293Z" fill="#212121"/>
<path d="M74.6681 144.859C74.4371 146.322 74.0081 147.73 72.8421 147.554C71.7531 147.389 71.577 145.86 71.808 144.397C72.0391 142.934 72.5341 141.625 73.6341 141.735C74.5911 141.834 74.8991 143.396 74.6681 144.859Z" fill="#212121"/>
<path d="M64.4051 150.799C64.1741 152.262 63.7451 153.67 62.5791 153.494C61.4901 153.329 61.3141 151.8 61.5451 150.337C61.7761 148.874 62.2711 147.565 63.3711 147.675C64.3281 147.774 64.6361 149.336 64.4051 150.799Z" fill="#212121"/>
<path d="M53.1081 159.665C52.8771 161.128 52.4481 162.536 51.2821 162.36C50.1931 162.195 50.0171 160.666 50.2481 159.203C50.4791 157.74 50.9741 156.431 52.0741 156.541C53.0311 156.64 53.3391 158.213 53.1081 159.665Z" fill="#212121"/>
<path d="M37.4551 159.357C37.2241 160.82 36.8281 162.239 35.8931 162.096C35.0131 161.964 34.9141 160.446 35.1561 158.983C35.3981 157.52 35.8271 156.2 36.7181 156.277C37.4771 156.354 37.6861 157.905 37.4551 159.357Z" fill="#212121"/>
<path d="M41.7781 173.03C41.5801 174.251 41.2281 175.439 40.2931 175.296C39.4131 175.164 39.2811 173.877 39.4791 172.656C39.6771 171.435 40.0731 170.335 40.9641 170.423C41.7231 170.5 41.9761 171.809 41.7781 173.03Z" fill="#212121"/>
<path d="M52.0631 179.19C51.7881 180.906 51.2931 182.567 49.9841 182.369C48.7411 182.182 48.5651 180.378 48.8401 178.662C49.1151 176.946 49.6761 175.395 50.9191 175.527C51.9971 175.637 52.3491 177.474 52.0631 179.19Z" fill="#212121"/>
<path d="M59.4 171.501C59.169 172.953 58.74 174.372 57.629 174.207C56.573 174.053 56.419 172.524 56.65 171.061C56.881 169.609 57.365 168.289 58.421 168.399C59.345 168.487 59.642 170.038 59.4 171.501Z" fill="#212121"/>
<path d="M67.177 179.982C66.979 181.236 66.6161 182.457 65.6481 182.314C64.7351 182.182 64.6031 180.862 64.8121 179.597C65.0211 178.332 65.4281 177.21 66.3411 177.298C67.122 177.375 67.375 178.717 67.177 179.982Z" fill="#212121"/>
<path d="M75.504 119.053L76.747 109.296C76.747 109.296 80.047 109.593 83.49 107.316C86.933 105.039 86.867 102.696 87.23 102.333C87.593 101.97 89.518 99.616 90.233 99.506C90.948 99.396 92.411 97.636 91.971 96.844C91.531 96.052 89.661 96.866 89.056 96.404C88.451 95.942 88.198 92.829 87.516 91.542C86.834 90.255 83.996 86.46 82.918 86.064C81.84 85.668 79.288 89.144 79.288 89.144L72.49 91.256C72.49 91.256 65.978 92.224 65.868 92.301C65.758 92.378 64.053 95.799 64.053 95.799C64.053 95.799 63.855 99.627 64.031 99.649C64.207 99.671 66.099 105.534 66.099 105.534L65.824 115.016C65.824 115.016 69.762 116.446 71.346 117.128C72.93 117.81 75.504 119.053 75.504 119.053Z" fill="#FECE2F"/>
<path d="M98.6811 112.31C98.6811 112.31 99.1981 113.267 98.2081 114.18C97.2181 115.093 96.1951 116.16 96.3051 116.413C96.4151 116.666 97.0751 117.766 97.0751 117.766C97.0751 117.766 100.452 118.789 100.232 118.866C100.012 118.943 95.5351 127.633 95.5351 127.633C95.5351 127.633 93.2251 126.346 91.3551 124.333C89.4851 122.32 88.2421 119.746 88.2421 119.746C88.2421 119.746 90.7721 116.149 91.3221 115.709C91.8721 115.269 96.6351 112.519 96.6351 112.519C96.6351 112.519 98.1641 111.98 98.6811 112.31Z" fill="#FECE2F"/>
<path d="M138.204 145.321L140.217 142.219C140.217 142.219 140.47 139.326 139.92 138.039C139.37 136.752 138.82 133.012 140.173 132.792C140.173 132.792 141.053 133.452 141.603 134.552C142.153 135.652 142.626 136.345 142.626 136.345C142.626 136.345 143.979 134.365 145.299 134.068C146.619 133.771 147.642 133.991 147.719 134.431C147.796 134.871 148.016 135.971 148.269 136.081C148.522 136.191 149.952 136.554 149.952 137.038C149.952 137.511 150.249 138.248 150.469 138.358C150.689 138.468 150.986 139.315 151.162 139.568C151.349 139.821 152.042 140.261 152.042 141.075C152.042 141.889 151.305 145.398 149.875 147.235C148.445 149.072 145.838 151.822 145.838 151.822C145.838 151.822 143.671 148.885 142.395 147.785C141.119 146.685 138.204 145.321 138.204 145.321Z" fill="#FECE2F"/>
<path d="M140.151 133.023L140.272 132.869C140.217 132.825 140.195 132.803 140.195 132.803C138.842 133.023 139.392 136.763 139.942 138.05C140.492 139.337 140.239 142.23 140.239 142.23L138.226 145.332C138.226 145.332 139.546 145.948 140.8 146.685L140.998 146.707C140.998 146.707 142.109 145.64 142.406 143.99C142.769 141.9 141.306 138.303 140.503 136.037C139.799 134.112 140.151 133.023 140.151 133.023Z" fill="#F1F1F1"/>
<path d="M91.564 78.496C90.431 76.373 86.944 75.339 83.347 76.879C79.75 78.419 79.607 81.059 76.89 80.619C74.173 80.179 70.433 80.542 67.133 83.336C63.833 86.13 62.81 86.933 60.39 86.196C57.97 85.459 54.087 86.119 51.073 90.673C48.07 95.216 45.87 96.536 42.35 96.096C38.83 95.656 33.913 97.053 30.91 101.156C27.907 105.259 28.413 106.656 24.013 107.976C19.613 109.296 16.016 111.353 15.356 114.433C14.696 117.513 13.816 118.976 11.913 121.033C10.01 123.09 7.579 126.566 9.713 131.01C11.968 135.707 14.828 135.432 17.061 140.723C18.788 144.826 22.176 151.613 28.776 153.076C35.376 154.539 42.636 149.556 46.673 150.513C50.71 151.47 54.593 152.13 57.816 147.576C61.039 143.022 61.776 142.153 64.779 140.613C67.782 139.073 68.816 136.576 68.156 131.296C67.496 126.016 63.393 119.196 66.176 114.939C68.959 110.682 70.873 107.976 69.993 104.236C69.113 100.496 66.198 99.33 66.341 97.13C66.484 94.93 68.42 93.082 70.301 93.83C72.699 94.787 71.962 96.877 73.194 97.119C74.283 97.339 74.701 96.03 75.207 93.973C75.724 91.916 75.812 90.959 77.33 91.113C79.013 91.289 80.839 91.751 81.906 90.431C82.731 89.419 82.104 88.649 82.687 87.516C83.567 85.822 86.229 87.241 89.419 84.931C92.609 82.621 92.202 79.684 91.564 78.496Z" fill="#212121"/>
<path d="M67.3971 97.449C67.3641 97.449 67.3311 97.449 67.2981 97.438C67.1221 97.383 67.0231 97.196 67.0781 97.02C67.8261 94.644 69.5091 94.435 70.29 94.655C70.466 94.699 70.565 94.886 70.521 95.062C70.477 95.238 70.29 95.337 70.114 95.293C70.037 95.271 68.4531 94.886 67.7161 97.218C67.6611 97.361 67.5401 97.449 67.3971 97.449Z" fill="#212121"/>
<path d="M69.652 97.361C69.531 97.361 69.41 97.284 69.355 97.163L68.53 95.315C68.453 95.15 68.53 94.952 68.695 94.875C68.86 94.798 69.058 94.875 69.135 95.04L69.96 96.888C70.037 97.053 69.96 97.251 69.795 97.328C69.74 97.361 69.696 97.361 69.652 97.361Z" fill="#212121"/>
<path d="M82.258 92.4C82.038 92.4 81.796 92.389 81.543 92.345C81.367 92.323 81.235 92.147 81.268 91.971C81.29 91.795 81.466 91.663 81.642 91.696C83.732 91.993 84.601 90.684 84.612 90.673C84.711 90.519 84.92 90.475 85.063 90.574C85.217 90.673 85.261 90.882 85.162 91.025C85.129 91.091 84.26 92.4 82.258 92.4Z" fill="#212121"/>
<path d="M83.237 96.063C84.007 96.228 84.755 96.272 85.349 96.162C85.811 96.085 86.13 95.92 86.163 95.733C86.196 95.546 85.976 95.271 85.591 95.007C85.096 94.677 84.403 94.391 83.633 94.226C83.116 94.116 82.632 94.061 82.225 94.061C81.334 94.061 80.762 94.292 80.707 94.545C80.63 94.93 81.576 95.7 83.237 96.063Z" fill="#F1F1F1"/>
<path d="M85.965 94.468C85.404 94.083 84.623 93.775 83.776 93.588C82.137 93.236 80.289 93.401 80.069 94.413C79.849 95.425 81.466 96.349 83.105 96.701C83.633 96.822 84.161 96.877 84.645 96.877C84.942 96.877 85.217 96.855 85.47 96.811C86.24 96.679 86.713 96.349 86.823 95.876C86.911 95.414 86.614 94.908 85.965 94.468ZM80.707 94.556C80.762 94.303 81.334 94.072 82.225 94.072C82.632 94.072 83.105 94.116 83.633 94.237C83.908 94.292 84.161 94.369 84.414 94.457C83.82 94.567 83.413 94.798 83.336 95.139C83.259 95.48 83.534 95.854 84.029 96.195C83.765 96.173 83.501 96.129 83.226 96.063C81.576 95.7 80.63 94.93 80.707 94.556Z" fill="#212121"/>
<path d="M81.477 102.663C81.983 102.762 83.105 102.63 83.677 102.553C84.667 102.421 84.678 103.719 84.337 104.489C83.897 105.479 82.555 106.04 80.641 105.71C78.727 105.38 76.263 104.115 76.901 102.278C77.539 100.441 78.892 100.947 79.453 101.453C80.069 102.003 80.762 102.52 81.477 102.663Z" fill="#212121"/>
<path d="M98.802 128.073C98.791 126.907 97.141 125.433 96.954 125.268C96.877 125.202 96.778 125.18 96.69 125.191C96.591 125.202 96.514 125.268 96.459 125.345L95.392 127.138C94.501 126.654 93.522 125.994 92.631 125.114C90.112 122.65 88.528 119.614 88.517 119.592C88.517 119.592 88.517 119.581 88.506 119.581C88.495 119.57 88.495 119.559 88.484 119.548C88.473 119.537 88.473 119.526 88.462 119.526L88.451 119.515L88.44 119.504C88.429 119.493 88.418 119.493 88.418 119.482C88.407 119.471 88.396 119.471 88.396 119.46C88.385 119.46 88.374 119.449 88.374 119.449C88.363 119.449 88.352 119.438 88.341 119.438C88.33 119.438 88.319 119.427 88.308 119.427C88.297 119.427 88.286 119.427 88.275 119.416C88.264 119.416 88.253 119.416 88.242 119.416C88.231 119.416 88.22 119.416 88.209 119.416C88.198 119.416 88.187 119.416 88.176 119.416C88.165 119.416 88.154 119.416 88.143 119.427C88.132 119.427 88.121 119.427 88.11 119.438C88.099 119.438 88.088 119.449 88.077 119.449C88.077 119.449 88.066 119.449 88.066 119.46C88.066 119.46 88.055 119.46 88.055 119.471C88.044 119.482 88.033 119.482 88.022 119.493C88.011 119.504 88 119.504 88 119.515L87.989 119.526L83.369 124.036C83.237 124.168 83.237 124.377 83.358 124.498C83.424 124.564 83.512 124.597 83.589 124.597C83.677 124.597 83.754 124.564 83.82 124.498L88.132 120.296C88.649 121.209 90.079 123.563 92.158 125.598C94.204 127.6 96.613 128.513 97.647 128.843L91.861 135.828C91.74 135.971 91.762 136.18 91.905 136.29C91.971 136.345 92.037 136.367 92.114 136.367C92.213 136.367 92.301 136.323 92.367 136.246L98.461 128.887C98.692 128.667 98.802 128.392 98.802 128.073Z" fill="#212121"/>
<path d="M88.484 114.686L91.311 115.709C91.311 115.709 103.851 120.186 103.961 120.076C104.071 119.966 105.864 118.393 106.491 116.633C107.118 114.873 107.448 112.64 107.448 112.64L102.355 108.933L95.832 103.796L93.885 102.696C93.885 102.696 93.335 101.706 90.948 105.116C88.561 108.526 88.165 111.859 88.165 111.859C88.165 111.859 87.384 114.136 88.484 114.686Z" fill="#F1F1F1"/>
<path d="M92.081 115.368C92.532 115.071 92.983 114.774 93.445 114.477C94.699 113.652 95.986 112.816 97.449 112.464C97.68 112.409 97.933 112.365 98.175 112.398C98.417 112.431 98.659 112.552 98.78 112.761C98.967 113.069 98.857 113.487 98.626 113.773C98.395 114.059 98.087 114.246 97.812 114.488C97.471 114.774 97.196 115.115 96.921 115.456C96.624 115.83 96.305 116.27 96.415 116.743C96.492 117.062 96.745 117.304 96.943 117.568C97.141 117.832 97.284 118.206 97.108 118.481C96.899 118.811 96.404 118.778 96.019 118.701C95.37 118.569 94.71 118.426 94.061 118.294C93.478 118.173 92.873 118.041 92.367 117.722C91.971 117.469 91.652 117.095 91.355 116.721C90.805 115.984 91.542 115.72 92.081 115.368Z" fill="#FECE2F"/>
<path d="M103.939 120.406C103.906 120.406 103.862 120.395 103.829 120.384L96.756 117.92C96.58 117.865 96.492 117.667 96.558 117.502C96.624 117.337 96.811 117.238 96.976 117.304L103.873 119.702C104.28 119.339 105.545 118.129 106.249 116.325C106.876 114.719 107.085 113.267 107.14 112.772L104.247 110.605C104.104 110.495 104.071 110.286 104.181 110.143C104.291 110 104.5 109.967 104.643 110.077L107.69 112.354C107.778 112.42 107.833 112.53 107.822 112.64C107.811 112.717 107.668 114.499 106.865 116.556C105.941 118.899 104.225 120.263 104.148 120.329C104.082 120.384 104.016 120.406 103.939 120.406Z" fill="#212121"/>
<path d="M97.592 104.808L94.27 102.322C94.193 102.201 94.094 102.113 93.962 102.058C92.587 101.431 90.299 105.468 89.276 107.69C88.253 109.912 86.691 114.29 88.055 114.917C88.132 114.95 88.22 114.972 88.308 114.983L91.069 115.94C91.102 115.951 91.146 115.962 91.179 115.962C91.311 115.962 91.443 115.874 91.487 115.742C91.542 115.566 91.454 115.379 91.278 115.324L89.232 114.62C90.497 113.63 91.971 110.957 92.741 109.296C93.478 107.69 94.501 104.951 94.49 103.323L97.185 105.336C97.24 105.38 97.317 105.402 97.383 105.402C97.482 105.402 97.581 105.358 97.647 105.27C97.768 105.116 97.735 104.918 97.592 104.808ZM93.643 104.555C93.39 105.809 92.84 107.382 92.103 108.988C91.366 110.594 90.53 112.035 89.749 113.047C88.88 114.18 88.418 114.301 88.363 114.268C88.297 114.235 88.099 113.817 88.385 112.409C88.638 111.155 89.188 109.582 89.925 107.976C90.662 106.37 91.498 104.929 92.279 103.917C93.082 102.872 93.533 102.685 93.643 102.685C93.654 102.685 93.665 102.685 93.665 102.685C93.731 102.729 93.929 103.158 93.643 104.555Z" fill="#212121"/>
<path d="M99.1319 103.224C99.3299 103.29 99.2969 104.874 99.4839 104.764C99.6709 104.654 100.672 104.599 100.969 105.072C101.266 105.545 101.464 106.59 101.464 106.59C101.464 106.59 102.256 106.392 102.542 106.722C102.828 107.052 102.894 107.822 102.894 107.822C102.894 107.822 103.719 107.932 103.972 108.427C104.225 108.922 104.467 110.495 104.467 110.495C104.467 110.495 104.577 112.123 104.379 112.123C104.181 112.123 103.114 111.045 103.114 111.045C103.114 111.045 102.949 112.035 102.696 112.035C102.443 112.035 101.574 110.517 101.574 110.517C101.574 110.517 101.112 111.925 100.749 111.815C100.386 111.705 99.8139 110.517 99.6489 108.933C99.4839 107.349 99.0989 106.535 99.0989 106.535C99.0989 106.535 96.9539 110.935 95.964 110.253C94.974 109.571 96.2059 107.745 96.2059 107.745L97.5809 104.819L96.3159 103.895C96.3159 103.884 97.4819 102.674 99.1319 103.224Z" fill="#FECE2F"/>
<path d="M104.698 110.561C104.577 109.758 104.39 108.867 104.258 108.416C104.049 107.734 103.565 107.492 103.147 107.481C103.103 107.272 103.059 107.096 103.026 106.986C102.784 106.238 102.124 106.117 101.673 106.161C101.607 105.842 101.519 105.545 101.409 105.259C101.09 104.434 100.331 104.269 99.759 104.313C99.748 103.807 99.616 103.367 99.297 103.125C97.911 102.058 95.92 103.763 95.832 103.829C95.7 103.95 95.678 104.159 95.799 104.291C95.92 104.423 96.129 104.445 96.261 104.324C96.272 104.313 97.933 102.905 98.89 103.642C99.33 103.983 99.055 105.71 98.252 107.58C97.735 108.779 96.932 109.802 96.371 109.978C96.217 110.022 96.129 110 96.074 109.956C96.052 109.912 95.876 109.494 96.679 107.437C97.13 106.293 97.658 105.215 97.669 105.204C97.746 105.039 97.68 104.841 97.515 104.764C97.35 104.687 97.152 104.753 97.075 104.918C97.064 104.929 96.492 106.106 96.019 107.338C95.293 109.241 95.194 110.187 95.722 110.517C95.876 110.616 96.052 110.66 96.228 110.66C96.338 110.66 96.448 110.638 96.569 110.605C97.449 110.33 98.351 109.01 98.857 107.833C98.901 107.723 98.978 107.547 99.066 107.316C99.121 107.822 99.209 108.526 99.33 109.23C99.583 110.704 99.913 112.09 100.628 112.156C100.661 112.156 100.683 112.156 100.716 112.156C100.914 112.156 101.09 112.079 101.244 111.936C101.387 111.804 101.497 111.628 101.585 111.43C101.816 111.903 102.168 112.365 102.652 112.365C102.707 112.365 102.773 112.354 102.828 112.343C102.938 112.321 103.103 112.244 103.224 112.024C103.246 111.991 103.268 111.947 103.279 111.903C103.51 112.2 103.796 112.398 104.049 112.486C104.148 112.519 104.225 112.53 104.302 112.53C104.467 112.53 104.577 112.464 104.632 112.42C104.775 112.321 104.94 112.189 104.698 110.561ZM100.727 111.507C100.364 111.276 99.88 109.032 99.671 106.557C99.66 106.414 99.561 106.304 99.44 106.271C99.561 105.853 99.671 105.413 99.726 104.973C100.012 104.929 100.584 104.929 100.793 105.49C101.156 106.436 101.244 107.646 101.266 109.175C101.277 110.253 101.09 111.21 100.815 111.463C100.782 111.496 100.749 111.507 100.727 111.507ZM102.663 111.716C102.465 111.694 102.102 111.133 101.893 110.363C101.882 110.341 101.882 110.319 101.871 110.297C101.926 109.824 101.926 109.395 101.926 109.175C101.915 108.295 101.882 107.514 101.783 106.821C101.981 106.81 102.289 106.843 102.399 107.195C102.509 107.558 102.685 108.625 102.773 109.637C102.894 111.199 102.718 111.628 102.663 111.716ZM103.499 110.825C103.499 110.803 103.488 110.781 103.477 110.759C103.488 110.385 103.466 109.945 103.422 109.439C103.389 108.999 103.334 108.559 103.268 108.174C103.4 108.218 103.543 108.339 103.631 108.614C103.873 109.417 104.17 111.188 104.17 111.826C103.95 111.694 103.609 111.353 103.499 110.825Z" fill="#212121"/>
<path d="M20.504 164.868C20.416 164.868 20.328 164.835 20.273 164.769C20.141 164.637 20.152 164.428 20.273 164.307C20.35 164.23 27.885 156.805 29.821 150.689C29.876 150.513 30.063 150.414 30.239 150.469C30.415 150.524 30.514 150.711 30.459 150.887C29.623 153.527 27.731 156.673 24.849 160.226C22.704 162.866 20.768 164.758 20.757 164.78C20.669 164.835 20.592 164.868 20.504 164.868Z" fill="#212121"/>
<path d="M96.7341 125.851C96.6791 125.851 96.6131 125.84 96.5581 125.807C96.4041 125.708 96.3491 125.51 96.4481 125.356C98.395 122.166 99.825 118.723 99.836 118.69C99.902 118.525 100.1 118.437 100.265 118.514C100.43 118.58 100.518 118.778 100.441 118.943C100.43 118.976 98.978 122.474 97.0091 125.697C96.9541 125.796 96.8441 125.851 96.7341 125.851Z" fill="#212121"/>
<path d="M151.492 139.425C151.47 139.414 151.448 139.392 151.437 139.392C151.404 139.348 151.36 139.172 151.349 139.062C151.316 138.875 151.272 138.688 151.173 138.523C151.008 138.27 150.777 138.149 150.612 138.061C150.502 138.006 150.436 137.973 150.414 137.929C150.337 137.786 150.337 137.654 150.337 137.489C150.337 137.236 150.326 136.917 150.062 136.565C149.743 136.147 149.259 136.07 148.874 136.015C148.676 135.982 148.423 135.938 148.39 135.861C148.357 135.784 148.335 135.619 148.324 135.465C148.258 134.838 148.126 133.672 146.586 133.496C145.024 133.32 143.484 134.893 143 135.421L141.9 134.288C141.878 134.266 141.856 134.255 141.845 134.244C141.13 132.935 140.69 132.55 140.349 132.484C140.052 132.033 139.15 130.427 139.854 128.392C139.909 128.216 139.821 128.029 139.645 127.974C139.469 127.919 139.282 128.007 139.227 128.183C138.501 130.284 139.282 131.989 139.7 132.682C139.557 132.792 139.436 132.935 139.326 133.122C138.842 133.991 138.875 135.63 139.403 137.192C140.217 139.59 139.964 141.878 139.931 142.186C139.788 142.45 138.82 143.913 137.94 145.2C137.841 145.354 137.874 145.552 138.028 145.662C138.083 145.706 138.149 145.717 138.215 145.717C138.325 145.717 138.424 145.662 138.49 145.574C140.536 142.571 140.558 142.428 140.58 142.34C140.58 142.318 140.976 139.744 140.03 136.994C139.48 135.388 139.579 134.035 139.898 133.463C139.997 133.298 140.107 133.188 140.228 133.155C140.679 133.298 141.933 135.674 143 138.391V138.402C143 138.413 143.011 138.424 143.011 138.435C143.022 138.446 143.022 138.457 143.033 138.468V138.479L143.044 138.49C143.055 138.501 143.066 138.512 143.077 138.523C143.088 138.523 143.088 138.534 143.099 138.534C143.11 138.545 143.121 138.556 143.143 138.556C143.154 138.556 143.154 138.567 143.165 138.567C143.187 138.578 143.209 138.578 143.231 138.589C143.253 138.589 143.275 138.6 143.297 138.6C143.319 138.6 143.33 138.6 143.352 138.6H143.363C143.385 138.6 143.396 138.589 143.407 138.589C143.407 138.589 143.407 138.589 143.418 138.589C143.418 138.589 143.429 138.589 143.429 138.578C143.44 138.578 143.451 138.567 143.462 138.556C143.473 138.556 143.473 138.545 143.484 138.545C143.484 138.545 143.495 138.545 143.495 138.534C143.517 138.523 143.979 138.171 144.463 137.676C145.145 136.983 145.497 136.356 145.53 135.817C145.541 135.63 145.398 135.476 145.222 135.476C145.035 135.465 144.881 135.608 144.881 135.784C144.87 136.103 144.639 136.477 144.353 136.829L143.473 135.927C144.012 135.3 145.365 134.046 146.52 134.178C147.532 134.299 147.609 134.937 147.675 135.564C147.697 135.795 147.719 135.993 147.796 136.158C147.972 136.565 148.401 136.631 148.775 136.686C149.083 136.741 149.38 136.785 149.545 136.994C149.677 137.17 149.688 137.313 149.688 137.522C149.688 137.72 149.699 137.973 149.831 138.248C149.952 138.49 150.15 138.589 150.315 138.677C150.447 138.743 150.546 138.798 150.623 138.908C150.656 138.963 150.678 139.095 150.7 139.205C150.755 139.458 150.81 139.777 151.074 139.953C151.096 139.964 151.118 139.986 151.151 139.997C151.481 140.206 151.8 140.459 151.789 140.987C151.789 141.042 151.789 141.108 151.789 141.174C151.767 142.021 151.745 143.451 149.996 146.443C148.632 148.775 145.684 151.514 145.662 151.536C145.53 151.657 145.519 151.866 145.64 151.998C145.706 152.064 145.794 152.108 145.882 152.108C145.959 152.108 146.047 152.075 146.102 152.02C146.223 151.91 149.149 149.193 150.568 146.773C152.405 143.627 152.427 142.098 152.449 141.185C152.449 141.119 152.449 141.064 152.449 141.009C152.46 140.041 151.778 139.612 151.492 139.425ZM143.44 137.72C143.286 137.346 143.044 136.763 142.758 136.125L143.902 137.291C143.737 137.456 143.572 137.599 143.44 137.72Z" fill="#212121"/>
<path d="M139.161 127.006C139.029 127.006 138.908 126.951 138.82 126.841C138.281 126.159 138.281 125.004 138.281 124.872C138.281 124.63 138.479 124.432 138.732 124.443C138.974 124.443 139.172 124.652 139.161 124.894C139.161 125.158 139.216 125.928 139.502 126.302C139.656 126.489 139.623 126.764 139.436 126.918C139.348 126.984 139.26 127.006 139.161 127.006Z" fill="#F1F1F1"/>
<path d="M140.811 126.753C140.712 126.753 140.613 126.72 140.536 126.654C140.349 126.5 140.316 126.225 140.47 126.038C140.492 126.005 141.053 125.334 141.878 124.751C142.076 124.608 142.351 124.652 142.494 124.85C142.637 125.048 142.593 125.323 142.395 125.466C141.669 125.983 141.163 126.588 141.163 126.599C141.064 126.698 140.943 126.753 140.811 126.753Z" fill="#F1F1F1"/>
<path d="M141.911 127.787C141.779 127.787 141.647 127.732 141.559 127.611C141.416 127.413 141.449 127.138 141.647 126.995C141.702 126.951 142.208 126.588 142.989 126.687C143.231 126.72 143.396 126.94 143.363 127.182C143.33 127.424 143.11 127.589 142.868 127.556C142.45 127.501 142.175 127.688 142.164 127.688C142.098 127.754 141.999 127.787 141.911 127.787Z" fill="#F1F1F1"/>
<path d="M122.958 137.269C122.529 137.269 122.089 137.225 121.638 137.126C116.655 136.059 116.578 132.517 116.512 129.085C116.49 127.831 116.457 126.533 116.182 125.367C115.39 122.012 112.376 117.744 106.502 116.776C106.326 116.743 106.205 116.578 106.227 116.402C106.26 116.226 106.425 116.105 106.601 116.127C112.794 117.139 115.973 121.66 116.82 125.213C117.106 126.434 117.139 127.776 117.161 129.063C117.194 130.768 117.227 132.374 117.821 133.694C118.47 135.157 119.724 136.037 121.77 136.477C123.2 136.785 124.476 136.554 125.576 135.784C127.094 134.728 128.029 132.825 128.535 131.417C129.096 129.866 129.294 128.557 129.294 128.535C129.316 128.359 129.492 128.227 129.668 128.26C129.844 128.282 129.976 128.458 129.943 128.634C129.91 128.854 129.118 134.123 125.95 136.323C125.059 136.95 124.058 137.269 122.958 137.269Z" fill="#212121"/>
<path d="M128.942 126.731C128.843 126.731 128.744 126.698 128.656 126.632C127.787 125.895 127.809 124.894 127.809 124.85C127.82 124.608 128.018 124.41 128.26 124.421C128.502 124.432 128.689 124.63 128.689 124.872C128.689 124.905 128.689 125.51 129.217 125.95C129.404 126.104 129.426 126.39 129.272 126.566C129.184 126.687 129.063 126.731 128.942 126.731Z" fill="#F1F1F1"/>
<path d="M130.482 126.324C130.471 126.324 130.46 126.324 130.438 126.324C130.196 126.302 130.02 126.093 130.042 125.851C130.108 125.114 130.658 124.542 130.724 124.476C130.9 124.3 131.175 124.3 131.351 124.476C131.527 124.652 131.527 124.927 131.351 125.092C131.241 125.202 130.955 125.565 130.922 125.917C130.9 126.148 130.702 126.324 130.482 126.324Z" fill="#F1F1F1"/>
<path d="M131.527 127.391C131.417 127.391 131.307 127.347 131.219 127.259C131.043 127.083 131.043 126.808 131.219 126.632C131.758 126.093 132.506 126.137 132.869 126.247C133.1 126.313 133.232 126.566 133.155 126.797C133.089 127.028 132.836 127.16 132.605 127.083C132.594 127.083 132.132 126.951 131.835 127.248C131.747 127.347 131.637 127.391 131.527 127.391Z" fill="#F1F1F1"/>
<path d="M91.421 197.615C86.911 192.995 80.212 187.352 72.061 181.302C71.918 181.192 71.709 181.225 71.599 181.368C71.489 181.511 71.522 181.709 71.654 181.819L62.084 193.523C57.607 190.894 52.965 188.001 48.279 184.932C37.62 177.925 27.929 170.698 20.647 164.373C21.23 163.713 23.408 161.216 24.739 159.852C26.015 158.521 27.511 155.705 27.973 154.792C28.138 154.869 28.336 154.803 28.413 154.638C28.49 154.473 28.424 154.275 28.259 154.198C22.924 151.602 18.326 149.743 14.96 148.83C11.253 147.818 9.06402 147.906 8.27202 149.116C7.56802 150.194 8.11802 151.943 9.97702 154.473C11.671 156.772 14.377 159.621 18.018 162.943C25.498 169.741 36.113 177.749 47.905 185.504C59.697 193.259 71.258 199.826 80.465 203.995C84.953 206.03 88.638 207.383 91.421 208.032C92.631 208.307 93.643 208.45 94.479 208.45C95.744 208.45 96.58 208.12 97.009 207.471C98.087 205.832 96.206 202.521 91.421 197.615Z" fill="#212121"/>
<path d="M147.158 153.736C143.286 146.322 138.49 145.112 138.292 145.057H138.281C138.27 145.057 138.259 145.057 138.248 145.057C138.237 145.057 138.226 145.057 138.215 145.057C138.204 145.057 138.193 145.057 138.182 145.057C138.171 145.057 138.16 145.057 138.149 145.057C138.138 145.057 138.138 145.057 138.127 145.068C138.116 145.068 138.105 145.079 138.094 145.079C138.083 145.079 138.083 145.09 138.072 145.09C138.061 145.101 138.05 145.101 138.039 145.112C138.028 145.112 138.028 145.123 138.017 145.123C138.006 145.134 137.995 145.134 137.984 145.145C137.973 145.156 137.973 145.156 137.962 145.167C137.951 145.178 137.94 145.189 137.94 145.2C137.94 145.2 137.94 145.2 137.94 145.211C134.651 150.326 130.031 155.221 125.268 158.642C120.131 162.327 115.093 164.109 111.089 163.658C107.283 163.229 103.719 160.369 100.496 155.166C98.12 151.327 95.975 146.377 93.731 139.579C92.136 134.75 90.002 130.812 87.219 127.545C84.997 124.938 82.412 122.782 78.837 120.538C77.913 119.955 76.945 119.416 75.988 118.921L77.066 109.417C77.088 109.241 76.956 109.076 76.78 109.054C76.604 109.032 76.439 109.164 76.417 109.34L75.361 118.602C73.293 117.568 71.269 116.732 69.707 116.138C68.222 115.566 67.034 115.181 66.308 114.95C64.889 114.499 64.79 114.532 64.702 114.565C64.526 114.62 64.438 114.807 64.493 114.983C64.537 115.126 64.669 115.214 64.801 115.214C65.494 115.324 72.941 117.634 78.485 121.099C84.018 124.564 89.628 129.228 93.104 139.788C96.415 149.831 101.871 163.295 111.012 164.318C111.474 164.373 111.936 164.395 112.398 164.395C117.304 164.395 122.243 161.623 125.653 159.181C130.416 155.771 135.036 150.898 138.358 145.783C139.315 146.102 143.242 147.763 146.509 153.923C146.289 154.44 145.431 156.376 143.715 159.093C141.867 162.019 138.6 166.485 133.595 171.116C123.101 180.829 111.474 185.306 99.979 184.085C92.917 183.337 87.142 180.862 83.545 178.926C79.64 176.825 77.374 174.867 77.352 174.856C77.308 174.812 72.688 170.896 70.73 166.859C69.674 164.692 69.135 162.877 68.739 161.557C68.354 160.281 68.101 159.434 67.628 158.961C67.166 158.499 66.473 158.323 65.78 158.488C64.922 158.697 64.229 159.357 63.932 160.259C63.657 161.106 62.458 165.66 66.198 171.611C67.265 173.316 68.552 174.691 69.685 175.912C71.852 178.233 72.974 179.575 71.852 181.115L71.632 181.39C71.599 181.434 71.577 181.489 71.566 181.544L61.853 193.655C61.743 193.798 61.765 194.007 61.908 194.117C61.974 194.161 62.04 194.194 62.117 194.194C62.216 194.194 62.315 194.15 62.37 194.073L77.198 175.582C77.902 176.154 79.992 177.76 83.226 179.509C86.878 181.478 92.741 183.986 99.924 184.756C105.941 185.394 112.035 184.503 118.008 182.083C123.574 179.839 128.975 176.308 134.057 171.611C143.759 162.646 147.158 154.121 147.191 154.033C147.202 153.923 147.202 153.824 147.158 153.736Z" fill="#212121"/>
<path d="M92.004 96.393C91.443 95.92 90.838 96.03 90.244 96.129C89.958 96.173 89.661 96.228 89.364 96.206C89.1 96.195 89.089 96.195 88.935 95.359C88.825 94.732 88.649 93.797 88.176 92.389C87.065 89.067 82.896 85.492 82.72 85.338C82.577 85.217 82.368 85.239 82.258 85.371C82.137 85.514 82.159 85.723 82.291 85.833C82.335 85.866 86.493 89.441 87.56 92.587C88.022 93.951 88.187 94.864 88.297 95.469C88.451 96.305 88.539 96.811 89.342 96.855C89.716 96.877 90.068 96.822 90.376 96.767C90.948 96.668 91.289 96.624 91.597 96.888C91.773 97.042 91.85 97.284 91.817 97.559C91.751 97.999 91.377 98.604 90.497 99C89.001 99.66 87.582 101.2 86.702 103.125C85.646 105.435 83.985 107.173 81.906 108.152C79.497 109.285 76.67 109.373 73.491 108.394H73.48C73.469 108.394 73.458 108.383 73.447 108.383C73.436 108.383 73.425 108.383 73.425 108.383C73.414 108.383 73.403 108.383 73.392 108.383C73.381 108.383 73.37 108.383 73.37 108.383C73.359 108.383 73.348 108.383 73.337 108.394C73.326 108.394 73.315 108.394 73.315 108.405C73.293 108.416 73.282 108.416 73.26 108.427C73.249 108.427 73.249 108.438 73.238 108.438C73.227 108.449 73.216 108.449 73.205 108.46C73.194 108.471 73.194 108.471 73.183 108.482C73.172 108.493 73.161 108.493 73.161 108.504C73.15 108.515 73.15 108.515 73.139 108.526C73.139 108.537 73.128 108.537 73.128 108.548C73.128 108.548 73.128 108.559 73.117 108.559C73.029 108.724 72.215 110.363 74.283 113.685C75.295 115.313 75.449 116.853 75.427 117.81L75.306 118.822C75.284 118.998 75.405 119.152 75.57 119.185C75.592 119.185 75.614 119.196 75.636 119.196C75.779 119.196 75.911 119.097 75.955 118.954C75.966 118.91 76.076 118.481 76.098 117.799L77.077 109.725C77.275 109.736 77.484 109.736 77.682 109.736C79.31 109.736 80.817 109.406 82.203 108.757C84.425 107.712 86.196 105.853 87.318 103.411C88.121 101.662 89.452 100.199 90.783 99.616C91.74 99.198 92.378 98.461 92.488 97.669C92.521 97.163 92.356 96.701 92.004 96.393Z" fill="#212121"/>
<path d="M96.712 121.264C96.657 121.264 96.613 121.253 96.558 121.231C96.393 121.143 96.327 120.945 96.415 120.791C97.053 119.559 96.91 118.162 95.997 116.633C95.953 116.556 95.931 116.512 95.909 116.479C95.766 116.138 96.019 115.83 97.757 114.213L97.944 114.037C98.428 113.586 98.604 113.091 98.538 112.827C98.516 112.739 98.461 112.618 98.208 112.563C98.021 112.519 97.086 112.75 94.842 113.949C93.291 114.774 91.751 115.731 91.333 116.138C90.464 116.985 88.506 119.9 88.495 119.933C88.396 120.087 88.187 120.131 88.033 120.021C87.879 119.922 87.835 119.713 87.945 119.559C88.022 119.438 89.958 116.545 90.882 115.654C91.718 114.851 97.207 111.639 98.362 111.914C98.791 112.013 99.077 112.277 99.176 112.651C99.319 113.201 99.011 113.938 98.395 114.51L98.208 114.686C97.713 115.148 96.811 115.984 96.58 116.303C97.284 117.491 97.922 119.284 97.009 121.077C96.943 121.198 96.833 121.264 96.712 121.264Z" fill="#212121"/>
</svg>
